<svg width="674pt" height="674pt"
 viewBox="0.00 0.00 674.00 674.00" xmlns="http://www.w3.org/2000/svg" xmlns:xlink="http://www.w3.org/1999/xlink"><style>
  * {
    fill: transparent !important;
    stroke: rgb(255, 255, 255) !important;
    stroke-width: 1 !important;
  }
  polygon:not(.cluster *, .node *, .edge *, text) {
    stroke: transparent !important;
  }
  text {
    font-size: 10px !important;
    font-family: monospace !important;
    fill: rgb(255, 255, 255) !important;
    stroke: transparent !important;
    transform: translateY(-0.5em);
  }
</style>
<g id="graph0" class="graph" transform="scale(1 1) rotate(0) translate(4 669.5)">
<title>G</title>
<polygon fill="white" stroke="none" points="-4,4 -4,-669.5 669.5,-669.5 669.5,4 -4,4"/>
<!-- CDP DOM Data -->
<g id="node1" class="node">
<title>CDP DOM Data</title>
<polygon fill="lightblue" stroke="black" points="397,-651 261,-651 261,-615 397,-615 397,-651"/>
<text xml:space="preserve" text-anchor="middle" x="329" y="-624.95" font-family="Times,serif" font-size="14.00">Raw CDP DOM Data</text>
</g>
<!-- Enhanced DOM Tree -->
<g id="node2" class="node">
<title>Enhanced DOM Tree</title>
<polygon fill="lightblue" stroke="black" points="490.75,-501 167.25,-501 167.25,-465 490.75,-465 490.75,-501"/>
<text xml:space="preserve" text-anchor="middle" x="329" y="-474.95" font-family="Times,serif" font-size="14.00">Enhanced DOM Tree (browser_use.dom.views)</text>
</g>
<!-- CDP DOM Data&#45;&gt;Enhanced DOM Tree -->
<g id="edge1" class="edge">
<title>CDP DOM Data&#45;&gt;Enhanced DOM Tree</title>
<path fill="none" stroke="black" d="M329,-614.73C329,-589.67 329,-542.9 329,-512.63"/>
<polygon fill="black" stroke="black" points="332.5,-512.67 329,-502.67 325.5,-512.67 332.5,-512.67"/>
<text xml:space="preserve" text-anchor="middle" x="392.75" y="-549.95" font-family="Times,serif" font-size="14.00">Parses &amp; Enhances</text>
</g>
<!-- DOMTreeSerializer -->
<g id="node3" class="node">
<title>DOMTreeSerializer</title>
<polygon fill="lightblue" stroke="black" points="509.5,-351 148.5,-351 148.5,-315 509.5,-315 509.5,-351"/>
<text xml:space="preserve" text-anchor="middle" x="329" y="-324.95" font-family="Times,serif" font-size="14.00">DOMTreeSerializer (browser_use.dom.serializer)</text>
</g>
<!-- Enhanced DOM Tree&#45;&gt;DOMTreeSerializer -->
<g id="edge2" class="edge">
<title>Enhanced DOM Tree&#45;&gt;DOMTreeSerializer</title>
<path fill="none" stroke="black" d="M329,-464.73C329,-439.67 329,-392.9 329,-362.63"/>
<polygon fill="black" stroke="black" points="332.5,-362.67 329,-352.67 325.5,-362.67 332.5,-362.67"/>
<text xml:space="preserve" text-anchor="middle" x="362.75" y="-399.95" font-family="Times,serif" font-size="14.00">Processes</text>
</g>
<!-- Simplified Tree -->
<g id="node4" class="node">
<title>Simplified Tree</title>
<polygon fill="lightblue" stroke="black" points="438.25,-201 219.75,-201 219.75,-165 438.25,-165 438.25,-201"/>
<text xml:space="preserve" text-anchor="middle" x="329" y="-174.95" font-family="Times,serif" font-size="14.00">Simplified &amp; Optimized Tree</text>
</g>
<!-- DOMTreeSerializer&#45;&gt;Simplified Tree -->
<g id="edge3" class="edge">
<title>DOMTreeSerializer&#45;&gt;Simplified Tree</title>
<path fill="none" stroke="black" d="M329,-314.73C329,-289.67 329,-242.9 329,-212.63"/>
<polygon fill="black" stroke="black" points="332.5,-212.67 329,-202.67 325.5,-212.67 332.5,-212.67"/>
<text xml:space="preserve" text-anchor="middle" x="404" y="-249.95" font-family="Times,serif" font-size="14.00">Simplifies &amp; Filters</text>
</g>
<!-- LLM Serialization -->
<g id="node5" class="node">
<title>LLM Serialization</title>
<polygon fill="lightblue" stroke="black" points="316,-51 0,-51 0,-15 316,-15 316,-51"/>
<text xml:space="preserve" text-anchor="middle" x="158" y="-24.95" font-family="Times,serif" font-size="14.00">LLM&#45;Optimized Output (DOMEvalSerializer)</text>
</g>
<!-- Simplified Tree&#45;&gt;LLM Serialization -->
<g id="edge4" class="edge">
<title>Simplified Tree&#45;&gt;LLM Serialization</title>
<path fill="none" stroke="black" d="M309.05,-164.73C278.75,-138.51 221.02,-88.55 186.37,-58.55"/>
<polygon fill="black" stroke="black" points="189.08,-56.27 179.23,-52.38 184.5,-61.57 189.08,-56.27"/>
<text xml:space="preserve" text-anchor="middle" x="304.88" y="-99.95" font-family="Times,serif" font-size="14.00">Formats for LLM</text>
</g>
<!-- Code Agent Serialization -->
<g id="node6" class="node">
<title>Code Agent Serialization</title>
<polygon fill="lightblue" stroke="black" points="665.5,-51 334.5,-51 334.5,-15 665.5,-15 665.5,-51"/>
<text xml:space="preserve" text-anchor="middle" x="500" y="-24.95" font-family="Times,serif" font-size="14.00">Code Agent Output (DOMCodeAgentSerializer)</text>
</g>
<!-- Simplified Tree&#45;&gt;Code Agent Serialization -->
<g id="edge5" class="edge">
<title>Simplified Tree&#45;&gt;Code Agent Serialization</title>
<path fill="none" stroke="black" d="M348.95,-164.73C379.25,-138.51 436.98,-88.55 471.63,-58.55"/>
<polygon fill="black" stroke="black" points="473.5,-61.57 478.77,-52.38 468.92,-56.27 473.5,-61.57"/>
<text xml:space="preserve" text-anchor="middle" x="502.13" y="-99.95" font-family="Times,serif" font-size="14.00">Formats for Code Agent</text>
</g>
</g>
</svg>