<svg width="260pt" height="260pt"
 viewBox="0.00 0.00 260.00 260.00" xmlns="http://www.w3.org/2000/svg" xmlns:xlink="http://www.w3.org/1999/xlink"><style>
  * {
    fill: transparent !important;
    stroke: rgb(255, 255, 255) !important;
    stroke-width: 1 !important;
  }
  polygon:not(.cluster *, .node *, .edge *, text) {
    stroke: transparent !important;
  }
  text {
    font-size: 10px !important;
    font-family: monospace !important;
    fill: rgb(255, 255, 255) !important;
    stroke: transparent !important;
    transform: translateY(-0.5em);
  }
</style>
<g id="graph0" class="graph" transform="scale(1 1) rotate(0) translate(4 256)">
<title>G</title>
<polygon fill="white" stroke="none" points="-4,4 -4,-256 256,-256 256,4 -4,4"/>
<!-- python:3.12&#45;slim -->
<g id="node1" class="node">
<title>python:3.12&#45;slim</title>
<polygon fill="lightblue" stroke="black" points="194,-252 58,-252 58,-216 194,-216 194,-252"/>
<text xml:space="preserve" text-anchor="middle" x="126" y="-225.95" font-family="Times,serif" font-size="14.00">python:3.12&#45;slim</text>
</g>
<!-- base&#45;system -->
<g id="node2" class="node">
<title>base&#45;system</title>
<polygon fill="lightblue" stroke="black" points="175.25,-180 76.75,-180 76.75,-144 175.25,-144 175.25,-180"/>
<text xml:space="preserve" text-anchor="middle" x="126" y="-153.95" font-family="Times,serif" font-size="14.00">base&#45;system</text>
</g>
<!-- python:3.12&#45;slim&#45;&gt;base&#45;system -->
<g id="edge1" class="edge">
<title>python:3.12&#45;slim&#45;&gt;base&#45;system</title>
<path fill="none" stroke="black" d="M126,-215.7C126,-208.41 126,-199.73 126,-191.54"/>
<polygon fill="black" stroke="black" points="129.5,-191.62 126,-181.62 122.5,-191.62 129.5,-191.62"/>
</g>
<!-- base&#45;chromium -->
<g id="node3" class="node">
<title>base&#45;chromium</title>
<polygon fill="lightblue" stroke="black" points="182.75,-108 69.25,-108 69.25,-72 182.75,-72 182.75,-108"/>
<text xml:space="preserve" text-anchor="middle" x="126" y="-81.95" font-family="Times,serif" font-size="14.00">base&#45;chromium</text>
</g>
<!-- base&#45;system&#45;&gt;base&#45;chromium -->
<g id="edge2" class="edge">
<title>base&#45;system&#45;&gt;base&#45;chromium</title>
<path fill="none" stroke="black" d="M126,-143.7C126,-136.41 126,-127.73 126,-119.54"/>
<polygon fill="black" stroke="black" points="129.5,-119.62 126,-109.62 122.5,-119.62 129.5,-119.62"/>
</g>
<!-- base&#45;python&#45;deps -->
<g id="node4" class="node">
<title>base&#45;python&#45;deps</title>
<polygon fill="lightblue" stroke="black" points="194,-36 58,-36 58,0 194,0 194,-36"/>
<text xml:space="preserve" text-anchor="middle" x="126" y="-9.95" font-family="Times,serif" font-size="14.00">base&#45;python&#45;deps</text>
</g>
<!-- base&#45;chromium&#45;&gt;base&#45;python&#45;deps -->
<g id="edge3" class="edge">
<title>base&#45;chromium&#45;&gt;base&#45;python&#45;deps</title>
<path fill="none" stroke="black" d="M126,-71.7C126,-64.41 126,-55.73 126,-47.54"/>
<polygon fill="black" stroke="black" points="129.5,-47.62 126,-37.62 122.5,-47.62 129.5,-47.62"/>
</g>
</g>
</svg>