<svg width="489pt" height="386pt"
 viewBox="0.00 0.00 489.00 386.00" xmlns="http://www.w3.org/2000/svg" xmlns:xlink="http://www.w3.org/1999/xlink"><style>
  * {
    fill: transparent !important;
    stroke: rgb(255, 255, 255) !important;
    stroke-width: 1 !important;
  }
  polygon:not(.cluster *, .node *, .edge *, text) {
    stroke: transparent !important;
  }
  text {
    font-size: 10px !important;
    font-family: monospace !important;
    fill: rgb(255, 255, 255) !important;
    stroke: transparent !important;
    transform: translateY(-0.5em);
  }
</style>
<g id="graph0" class="graph" transform="scale(1 1) rotate(0) translate(4 381.5)">
<title>G</title>
<polygon fill="white" stroke="none" points="-4,4 -4,-381.5 484.55,-381.5 484.55,4 -4,4"/>
<!-- External Chat Platform -->
<g id="node1" class="node">
<title>External Chat Platform</title>
<polygon fill="lightblue" stroke="black" points="234.25,-372 105.75,-372 105.75,-336 234.25,-336 234.25,-372"/>
<text xml:space="preserve" text-anchor="middle" x="170" y="-345.95" font-family="Times,serif" font-size="14.00">Discord / Slack</text>
</g>
<!-- Browser&#45;Use Agent -->
<g id="node2" class="node">
<title>Browser&#45;Use Agent</title>
<polygon fill="lightblue" stroke="black" points="197,-262 143,-262 143,-226 197,-226 197,-262"/>
<text xml:space="preserve" text-anchor="middle" x="170" y="-235.95" font-family="Times,serif" font-size="14.00">Agent</text>
</g>
<!-- External Chat Platform&#45;&gt;Browser&#45;Use Agent -->
<g id="edge1" class="edge">
<title>External Chat Platform&#45;&gt;Browser&#45;Use Agent</title>
<path fill="none" stroke="black" d="M139.71,-335.7C128.7,-327.68 117.5,-317.06 111.5,-304.25 103.91,-288.05 117.32,-273.67 133.21,-263.14"/>
<polygon fill="black" stroke="black" points="134.66,-266.35 141.41,-258.18 131.04,-260.36 134.66,-266.35"/>
<text xml:space="preserve" text-anchor="middle" x="160.25" y="-290.95" font-family="Times,serif" font-size="14.00">Triggers Task</text>
</g>
<!-- Browser&#45;Use Agent&#45;&gt;External Chat Platform -->
<g id="edge7" class="edge">
<title>Browser&#45;Use Agent&#45;&gt;External Chat Platform</title>
<path fill="none" stroke="black" d="M192.37,-262.44C203.84,-273.64 214.38,-288.91 209,-304.25 206.14,-312.41 201.28,-320.21 195.94,-327.09"/>
<polygon fill="black" stroke="black" points="193.28,-324.81 189.48,-334.7 198.62,-329.34 193.28,-324.81"/>
<text xml:space="preserve" text-anchor="middle" x="255.44" y="-290.95" font-family="Times,serif" font-size="14.00">Sends Result</text>
</g>
<!-- LLM -->
<g id="node3" class="node">
<title>LLM</title>
<polygon fill="lightblue" stroke="black" points="54,-152 0,-152 0,-116 54,-116 54,-152"/>
<text xml:space="preserve" text-anchor="middle" x="27" y="-125.95" font-family="Times,serif" font-size="14.00">LLM</text>
</g>
<!-- Browser&#45;Use Agent&#45;&gt;LLM -->
<g id="edge2" class="edge">
<title>Browser&#45;Use Agent&#45;&gt;LLM</title>
<path fill="none" stroke="black" d="M147.02,-225.65C123.15,-207.62 85.62,-179.27 58.88,-159.08"/>
<polygon fill="black" stroke="black" points="61.22,-156.46 51.13,-153.22 57,-162.04 61.22,-156.46"/>
<text xml:space="preserve" text-anchor="middle" x="117.79" y="-180.95" font-family="Times,serif" font-size="14.00">Uses</text>
</g>
<!-- Browser -->
<g id="node4" class="node">
<title>Browser</title>
<polygon fill="lightblue" stroke="black" points="268,-152 72,-152 72,-116 268,-116 268,-152"/>
<text xml:space="preserve" text-anchor="middle" x="170" y="-125.95" font-family="Times,serif" font-size="14.00">Browser / BrowserSession</text>
</g>
<!-- Browser&#45;Use Agent&#45;&gt;Browser -->
<g id="edge3" class="edge">
<title>Browser&#45;Use Agent&#45;&gt;Browser</title>
<path fill="none" stroke="black" d="M170,-225.65C170,-208.96 170,-183.42 170,-163.7"/>
<polygon fill="black" stroke="black" points="173.5,-163.82 170,-153.82 166.5,-163.82 173.5,-163.82"/>
<text xml:space="preserve" text-anchor="middle" x="200" y="-180.95" font-family="Times,serif" font-size="14.00">Controls</text>
</g>
<!-- Email Tools -->
<g id="node5" class="node">
<title>Email Tools</title>
<polygon fill="lightblue" stroke="black" points="377.5,-152 286.5,-152 286.5,-116 377.5,-116 377.5,-152"/>
<text xml:space="preserve" text-anchor="middle" x="332" y="-125.95" font-family="Times,serif" font-size="14.00">EmailTools</text>
</g>
<!-- Browser&#45;Use Agent&#45;&gt;Email Tools -->
<g id="edge4" class="edge">
<title>Browser&#45;Use Agent&#45;&gt;Email Tools</title>
<path fill="none" stroke="black" d="M196.03,-225.65C223.23,-207.52 266.08,-178.95 296.4,-158.73"/>
<polygon fill="black" stroke="black" points="298.13,-161.79 304.51,-153.33 294.25,-155.96 298.13,-161.79"/>
<text xml:space="preserve" text-anchor="middle" x="270.86" y="-180.95" font-family="Times,serif" font-size="14.00">Uses</text>
</g>
<!-- Email Service -->
<g id="node6" class="node">
<title>Email Service</title>
<polygon fill="lightblue" stroke="black" points="373.75,-42 290.25,-42 290.25,-6 373.75,-6 373.75,-42"/>
<text xml:space="preserve" text-anchor="middle" x="332" y="-15.95" font-family="Times,serif" font-size="14.00">AgentMail</text>
</g>
<!-- Email Tools&#45;&gt;Email Service -->
<g id="edge5" class="edge">
<title>Email Tools&#45;&gt;Email Service</title>
<path fill="none" stroke="black" d="M292.9,-115.57C275.56,-105.12 260.73,-90.6 269,-73.75 273.65,-64.27 281.14,-56.1 289.35,-49.32"/>
<polygon fill="black" stroke="black" points="291.33,-52.2 297.23,-43.4 287.13,-46.6 291.33,-52.2"/>
<text xml:space="preserve" text-anchor="middle" x="321.5" y="-70.95" font-family="Times,serif" font-size="14.00">Interacts with</text>
</g>
<!-- Email Service&#45;&gt;Email Tools -->
<g id="edge6" class="edge">
<title>Email Service&#45;&gt;Email Tools</title>
<path fill="none" stroke="black" d="M352.34,-42.34C360.75,-50.84 369.57,-61.81 374,-73.75 378.48,-85.82 372.71,-97.68 364.15,-107.59"/>
<polygon fill="black" stroke="black" points="361.69,-105.09 357.16,-114.67 366.67,-110.01 361.69,-105.09"/>
<text xml:space="preserve" text-anchor="middle" x="428.05" y="-70.95" font-family="Times,serif" font-size="14.00">Sends email to</text>
</g>
</g>
</svg>