<svg width="538pt" height="538pt"
 viewBox="0.00 0.00 538.00 538.00" xmlns="http://www.w3.org/2000/svg" xmlns:xlink="http://www.w3.org/1999/xlink"><style>
  * {
    fill: transparent !important;
    stroke: rgb(255, 255, 255) !important;
    stroke-width: 1 !important;
  }
  polygon:not(.cluster *, .node *, .edge *, text) {
    stroke: transparent !important;
  }
  text {
    font-size: 10px !important;
    font-family: monospace !important;
    fill: rgb(255, 255, 255) !important;
    stroke: transparent !important;
    transform: translateY(-0.5em);
  }
</style>
<g id="graph0" class="graph" transform="scale(1 1) rotate(0) translate(4 534)">
<title>G</title>
<polygon fill="white" stroke="none" points="-4,4 -4,-534 534,-534 534,4 -4,4"/>
<!-- Decorated Function -->
<g id="node1" class="node">
<title>Decorated Function</title>
<polygon fill="lightblue" stroke="black" points="344.5,-522 193.5,-522 193.5,-486 344.5,-486 344.5,-522"/>
<text xml:space="preserve" text-anchor="middle" x="269" y="-501.2" font-family="Times,serif" font-size="14.00">Decorated Function</text>
<text xml:space="preserve" text-anchor="middle" x="269" y="-490.7" font-family="Times,serif" font-size="14.00">(via @sandbox)</text>
</g>
<!-- Sandbox Execution Environment -->
<g id="node2" class="node">
<title>Sandbox Execution Environment</title>
<polygon fill="lightblue" stroke="black" points="385.75,-402 152.25,-402 152.25,-366 385.75,-366 385.75,-402"/>
<text xml:space="preserve" text-anchor="middle" x="269" y="-375.95" font-family="Times,serif" font-size="14.00">Sandbox Execution Environment</text>
</g>
<!-- Decorated Function&#45;&gt;Sandbox Execution Environment -->
<g id="edge1" class="edge">
<title>Decorated Function&#45;&gt;Sandbox Execution Environment</title>
<path fill="none" stroke="black" d="M269,-485.59C269,-466.68 269,-436.17 269,-413.7"/>
<polygon fill="black" stroke="black" points="272.5,-414 269,-404 265.5,-414 272.5,-414"/>
<text xml:space="preserve" text-anchor="middle" x="340.25" y="-435.95" font-family="Times,serif" font-size="14.00">Sends code &amp; params</text>
</g>
<!-- SSEEvent Stream -->
<g id="node3" class="node">
<title>SSEEvent Stream</title>
<polygon fill="lightblue" stroke="black" points="333.25,-283 204.75,-283 204.75,-247 333.25,-247 333.25,-283"/>
<text xml:space="preserve" text-anchor="middle" x="269" y="-256.95" font-family="Times,serif" font-size="14.00">SSEEvent Stream</text>
</g>
<!-- Sandbox Execution Environment&#45;&gt;SSEEvent Stream -->
<g id="edge2" class="edge">
<title>Sandbox Execution Environment&#45;&gt;SSEEvent Stream</title>
<path fill="none" stroke="black" d="M269,-365.74C269,-347.07 269,-317.01 269,-294.77"/>
<polygon fill="black" stroke="black" points="272.5,-294.85 269,-284.85 265.5,-294.85 272.5,-294.85"/>
<text xml:space="preserve" text-anchor="middle" x="314" y="-316.95" font-family="Times,serif" font-size="14.00">Emits Events</text>
</g>
<!-- SSEEvent -->
<g id="node4" class="node">
<title>SSEEvent</title>
<polygon fill="lightblue" stroke="black" points="228,-164 152,-164 152,-128 228,-128 228,-164"/>
<text xml:space="preserve" text-anchor="middle" x="190" y="-137.95" font-family="Times,serif" font-size="14.00">SSEEvent</text>
</g>
<!-- SSEEvent Stream&#45;&gt;SSEEvent -->
<g id="edge3" class="edge">
<title>SSEEvent Stream&#45;&gt;SSEEvent</title>
<path fill="none" stroke="black" d="M257.34,-246.74C244.33,-227.47 223.12,-196.05 207.98,-173.63"/>
<polygon fill="black" stroke="black" points="211.05,-171.92 202.55,-165.59 205.25,-175.84 211.05,-171.92"/>
<text xml:space="preserve" text-anchor="middle" x="261.87" y="-196.95" font-family="Times,serif" font-size="14.00">Contains</text>
</g>
<!-- Callback Handlers -->
<g id="node7" class="node">
<title>Callback Handlers</title>
<polygon fill="lightblue" stroke="black" points="449.75,-164 246.25,-164 246.25,-128 449.75,-128 449.75,-164"/>
<text xml:space="preserve" text-anchor="middle" x="348" y="-143.2" font-family="Times,serif" font-size="14.00">Callback Handlers</text>
<text xml:space="preserve" text-anchor="middle" x="348" y="-132.7" font-family="Times,serif" font-size="14.00">(on_log, on_result, etc.)</text>
</g>
<!-- SSEEvent Stream&#45;&gt;Callback Handlers -->
<g id="edge6" class="edge">
<title>SSEEvent Stream&#45;&gt;Callback Handlers</title>
<path fill="none" stroke="black" d="M280.66,-246.74C293.67,-227.47 314.88,-196.05 330.02,-173.63"/>
<polygon fill="black" stroke="black" points="332.75,-175.84 335.45,-165.59 326.95,-171.92 332.75,-175.84"/>
<text xml:space="preserve" text-anchor="middle" x="385.87" y="-196.95" font-family="Times,serif" font-size="14.00">Dispatches Events to</text>
</g>
<!-- SSEEventType -->
<g id="node5" class="node">
<title>SSEEventType</title>
<polygon fill="lightblue" stroke="black" points="106,-44 0,-44 0,-8 106,-8 106,-44"/>
<text xml:space="preserve" text-anchor="middle" x="53" y="-17.95" font-family="Times,serif" font-size="14.00">SSEEventType</text>
</g>
<!-- SSEEvent&#45;&gt;SSEEventType -->
<g id="edge4" class="edge">
<title>SSEEvent&#45;&gt;SSEEventType</title>
<path fill="none" stroke="black" d="M169.79,-127.59C146.51,-107.54 108.11,-74.47 81.74,-51.76"/>
<polygon fill="black" stroke="black" points="84.31,-49.34 74.44,-45.47 79.74,-54.65 84.31,-49.34"/>
<text xml:space="preserve" text-anchor="middle" x="140.61" y="-77.95" font-family="Times,serif" font-size="14.00">Type</text>
</g>
<!-- Event Data Models -->
<g id="node6" class="node">
<title>Event Data Models</title>
<polygon fill="lightblue" stroke="black" points="530,-44 124,-44 124,-8 530,-8 530,-44"/>
<text xml:space="preserve" text-anchor="middle" x="327" y="-23.2" font-family="Times,serif" font-size="14.00">Event Data Models</text>
<text xml:space="preserve" text-anchor="middle" x="327" y="-12.7" font-family="Times,serif" font-size="14.00">(BrowserCreatedData, LogData, ResultData, ErrorData)</text>
</g>
<!-- SSEEvent&#45;&gt;Event Data Models -->
<g id="edge5" class="edge">
<title>SSEEvent&#45;&gt;Event Data Models</title>
<path fill="none" stroke="black" d="M210.21,-127.59C233.49,-107.54 271.89,-74.47 298.26,-51.76"/>
<polygon fill="black" stroke="black" points="300.26,-54.65 305.56,-45.47 295.69,-49.34 300.26,-54.65"/>
<text xml:space="preserve" text-anchor="middle" x="277.61" y="-77.95" font-family="Times,serif" font-size="14.00">Data</text>
</g>
</g>
</svg>