<svg width="764pt" height="650pt"
 viewBox="0.00 0.00 764.00 650.00" xmlns="http://www.w3.org/2000/svg" xmlns:xlink="http://www.w3.org/1999/xlink"><style>
  * {
    fill: transparent !important;
    stroke: rgb(255, 255, 255) !important;
    stroke-width: 1 !important;
  }
  polygon:not(.cluster *, .node *, .edge *, text) {
    stroke: transparent !important;
  }
  text {
    font-size: 10px !important;
    font-family: monospace !important;
    fill: rgb(255, 255, 255) !important;
    stroke: transparent !important;
    transform: translateY(-0.5em);
  }
</style>
<g id="graph0" class="graph" transform="scale(1 1) rotate(0) translate(4 646.25)">
<title>G</title>
<polygon fill="white" stroke="none" points="-4,4 -4,-646.25 760.38,-646.25 760.38,4 -4,4"/>
<!-- BrowserSession -->
<g id="node1" class="node">
<title>BrowserSession</title>
<polygon fill="lightblue" stroke="black" stroke-width="2" points="466.5,-603 285.5,-603 285.5,-567 466.5,-567 466.5,-603"/>
<text xml:space="preserve" text-anchor="middle" x="376" y="-584.1" font-family="Times,serif" font-size="12.00">BrowserSession</text>
<text xml:space="preserve" text-anchor="middle" x="376" y="-573.6" font-family="Times,serif" font-size="12.00">(Central Orchestrator)</text>
</g>
<!-- EventBus -->
<g id="node2" class="node">
<title>EventBus</title>
<polygon fill="lightblue" stroke="black" stroke-width="2" points="136,-339 0,-339 0,-303 136,-303 136,-339"/>
<text xml:space="preserve" text-anchor="middle" x="68" y="-320.1" font-family="Times,serif" font-size="12.00">EventBus</text>
<text xml:space="preserve" text-anchor="middle" x="68" y="-309.6" font-family="Times,serif" font-size="12.00">(Message Broker)</text>
</g>
<!-- BrowserSession&#45;&gt;EventBus -->
<g id="edge1" class="edge">
<title>BrowserSession&#45;&gt;EventBus</title>
<path fill="none" stroke="#333333" stroke-width="1.5" d="M284.62,-573.49C212.91,-559.92 117.46,-528.92 69.5,-458.25 48.11,-426.74 53.03,-380.97 59.63,-351.34"/>
<polygon fill="#333333" stroke="#333333" stroke-width="1.5" points="62.96,-352.47 61.95,-341.93 56.16,-350.8 62.96,-352.47"/>
<text xml:space="preserve" text-anchor="middle" x="148.25" y="-444.95" font-family="Times,serif" font-size="14.00">dispatches/listens to</text>
</g>
<!-- SessionManager -->
<g id="node4" class="node">
<title>SessionManager</title>
<polygon fill="lightblue" stroke="black" stroke-width="2" points="620.25,-339 401.75,-339 401.75,-303 620.25,-303 620.25,-339"/>
<text xml:space="preserve" text-anchor="middle" x="511" y="-320.1" font-family="Times,serif" font-size="12.00">SessionManager</text>
<text xml:space="preserve" text-anchor="middle" x="511" y="-309.6" font-family="Times,serif" font-size="12.00">(CDP Session &amp; Target Pool)</text>
</g>
<!-- BrowserSession&#45;&gt;SessionManager -->
<g id="edge3" class="edge">
<title>BrowserSession&#45;&gt;SessionManager</title>
<path fill="none" stroke="#333333" stroke-width="1.5" d="M385.07,-566.4C407.97,-521.95 468.32,-404.82 496.33,-350.46"/>
<polygon fill="#333333" stroke="#333333" stroke-width="1.5" points="499.29,-352.38 500.75,-341.88 493.06,-349.17 499.29,-352.38"/>
<text xml:space="preserve" text-anchor="middle" x="488.5" y="-444.95" font-family="Times,serif" font-size="14.00">uses/manages</text>
</g>
<!-- CDPClients -->
<g id="node5" class="node">
<title>CDPClients</title>
<polygon fill="lightblue" stroke="black" stroke-width="2" points="642.25,-76 453.75,-76 453.75,-40 642.25,-40 642.25,-76"/>
<text xml:space="preserve" text-anchor="middle" x="548" y="-57.1" font-family="Times,serif" font-size="12.00">CDPClients</text>
<text xml:space="preserve" text-anchor="middle" x="548" y="-46.6" font-family="Times,serif" font-size="12.00">(Raw CDP Communication)</text>
</g>
<!-- BrowserSession&#45;&gt;CDPClients -->
<g id="edge6" class="edge">
<title>BrowserSession&#45;&gt;CDPClients</title>
<path fill="none" stroke="#333333" stroke-width="1.5" d="M409.42,-566.03C469.18,-531.56 591.61,-449.64 629,-339 659.79,-247.89 600.22,-137.73 567.49,-87.03"/>
<polygon fill="#333333" stroke="#333333" stroke-width="1.5" points="570.45,-85.16 562.01,-78.75 564.61,-89.02 570.45,-85.16"/>
<text xml:space="preserve" text-anchor="middle" x="696.38" y="-312.95" font-family="Times,serif" font-size="14.00">direct CDP calls</text>
</g>
<!-- Watchdogs -->
<g id="node3" class="node">
<title>Watchdogs</title>
<polygon fill="lightblue" stroke="black" stroke-width="2" points="350.75,-76 27.25,-76 27.25,-40 350.75,-40 350.75,-76"/>
<text xml:space="preserve" text-anchor="middle" x="189" y="-57.1" font-family="Times,serif" font-size="12.00">Watchdogs</text>
<text xml:space="preserve" text-anchor="middle" x="189" y="-46.6" font-family="Times,serif" font-size="12.00">(Download, Security, Storage State, etc.)</text>
</g>
<!-- EventBus&#45;&gt;Watchdogs -->
<g id="edge2" class="edge">
<title>EventBus&#45;&gt;Watchdogs</title>
<path fill="none" stroke="#333333" stroke-width="1.5" d="M64.23,-302.42C59.34,-275.66 53.23,-223.61 69.5,-183.75 86.43,-142.27 124.29,-106.72 152.89,-84.3"/>
<polygon fill="#333333" stroke="#333333" stroke-width="1.5" points="154.93,-87.15 160.77,-78.31 150.69,-81.58 154.93,-87.15"/>
<text xml:space="preserve" text-anchor="middle" x="148.25" y="-180.95" font-family="Times,serif" font-size="14.00">dispatches/listens to</text>
</g>
<!-- Watchdogs&#45;&gt;BrowserSession -->
<g id="edge5" class="edge">
<title>Watchdogs&#45;&gt;BrowserSession</title>
<path fill="none" stroke="#333333" stroke-width="1.5" d="M195.37,-76.96C203.7,-101 218.24,-145.11 227,-183.75 242.43,-251.81 229.09,-272.58 250.5,-339 277.33,-422.24 329.93,-511.66 357.75,-555.9"/>
<polygon fill="#333333" stroke="#333333" stroke-width="1.5" points="354.72,-557.66 363.04,-564.22 360.63,-553.9 354.72,-557.66"/>
<text xml:space="preserve" text-anchor="middle" x="321.75" y="-312.95" font-family="Times,serif" font-size="14.00">triggers actions on</text>
</g>
<!-- SessionManager&#45;&gt;CDPClients -->
<g id="edge4" class="edge">
<title>SessionManager&#45;&gt;CDPClients</title>
<path fill="none" stroke="#333333" stroke-width="1.5" d="M513.54,-302.06C519.82,-257.81 536.08,-143.11 543.8,-88.6"/>
<polygon fill="#333333" stroke="#333333" stroke-width="1.5" points="547.23,-89.36 545.17,-78.97 540.3,-88.38 547.23,-89.36"/>
<text xml:space="preserve" text-anchor="middle" x="559.5" y="-180.95" font-family="Times,serif" font-size="14.00">controls</text>
</g>
</g>
</svg>