<svg width="292pt" height="292pt"
 viewBox="0.00 0.00 292.00 292.00" xmlns="http://www.w3.org/2000/svg" xmlns:xlink="http://www.w3.org/1999/xlink"><style>
  * {
    fill: transparent !important;
    stroke: rgb(255, 255, 255) !important;
    stroke-width: 1 !important;
  }
  polygon:not(.cluster *, .node *, .edge *, text) {
    stroke: transparent !important;
  }
  text {
    font-size: 10px !important;
    font-family: monospace !important;
    fill: rgb(255, 255, 255) !important;
    stroke: transparent !important;
    transform: translateY(-0.5em);
  }
</style>
<g id="graph0" class="graph" transform="scale(1 1) rotate(0) translate(4 287.5)">
<title>G</title>
<polygon fill="white" stroke="none" points="-4,4 -4,-287.5 287.5,-287.5 287.5,4 -4,4"/>
<!-- python:3.12&#45;slim -->
<g id="node1" class="node">
<title>python:3.12&#45;slim</title>
<polygon fill="lightblue" stroke="black" points="221,-284 62.5,-284 62.5,-248 221,-248 221,-284"/>
<text xml:space="preserve" text-anchor="middle" x="141.75" y="-263.2" font-family="Times,serif" font-size="14.00">python:3.12&#45;slim</text>
<text xml:space="preserve" text-anchor="middle" x="141.75" y="-252.7" font-family="Times,serif" font-size="14.00">(Base Python image)</text>
</g>
<!-- base&#45;system -->
<g id="node2" class="node">
<title>base&#45;system</title>
<polygon fill="lightblue" stroke="black" points="232.25,-201 51.25,-201 51.25,-165 232.25,-165 232.25,-201"/>
<text xml:space="preserve" text-anchor="middle" x="141.75" y="-180.2" font-family="Times,serif" font-size="14.00">browseruse/base&#45;system</text>
<text xml:space="preserve" text-anchor="middle" x="141.75" y="-169.7" font-family="Times,serif" font-size="14.00">(Adds uv, system deps)</text>
</g>
<!-- python:3.12&#45;slim&#45;&gt;base&#45;system -->
<g id="edge1" class="edge">
<title>python:3.12&#45;slim&#45;&gt;base&#45;system</title>
<path fill="none" stroke="black" d="M141.75,-247.82C141.75,-237.69 141.75,-224.6 141.75,-212.92"/>
<polygon fill="black" stroke="black" points="145.25,-212.95 141.75,-202.95 138.25,-212.95 145.25,-212.95"/>
<text xml:space="preserve" text-anchor="middle" x="156.75" y="-215.95" font-family="Times,serif" font-size="14.00">FROM</text>
</g>
<!-- base&#45;chromium -->
<g id="node3" class="node">
<title>base&#45;chromium</title>
<polygon fill="lightblue" stroke="black" points="239.75,-119 43.75,-119 43.75,-83 239.75,-83 239.75,-119"/>
<text xml:space="preserve" text-anchor="middle" x="141.75" y="-98.2" font-family="Times,serif" font-size="14.00">browseruse/base&#45;chromium</text>
<text xml:space="preserve" text-anchor="middle" x="141.75" y="-87.7" font-family="Times,serif" font-size="14.00">(Adds Chromium browser)</text>
</g>
<!-- base&#45;system&#45;&gt;base&#45;chromium -->
<g id="edge2" class="edge">
<title>base&#45;system&#45;&gt;base&#45;chromium</title>
<path fill="none" stroke="black" d="M141.75,-164.64C141.75,-154.68 141.75,-141.93 141.75,-130.54"/>
<polygon fill="black" stroke="black" points="145.25,-130.84 141.75,-120.84 138.25,-130.84 145.25,-130.84"/>
<text xml:space="preserve" text-anchor="middle" x="156.75" y="-133.95" font-family="Times,serif" font-size="14.00">FROM</text>
</g>
<!-- base&#45;python&#45;deps -->
<g id="node4" class="node">
<title>base&#45;python&#45;deps</title>
<polygon fill="lightblue" stroke="black" points="269.75,-36 13.75,-36 13.75,0 269.75,0 269.75,-36"/>
<text xml:space="preserve" text-anchor="middle" x="141.75" y="-15.2" font-family="Times,serif" font-size="14.00">browseruse/base&#45;python&#45;deps</text>
<text xml:space="preserve" text-anchor="middle" x="141.75" y="-4.7" font-family="Times,serif" font-size="14.00">(Adds Python venv, project deps)</text>
</g>
<!-- base&#45;chromium&#45;&gt;base&#45;python&#45;deps -->
<g id="edge3" class="edge">
<title>base&#45;chromium&#45;&gt;base&#45;python&#45;deps</title>
<path fill="none" stroke="black" d="M141.75,-82.82C141.75,-72.69 141.75,-59.6 141.75,-47.92"/>
<polygon fill="black" stroke="black" points="145.25,-47.95 141.75,-37.95 138.25,-47.95 145.25,-47.95"/>
<text xml:space="preserve" text-anchor="middle" x="156.75" y="-50.95" font-family="Times,serif" font-size="14.00">FROM</text>
</g>
</g>
</svg>