<svg width="433pt" height="433pt"
 viewBox="0.00 0.00 433.00 433.00" xmlns="http://www.w3.org/2000/svg" xmlns:xlink="http://www.w3.org/1999/xlink"><style>
  * {
    fill: transparent !important;
    stroke: rgb(255, 255, 255) !important;
    stroke-width: 1 !important;
  }
  polygon:not(.cluster *, .node *, .edge *, text) {
    stroke: transparent !important;
  }
  text {
    font-size: 10px !important;
    font-family: monospace !important;
    fill: rgb(255, 255, 255) !important;
    stroke: transparent !important;
    transform: translateY(-0.5em);
  }
</style>
<g id="graph0" class="graph" transform="scale(1 1) rotate(0) translate(4 428.5)">
<title>G</title>
<polygon fill="white" stroke="none" points="-4,4 -4,-428.5 429.25,-428.5 429.25,4 -4,4"/>
<!-- MCP_Client -->
<g id="node1" class="node">
<title>MCP_Client</title>
<polygon fill="lightblue" stroke="black" points="277,-422 186,-422 186,-386 277,-386 277,-422"/>
<text xml:space="preserve" text-anchor="middle" x="231.5" y="-395.95" font-family="Times,serif" font-size="14.00">MCP Client</text>
</g>
<!-- BrowserUseServer -->
<g id="node2" class="node">
<title>BrowserUseServer</title>
<polygon fill="lightblue" stroke="black" points="299.5,-326 163.5,-326 163.5,-290 299.5,-290 299.5,-326"/>
<text xml:space="preserve" text-anchor="middle" x="231.5" y="-305.2" font-family="Times,serif" font-size="14.00">BrowserUseServer</text>
<text xml:space="preserve" text-anchor="middle" x="231.5" y="-294.7" font-family="Times,serif" font-size="14.00">(MCP Server)</text>
</g>
<!-- MCP_Client&#45;&gt;BrowserUseServer -->
<g id="edge1" class="edge">
<title>MCP_Client&#45;&gt;BrowserUseServer</title>
<path fill="none" stroke="black" d="M231.5,-385.76C231.5,-372.33 231.5,-353.39 231.5,-337.68"/>
<polygon fill="black" stroke="black" points="235,-337.96 231.5,-327.96 228,-337.96 235,-337.96"/>
<text xml:space="preserve" text-anchor="middle" x="276.5" y="-347.95" font-family="Times,serif" font-size="14.00">MCP Requests</text>
</g>
<!-- BrowserSession -->
<g id="node3" class="node">
<title>BrowserSession</title>
<polygon fill="lightblue" stroke="black" points="121,-230 0,-230 0,-194 121,-194 121,-230"/>
<text xml:space="preserve" text-anchor="middle" x="60.5" y="-203.95" font-family="Times,serif" font-size="14.00">BrowserSession</text>
</g>
<!-- BrowserUseServer&#45;&gt;BrowserSession -->
<g id="edge2" class="edge">
<title>BrowserUseServer&#45;&gt;BrowserSession</title>
<path fill="none" stroke="black" d="M186.9,-289.61C170.55,-282.69 152.12,-274.24 136,-265.25 121.1,-256.94 105.46,-246.45 92.31,-237.05"/>
<polygon fill="black" stroke="black" points="94.59,-234.38 84.44,-231.33 90.48,-240.04 94.59,-234.38"/>
<text xml:space="preserve" text-anchor="middle" x="162.25" y="-251.95" font-family="Times,serif" font-size="14.00">Manages</text>
</g>
<!-- Agent_Tools -->
<g id="node4" class="node">
<title>Agent_Tools</title>
<polygon fill="lightblue" stroke="black" points="232.25,-135 118.75,-135 118.75,-99 232.25,-99 232.25,-135"/>
<text xml:space="preserve" text-anchor="middle" x="175.5" y="-114.2" font-family="Times,serif" font-size="14.00">Agent, Tools,</text>
<text xml:space="preserve" text-anchor="middle" x="175.5" y="-103.7" font-family="Times,serif" font-size="14.00">FileSystem</text>
</g>
<!-- BrowserUseServer&#45;&gt;Agent_Tools -->
<g id="edge3" class="edge">
<title>BrowserUseServer&#45;&gt;Agent_Tools</title>
<path fill="none" stroke="black" d="M226.62,-289.61C218.79,-261.87 202.86,-205.92 188.5,-158.75 187.26,-154.67 185.92,-150.38 184.59,-146.17"/>
<polygon fill="black" stroke="black" points="188,-145.33 181.63,-136.86 181.33,-147.45 188,-145.33"/>
<text xml:space="preserve" text-anchor="middle" x="224.16" y="-203.95" font-family="Times,serif" font-size="14.00">Uses</text>
</g>
<!-- LLM_Providers -->
<g id="node5" class="node">
<title>LLM_Providers</title>
<polygon fill="lightblue" stroke="black" points="279,-39 158,-39 158,-3 279,-3 279,-39"/>
<text xml:space="preserve" text-anchor="middle" x="218.5" y="-18.2" font-family="Times,serif" font-size="14.00">ChatOpenAI/</text>
<text xml:space="preserve" text-anchor="middle" x="218.5" y="-7.7" font-family="Times,serif" font-size="14.00">ChatAWSBedrock</text>
</g>
<!-- BrowserUseServer&#45;&gt;LLM_Providers -->
<g id="edge4" class="edge">
<title>BrowserUseServer&#45;&gt;LLM_Providers</title>
<path fill="none" stroke="black" d="M234.89,-289.65C237.77,-274.1 241.7,-250.62 243.5,-230 249.51,-161.03 245.83,-143.48 246.5,-74.25 246.54,-69.58 247.86,-68.21 246.5,-63.75 244.97,-58.73 242.62,-53.76 239.91,-49.11"/>
<polygon fill="black" stroke="black" points="242.84,-47.2 234.43,-40.76 236.99,-51.04 242.84,-47.2"/>
<text xml:space="preserve" text-anchor="middle" x="299.51" y="-155.95" font-family="Times,serif" font-size="14.00">Interacts With</text>
</g>
<!-- Stderr -->
<g id="node6" class="node">
<title>Stderr</title>
<polygon fill="lightblue" stroke="black" points="424.5,-230 288.5,-230 288.5,-194 424.5,-194 424.5,-230"/>
<text xml:space="preserve" text-anchor="middle" x="356.5" y="-209.2" font-family="Times,serif" font-size="14.00">Stderr</text>
<text xml:space="preserve" text-anchor="middle" x="356.5" y="-198.7" font-family="Times,serif" font-size="14.00">(Logging Output)</text>
</g>
<!-- BrowserUseServer&#45;&gt;Stderr -->
<g id="edge5" class="edge">
<title>BrowserUseServer&#45;&gt;Stderr</title>
<path fill="none" stroke="black" d="M254.72,-289.54C274.28,-274.83 302.46,-253.63 324.22,-237.28"/>
<polygon fill="black" stroke="black" points="326.31,-240.08 332.2,-231.28 322.1,-234.49 326.31,-240.08"/>
<text xml:space="preserve" text-anchor="middle" x="361.5" y="-251.95" font-family="Times,serif" font-size="14.00">Redirects Logs To</text>
</g>
<!-- BrowserSession&#45;&gt;Agent_Tools -->
<g id="edge6" class="edge">
<title>BrowserSession&#45;&gt;Agent_Tools</title>
<path fill="none" stroke="black" d="M30.92,-193.67C17.6,-183.65 6.72,-170.7 16,-158.75 27.53,-143.91 69.31,-133.56 107.21,-127.01"/>
<polygon fill="black" stroke="black" points="107.5,-130.51 116.8,-125.42 106.36,-123.6 107.5,-130.51"/>
<text xml:space="preserve" text-anchor="middle" x="102.25" y="-155.95" font-family="Times,serif" font-size="14.00">Provides Browser Access</text>
</g>
<!-- Agent_Tools&#45;&gt;LLM_Providers -->
<g id="edge7" class="edge">
<title>Agent_Tools&#45;&gt;LLM_Providers</title>
<path fill="none" stroke="black" d="M180.7,-98.73C184.03,-88.39 188.72,-75.09 194,-63.75 196.21,-58.99 198.8,-54.07 201.46,-49.35"/>
<polygon fill="black" stroke="black" points="204.44,-51.18 206.48,-40.78 198.4,-47.64 204.44,-51.18"/>
<text xml:space="preserve" text-anchor="middle" x="220.25" y="-60.95" font-family="Times,serif" font-size="14.00">Queries</text>
</g>
</g>
</svg>