<svg width="757pt" height="757pt"
 viewBox="0.00 0.00 757.00 757.00" xmlns="http://www.w3.org/2000/svg" xmlns:xlink="http://www.w3.org/1999/xlink"><style>
  * {
    fill: transparent !important;
    stroke: rgb(255, 255, 255) !important;
    stroke-width: 1 !important;
  }
  polygon:not(.cluster *, .node *, .edge *, text) {
    stroke: transparent !important;
  }
  text {
    font-size: 10px !important;
    font-family: monospace !important;
    fill: rgb(255, 255, 255) !important;
    stroke: transparent !important;
    transform: translateY(-0.5em);
  }
</style>
<g id="graph0" class="graph" transform="scale(1 1) rotate(0) translate(4 753)">
<title>G</title>
<polygon fill="white" stroke="none" points="-4,4 -4,-753 753,-753 753,4 -4,4"/>
<!-- Namespace -->
<g id="node1" class="node">
<title>Namespace</title>
<polygon fill="lightblue" stroke="black" points="367.5,-374 209,-374 209,-338 367.5,-338 367.5,-374"/>
<text xml:space="preserve" text-anchor="middle" x="288.25" y="-347.95" font-family="Times,serif" font-size="14.00">Execution Namespace</text>
</g>
<!-- BrowserSession -->
<g id="node2" class="node">
<title>BrowserSession</title>
<polygon fill="lightblue" stroke="black" points="128.5,-88 0,-88 0,-52 128.5,-52 128.5,-88"/>
<text xml:space="preserve" text-anchor="middle" x="64.25" y="-61.95" font-family="Times,serif" font-size="14.00">Browser Session</text>
</g>
<!-- Namespace&#45;&gt;BrowserSession -->
<g id="edge1" class="edge">
<title>Namespace&#45;&gt;BrowserSession</title>
<path fill="none" stroke="black" d="M274.57,-337.66C236.69,-289.63 130.22,-154.64 84.99,-97.3"/>
<polygon fill="black" stroke="black" points="87.91,-95.34 78.97,-89.66 82.41,-99.68 87.91,-95.34"/>
</g>
<!-- FileSystem -->
<g id="node3" class="node">
<title>FileSystem</title>
<polygon fill="lightblue" stroke="black" points="245.5,-88 147,-88 147,-52 245.5,-52 245.5,-88"/>
<text xml:space="preserve" text-anchor="middle" x="196.25" y="-61.95" font-family="Times,serif" font-size="14.00">File System</text>
</g>
<!-- Namespace&#45;&gt;FileSystem -->
<g id="edge2" class="edge">
<title>Namespace&#45;&gt;FileSystem</title>
<path fill="none" stroke="black" d="M282.63,-337.66C267.24,-290.13 224.24,-157.42 205.35,-99.1"/>
<polygon fill="black" stroke="black" points="208.79,-98.35 202.38,-89.91 202.13,-100.5 208.79,-98.35"/>
</g>
<!-- Tools -->
<g id="node4" class="node">
<title>Tools</title>
<polygon fill="lightblue" stroke="black" points="497,-88 263.5,-88 263.5,-52 497,-52 497,-88"/>
<text xml:space="preserve" text-anchor="middle" x="380.25" y="-61.95" font-family="Times,serif" font-size="14.00">Tools (navigate, click, etc.)</text>
</g>
<!-- Namespace&#45;&gt;Tools -->
<g id="edge3" class="edge">
<title>Namespace&#45;&gt;Tools</title>
<path fill="none" stroke="black" d="M293.87,-337.66C309.26,-290.13 352.26,-157.42 371.15,-99.1"/>
<polygon fill="black" stroke="black" points="374.37,-100.5 374.12,-89.91 367.71,-98.35 374.37,-100.5"/>
</g>
<!-- PythonModules -->
<g id="node5" class="node">
<title>PythonModules</title>
<polygon fill="lightblue" stroke="black" points="749,-88 515.5,-88 515.5,-52 749,-52 749,-88"/>
<text xml:space="preserve" text-anchor="middle" x="632.25" y="-61.95" font-family="Times,serif" font-size="14.00">Python &amp; Data Science Modules</text>
</g>
<!-- Namespace&#45;&gt;PythonModules -->
<g id="edge4" class="edge">
<title>Namespace&#45;&gt;PythonModules</title>
<path fill="none" stroke="black" d="M309.25,-337.66C368.03,-289.14 534.32,-151.85 602.51,-95.55"/>
<polygon fill="black" stroke="black" points="604.44,-98.5 609.92,-89.44 599.98,-93.1 604.44,-98.5"/>
</g>
<!-- LLM -->
<g id="node6" class="node">
<title>LLM</title>
<polygon fill="lightblue" stroke="black" points="315.25,-697 261.25,-697 261.25,-661 315.25,-661 315.25,-697"/>
<text xml:space="preserve" text-anchor="middle" x="288.25" y="-670.95" font-family="Times,serif" font-size="14.00">LLM</text>
</g>
<!-- LLM&#45;&gt;Namespace -->
<g id="edge5" class="edge">
<title>LLM&#45;&gt;Namespace</title>
<path fill="none" stroke="black" d="M288.25,-660.74C288.25,-608.38 288.25,-450.93 288.25,-385.74"/>
<polygon fill="black" stroke="black" points="291.75,-385.86 288.25,-375.86 284.75,-385.86 291.75,-385.86"/>
<text xml:space="preserve" text-anchor="middle" x="340.75" y="-508.95" font-family="Times,serif" font-size="14.00">Interacts with</text>
</g>
</g>
</svg>