<svg width="386pt" height="292pt"
 viewBox="0.00 0.00 386.00 292.00" xmlns="http://www.w3.org/2000/svg" xmlns:xlink="http://www.w3.org/1999/xlink"><style>
  * {
    fill: transparent !important;
    stroke: rgb(255, 255, 255) !important;
    stroke-width: 1 !important;
  }
  polygon:not(.cluster *, .node *, .edge *, text) {
    stroke: transparent !important;
  }
  text {
    font-size: 10px !important;
    font-family: monospace !important;
    fill: rgb(255, 255, 255) !important;
    stroke: transparent !important;
    transform: translateY(-0.5em);
  }
</style>
<g id="graph0" class="graph" transform="scale(1 1) rotate(0) translate(4 287.5)">
<title>G</title>
<polygon fill="white" stroke="none" points="-4,4 -4,-287.5 382.24,-287.5 382.24,4 -4,4"/>
<!-- LLM -->
<g id="node1" class="node">
<title>LLM</title>
<polygon fill="lightblue" stroke="black" points="224.67,-284 58.67,-284 58.67,-248 224.67,-248 224.67,-284"/>
<text xml:space="preserve" text-anchor="middle" x="141.67" y="-257.95" font-family="Helvetica,sans-Serif" font-size="14.00">LLM (Code Generator)</text>
</g>
<!-- CodeAgent -->
<g id="node2" class="node">
<title>CodeAgent</title>
<polygon fill="lightblue" stroke="black" points="183.42,-201 99.92,-201 99.92,-165 183.42,-165 183.42,-201"/>
<text xml:space="preserve" text-anchor="middle" x="141.67" y="-174.95" font-family="Helvetica,sans-Serif" font-size="14.00">CodeAgent</text>
</g>
<!-- LLM&#45;&gt;CodeAgent -->
<g id="edge1" class="edge">
<title>LLM&#45;&gt;CodeAgent</title>
<path fill="none" stroke="black" d="M97.28,-247.55C85.25,-240.03 77.13,-230.29 83.67,-218.75 85.76,-215.06 88.42,-211.72 91.44,-208.7"/>
<polygon fill="black" stroke="black" points="93.53,-211.52 98.98,-202.43 89.05,-206.14 93.53,-211.52"/>
<text xml:space="preserve" text-anchor="middle" x="136.17" y="-215.95" font-family="Times,serif" font-size="14.00">Generates Code</text>
</g>
<!-- CodeAgent&#45;&gt;LLM -->
<g id="edge6" class="edge">
<title>CodeAgent&#45;&gt;LLM</title>
<path fill="none" stroke="black" d="M173.56,-201.17C179.65,-206 185.2,-211.86 188.67,-218.75 192.59,-226.51 190.04,-233.74 184.53,-240.06"/>
<polygon fill="black" stroke="black" points="182.42,-237.25 177.34,-246.55 187.11,-242.45 182.42,-237.25"/>
<text xml:space="preserve" text-anchor="middle" x="269.31" y="-215.95" font-family="Times,serif" font-size="14.00">Feeds Formatted State</text>
</g>
<!-- PythonEnv -->
<g id="node3" class="node">
<title>PythonEnv</title>
<polygon fill="lightblue" stroke="black" points="273.42,-119 9.92,-119 9.92,-83 273.42,-83 273.42,-119"/>
<text xml:space="preserve" text-anchor="middle" x="141.67" y="-92.95" font-family="Helvetica,sans-Serif" font-size="14.00">Python Execution Env. (Namespace)</text>
</g>
<!-- CodeAgent&#45;&gt;PythonEnv -->
<g id="edge2" class="edge">
<title>CodeAgent&#45;&gt;PythonEnv</title>
<path fill="none" stroke="black" d="M104.12,-164.61C97.71,-159.91 91.93,-154.16 88.17,-147.25 83.97,-139.51 86.43,-132.52 92.11,-126.49"/>
<polygon fill="black" stroke="black" points="94.11,-129.38 99.61,-120.33 89.66,-123.97 94.11,-129.38"/>
<text xml:space="preserve" text-anchor="middle" x="136.92" y="-133.95" font-family="Times,serif" font-size="14.00">Executes Code</text>
</g>
<!-- PythonEnv&#45;&gt;CodeAgent -->
<g id="edge5" class="edge">
<title>PythonEnv&#45;&gt;CodeAgent</title>
<path fill="none" stroke="black" d="M174.23,-119.42C183.94,-127.06 190.79,-136.7 185.67,-147.25 183.97,-150.77 181.71,-154.05 179.12,-157.06"/>
<polygon fill="black" stroke="black" points="176.91,-154.33 172.19,-163.82 181.8,-159.34 176.91,-154.33"/>
<text xml:space="preserve" text-anchor="middle" x="243.66" y="-133.95" font-family="Times,serif" font-size="14.00">Formats Results</text>
</g>
<!-- BrowserSession -->
<g id="node4" class="node">
<title>BrowserSession</title>
<polygon fill="lightblue" stroke="black" points="205.92,-36 77.42,-36 77.42,0 205.92,0 205.92,-36"/>
<text xml:space="preserve" text-anchor="middle" x="141.67" y="-9.95" font-family="Helvetica,sans-Serif" font-size="14.00">Browser Session</text>
</g>
<!-- PythonEnv&#45;&gt;BrowserSession -->
<g id="edge3" class="edge">
<title>PythonEnv&#45;&gt;BrowserSession</title>
<path fill="none" stroke="black" d="M73.58,-82.52C59.95,-75.52 52.01,-66.1 60.17,-53.75 62.85,-49.71 66.09,-46.13 69.73,-42.97"/>
<polygon fill="black" stroke="black" points="71.61,-45.94 77.64,-37.22 67.49,-40.28 71.61,-45.94"/>
<text xml:space="preserve" text-anchor="middle" x="138.92" y="-50.95" font-family="Times,serif" font-size="14.00">Browser Control Calls</text>
</g>
<!-- BrowserSession&#45;&gt;PythonEnv -->
<g id="edge4" class="edge">
<title>BrowserSession&#45;&gt;PythonEnv</title>
<path fill="none" stroke="black" d="M199.21,-36.27C206.52,-40.82 213.05,-46.55 217.67,-53.75 223.44,-62.72 220.57,-70.22 213.3,-76.38"/>
<polygon fill="black" stroke="black" points="211.59,-73.31 205.15,-81.72 215.43,-79.17 211.59,-73.31"/>
<text xml:space="preserve" text-anchor="middle" x="299.49" y="-50.95" font-family="Times,serif" font-size="14.00">Returns Browser State</text>
</g>
</g>
</svg>