<svg width="524pt" height="524pt"
 viewBox="0.00 0.00 524.00 524.00" xmlns="http://www.w3.org/2000/svg" xmlns:xlink="http://www.w3.org/1999/xlink"><style>
  * {
    fill: transparent !important;
    stroke: rgb(255, 255, 255) !important;
    stroke-width: 1 !important;
  }
  polygon:not(.cluster *, .node *, .edge *, text) {
    stroke: transparent !important;
  }
  text {
    font-size: 10px !important;
    font-family: monospace !important;
    fill: rgb(255, 255, 255) !important;
    stroke: transparent !important;
    transform: translateY(-0.5em);
  }
</style>
<g id="graph0" class="graph" transform="scale(1 1) rotate(0) translate(4 519.5)">
<title>G</title>
<polygon fill="white" stroke="none" points="-4,4 -4,-519.5 519.5,-519.5 519.5,4 -4,4"/>
<g id="clust1" class="cluster">
<title>cluster_0</title>
<polygon fill="none" stroke="black" points="9.04,-272 9.04,-507.5 307.49,-507.5 307.49,-272 9.04,-272"/>
<text xml:space="preserve" text-anchor="middle" x="158.27" y="-490.2" font-family="Times,serif" font-size="14.00">Main Process</text>
</g>
<g id="clust2" class="cluster">
<title>cluster_1</title>
<polygon fill="none" stroke="black" points="21.48,-8 21.48,-243.5 506.46,-243.5 506.46,-8 21.48,-8"/>
<text xml:space="preserve" text-anchor="middle" x="263.97" y="-226.2" font-family="Times,serif" font-size="14.00">Element Highlighting</text>
</g>
<!-- create_highlighted_screenshot -->
<g id="node1" class="node">
<title>create_highlighted_screenshot</title>
<polygon fill="lightblue" stroke="black" points="278.94,-481 37.94,-481 37.94,-445 278.94,-445 278.94,-481"/>
<text xml:space="preserve" text-anchor="middle" x="158.44" y="-460.2" font-family="Times,serif" font-size="14.00">create_highlighted_screenshot</text>
<text xml:space="preserve" text-anchor="middle" x="158.44" y="-449.7" font-family="Times,serif" font-size="14.00">(screenshot_b64, selector_map)</text>
</g>
<!-- Image Processing -->
<g id="node2" class="node">
<title>Image Processing</title>
<polygon fill="lightblue" stroke="black" points="229.94,-399 48.94,-399 48.94,-363 229.94,-363 229.94,-399"/>
<text xml:space="preserve" text-anchor="middle" x="139.44" y="-378.2" font-family="Times,serif" font-size="14.00">Image Decode/Encode</text>
<text xml:space="preserve" text-anchor="middle" x="139.44" y="-367.7" font-family="Times,serif" font-size="14.00">(Base64 &lt;&#45;&gt; PIL Image)</text>
</g>
<!-- create_highlighted_screenshot&#45;&gt;Image Processing -->
<g id="edge1" class="edge">
<title>create_highlighted_screenshot&#45;&gt;Image Processing</title>
<path fill="none" stroke="black" d="M106.4,-444.69C99.26,-440.12 92.87,-434.4 88.44,-427.25 83.79,-419.75 86.17,-412.78 91.88,-406.67"/>
<polygon fill="black" stroke="black" points="94,-409.47 99.45,-400.38 89.52,-404.08 94,-409.47"/>
<text xml:space="preserve" text-anchor="middle" x="125.94" y="-413.95" font-family="Times,serif" font-size="14.00">1. Decodes</text>
</g>
<!-- Image Processing&#45;&gt;create_highlighted_screenshot -->
<g id="edge8" class="edge">
<title>Image Processing&#45;&gt;create_highlighted_screenshot</title>
<path fill="none" stroke="black" d="M154.4,-399.3C158.08,-404.56 161.51,-410.59 163.44,-416.75 165.11,-422.13 165.47,-428.01 165.11,-433.71"/>
<polygon fill="black" stroke="black" points="161.67,-433.04 163.77,-443.42 168.6,-434 161.67,-433.04"/>
<text xml:space="preserve" text-anchor="middle" x="202.63" y="-413.95" font-family="Times,serif" font-size="14.00">7. Encodes</text>
</g>
<!-- process_element_highlight_loop -->
<g id="node3" class="node">
<title>process_element_highlight_loop</title>
<polygon fill="lightblue" stroke="black" points="282.69,-316 34.19,-316 34.19,-280 282.69,-280 282.69,-316"/>
<text xml:space="preserve" text-anchor="middle" x="158.44" y="-289.95" font-family="Times,serif" font-size="14.00">Loop: process_element_highlight</text>
</g>
<!-- Image Processing&#45;&gt;process_element_highlight_loop -->
<g id="edge2" class="edge">
<title>Image Processing&#45;&gt;process_element_highlight_loop</title>
<path fill="none" stroke="black" d="M73.8,-362.6C59.68,-355.49 51.27,-346 59.94,-333.75 62.76,-329.75 66.09,-326.21 69.78,-323.08"/>
<polygon fill="black" stroke="black" points="71.67,-326.03 77.75,-317.35 67.59,-320.34 71.67,-326.03"/>
<text xml:space="preserve" text-anchor="middle" x="116.19" y="-330.95" font-family="Times,serif" font-size="14.00">2. Passes Image</text>
</g>
<!-- process_element_highlight_loop&#45;&gt;Image Processing -->
<g id="edge7" class="edge">
<title>process_element_highlight_loop&#45;&gt;Image Processing</title>
<path fill="none" stroke="black" d="M169.33,-316.39C173.27,-324.89 175.97,-335.21 172.44,-344.25 171.15,-347.53 169.42,-350.68 167.4,-353.67"/>
<polygon fill="black" stroke="black" points="164.73,-351.42 161.21,-361.41 170.19,-355.79 164.73,-351.42"/>
<text xml:space="preserve" text-anchor="middle" x="219.07" y="-330.95" font-family="Times,serif" font-size="14.00">6. All drawn</text>
</g>
<!-- process_element_highlight -->
<g id="node4" class="node">
<title>process_element_highlight</title>
<polygon fill="lightblue" stroke="black" points="260.19,-217 56.69,-217 56.69,-181 260.19,-181 260.19,-217"/>
<text xml:space="preserve" text-anchor="middle" x="158.44" y="-196.2" font-family="Times,serif" font-size="14.00">process_element_highlight</text>
<text xml:space="preserve" text-anchor="middle" x="158.44" y="-185.7" font-family="Times,serif" font-size="14.00">(element, draw)</text>
</g>
<!-- process_element_highlight_loop&#45;&gt;process_element_highlight -->
<g id="edge3" class="edge">
<title>process_element_highlight_loop&#45;&gt;process_element_highlight</title>
<path fill="none" stroke="black" d="M158.44,-279.66C158.44,-265.45 158.44,-245.06 158.44,-228.46"/>
<polygon fill="black" stroke="black" points="161.94,-228.71 158.44,-218.71 154.94,-228.71 161.94,-228.71"/>
<text xml:space="preserve" text-anchor="middle" x="229.69" y="-248.95" font-family="Times,serif" font-size="14.00">3. For each element</text>
</g>
<!-- Coordinate Scaling -->
<g id="node5" class="node">
<title>Coordinate Scaling</title>
<polygon fill="lightblue" stroke="black" points="223.94,-135 42.94,-135 42.94,-99 223.94,-99 223.94,-135"/>
<text xml:space="preserve" text-anchor="middle" x="133.44" y="-114.2" font-family="Times,serif" font-size="14.00">Coordinate Scaling</text>
<text xml:space="preserve" text-anchor="middle" x="133.44" y="-103.7" font-family="Times,serif" font-size="14.00">(CSS &#45;&gt; Device Pixels)</text>
</g>
<!-- process_element_highlight&#45;&gt;Coordinate Scaling -->
<g id="edge4" class="edge">
<title>process_element_highlight&#45;&gt;Coordinate Scaling</title>
<path fill="none" stroke="black" d="M153.01,-180.64C149.87,-170.58 145.83,-157.66 142.24,-146.18"/>
<polygon fill="black" stroke="black" points="145.62,-145.27 139.3,-136.77 138.94,-147.36 145.62,-145.27"/>
<text xml:space="preserve" text-anchor="middle" x="207.43" y="-149.95" font-family="Times,serif" font-size="14.00">4. Scales Bounds</text>
</g>
<!-- draw_enhanced_bounding_box_with_text -->
<g id="node6" class="node">
<title>draw_enhanced_bounding_box_with_text</title>
<polygon fill="lightblue" stroke="black" points="378.44,-52 92.44,-52 92.44,-16 378.44,-16 378.44,-52"/>
<text xml:space="preserve" text-anchor="middle" x="235.44" y="-31.2" font-family="Times,serif" font-size="14.00">draw_enhanced_bounding_box_with_text</text>
<text xml:space="preserve" text-anchor="middle" x="235.44" y="-20.7" font-family="Times,serif" font-size="14.00">(bbox, text)</text>
</g>
<!-- Coordinate Scaling&#45;&gt;draw_enhanced_bounding_box_with_text -->
<g id="edge5" class="edge">
<title>Coordinate Scaling&#45;&gt;draw_enhanced_bounding_box_with_text</title>
<path fill="none" stroke="black" d="M150.45,-98.52C159.58,-89.51 171.24,-78.59 182.44,-69.75 187.24,-65.96 192.46,-62.17 197.68,-58.57"/>
<polygon fill="black" stroke="black" points="199.39,-61.64 205.75,-53.16 195.5,-55.82 199.39,-61.64"/>
<text xml:space="preserve" text-anchor="middle" x="227.44" y="-66.95" font-family="Times,serif" font-size="14.00">5. Draws Box</text>
</g>
<!-- draw_enhanced_bounding_box_with_text&#45;&gt;process_element_highlight -->
<g id="edge6" class="edge">
<title>draw_enhanced_bounding_box_with_text&#45;&gt;process_element_highlight</title>
<path fill="none" stroke="black" stroke-dasharray="1,5" d="M259.5,-52.15C264.74,-57.17 269.57,-63.12 272.44,-69.75 288.94,-107.89 296.33,-129.97 271.44,-163.25 268.46,-167.23 265.04,-170.76 261.28,-173.9"/>
<polygon fill="black" stroke="black" points="259.31,-171.01 253.2,-179.66 263.37,-176.71 259.31,-171.01"/>
<text xml:space="preserve" text-anchor="middle" x="385.05" y="-108.95" font-family="Times,serif" font-size="14.00">Continues for all elements</text>
</g>
</g>
</svg>