<svg width="417pt" height="292pt"
 viewBox="0.00 0.00 417.00 292.00" xmlns="http://www.w3.org/2000/svg" xmlns:xlink="http://www.w3.org/1999/xlink"><style>
  * {
    fill: transparent !important;
    stroke: rgb(255, 255, 255) !important;
    stroke-width: 1 !important;
  }
  polygon:not(.cluster *, .node *, .edge *, text) {
    stroke: transparent !important;
  }
  text {
    font-size: 10px !important;
    font-family: monospace !important;
    fill: rgb(255, 255, 255) !important;
    stroke: transparent !important;
    transform: translateY(-0.5em);
  }
</style>
<g id="graph0" class="graph" transform="scale(1 1) rotate(0) translate(4 287.5)">
<title>G</title>
<polygon fill="white" stroke="none" points="-4,4 -4,-287.5 413.38,-287.5 413.38,4 -4,4"/>
<!-- LLM -->
<g id="node1" class="node">
<title>LLM</title>
<polygon fill="lightblue" stroke="black" points="244.27,-284 78.27,-284 78.27,-248 244.27,-248 244.27,-284"/>
<text xml:space="preserve" text-anchor="middle" x="161.27" y="-257.95" font-family="Times,serif" font-size="14.00">LLM (Code Generator)</text>
</g>
<!-- CodeAgent -->
<g id="node2" class="node">
<title>CodeAgent</title>
<polygon fill="lightblue" stroke="black" points="259.27,-201 63.27,-201 63.27,-165 259.27,-165 259.27,-201"/>
<text xml:space="preserve" text-anchor="middle" x="161.27" y="-174.95" font-family="Times,serif" font-size="14.00">CodeAgent (Orchestrator)</text>
</g>
<!-- LLM&#45;&gt;CodeAgent -->
<g id="edge1" class="edge">
<title>LLM&#45;&gt;CodeAgent</title>
<path fill="none" stroke="black" d="M129.83,-247.69C119.8,-239.75 112.51,-229.68 117.77,-218.75 119.4,-215.35 121.55,-212.18 124.01,-209.25"/>
<polygon fill="black" stroke="black" points="126.44,-211.77 131.09,-202.25 121.52,-206.8 126.44,-211.77"/>
<text xml:space="preserve" text-anchor="middle" x="166.52" y="-215.95" font-family="Times,serif" font-size="14.00">Requests Code</text>
</g>
<!-- CodeAgent&#45;&gt;LLM -->
<g id="edge5" class="edge">
<title>CodeAgent&#45;&gt;LLM</title>
<path fill="none" stroke="black" d="M199.17,-201.33C205.63,-206.03 211.47,-211.8 215.27,-218.75 219.73,-226.93 216.87,-234.3 210.61,-240.64"/>
<polygon fill="black" stroke="black" points="208.74,-237.65 203.13,-246.64 213.12,-243.11 208.74,-237.65"/>
<text xml:space="preserve" text-anchor="middle" x="281.18" y="-215.95" font-family="Times,serif" font-size="14.00">Provides Feedback</text>
</g>
<!-- PythonNamespace -->
<g id="node3" class="node">
<title>PythonNamespace</title>
<polygon fill="lightblue" stroke="black" points="161.02,-119 17.52,-119 17.52,-83 161.02,-83 161.02,-119"/>
<text xml:space="preserve" text-anchor="middle" x="89.27" y="-98.2" font-family="Times,serif" font-size="14.00">Persistent Python</text>
<text xml:space="preserve" text-anchor="middle" x="89.27" y="-87.7" font-family="Times,serif" font-size="14.00">Namespace</text>
</g>
<!-- CodeAgent&#45;&gt;PythonNamespace -->
<g id="edge2" class="edge">
<title>CodeAgent&#45;&gt;PythonNamespace</title>
<path fill="none" stroke="black" d="M141.19,-164.57C135.37,-159.21 129.14,-153.16 123.77,-147.25 118.41,-141.35 113.01,-134.68 108.12,-128.31"/>
<polygon fill="black" stroke="black" points="111.08,-126.44 102.29,-120.53 105.48,-130.63 111.08,-126.44"/>
<text xml:space="preserve" text-anchor="middle" x="172.52" y="-133.95" font-family="Times,serif" font-size="14.00">Executes Code</text>
</g>
<!-- BrowserSession -->
<g id="node4" class="node">
<title>BrowserSession</title>
<polygon fill="lightblue" stroke="black" points="224.52,-36 96.02,-36 96.02,0 224.52,0 224.52,-36"/>
<text xml:space="preserve" text-anchor="middle" x="160.27" y="-9.95" font-family="Times,serif" font-size="14.00">Browser Session</text>
</g>
<!-- PythonNamespace&#45;&gt;BrowserSession -->
<g id="edge3" class="edge">
<title>PythonNamespace&#45;&gt;BrowserSession</title>
<path fill="none" stroke="black" d="M97.37,-82.73C102.13,-73.58 108.7,-62.45 116.27,-53.75 119.35,-50.2 122.85,-46.74 126.48,-43.48"/>
<polygon fill="black" stroke="black" points="128.52,-46.34 133.93,-37.23 124.02,-40.98 128.52,-46.34"/>
<text xml:space="preserve" text-anchor="middle" x="168.77" y="-50.95" font-family="Times,serif" font-size="14.00">Interacts with</text>
</g>
<!-- BrowserSession&#45;&gt;CodeAgent -->
<g id="edge4" class="edge">
<title>BrowserSession&#45;&gt;CodeAgent</title>
<path fill="none" stroke="black" d="M204.21,-36.31C211.03,-40.94 217.16,-46.69 221.27,-53.75 242.15,-89.68 242.02,-111.25 221.27,-147.25 219.13,-150.96 216.42,-154.31 213.35,-157.33"/>
<polygon fill="black" stroke="black" points="211.2,-154.57 205.67,-163.61 215.63,-159.99 211.2,-154.57"/>
<text xml:space="preserve" text-anchor="middle" x="323.13" y="-98.2" font-family="Times,serif" font-size="14.00">Updates Browser State /</text>
<text xml:space="preserve" text-anchor="middle" x="323.13" y="-87.7" font-family="Times,serif" font-size="14.00">Captures Screenshot</text>
</g>
</g>
</svg>