<svg width="1829pt" height="1829pt"
 viewBox="0.00 0.00 1829.00 1829.00" xmlns="http://www.w3.org/2000/svg" xmlns:xlink="http://www.w3.org/1999/xlink"><style>
  * {
    fill: transparent !important;
    stroke: rgb(255, 255, 255) !important;
    stroke-width: 1 !important;
  }
  polygon:not(.cluster *, .node *, .edge *, text) {
    stroke: transparent !important;
  }
  text {
    font-size: 10px !important;
    font-family: monospace !important;
    fill: rgb(255, 255, 255) !important;
    stroke: transparent !important;
    transform: translateY(-0.5em);
  }
</style>
<g id="graph0" class="graph" transform="scale(1 1) rotate(0) translate(4 1825.35)">
<title>G</title>
<polygon fill="white" stroke="none" points="-4,4 -4,-1825.35 1825.35,-1825.35 1825.35,4 -4,4"/>
<!-- User / External Systems -->
<g id="node1" class="node">
<title>User / External Systems</title>
<polygon fill="lightblue" stroke="black" points="537.2,-1704.65 321.5,-1704.65 321.5,-1665.35 537.2,-1665.35 537.2,-1704.65"/>
<text xml:space="preserve" text-anchor="middle" x="429.35" y="-1676.95" font-family="Helvetica,sans-Serif" font-size="14.00" fill="white">User / External Systems</text>
</g>
<!-- CLI &amp; Session Server -->
<g id="node2" class="node">
<title>CLI &amp; Session Server</title>
<polygon fill="lightblue" stroke="black" points="241.95,-930.65 48.75,-930.65 48.75,-891.35 241.95,-891.35 241.95,-930.65"/>
<text xml:space="preserve" text-anchor="middle" x="145.35" y="-902.95" font-family="Helvetica,sans-Serif" font-size="14.00">CLI &amp; Session Server</text>
</g>
<!-- User / External Systems&#45;&gt;CLI &amp; Session Server -->
<g id="edge1" class="edge">
<title>User / External Systems&#45;&gt;CLI &amp; Session Server</title>
<path fill="none" stroke="#333333" stroke-width="2" d="M321.17,-1685C240.91,-1685 145.35,-1685 145.35,-1685 145.35,-1685 145.35,-941.94 145.35,-941.94"/>
<polygon fill="#333333" stroke="#333333" stroke-width="2" points="148.15,-941.94 145.35,-933.94 142.55,-941.94 148.15,-941.94"/>
</g>
<!-- AI Agent &amp; Code Execution -->
<g id="node3" class="node">
<title>AI Agent &amp; Code Execution</title>
<polygon fill="lightblue" stroke="black" points="544.7,-930.65 314,-930.65 314,-891.35 544.7,-891.35 544.7,-930.65"/>
<text xml:space="preserve" text-anchor="middle" x="429.35" y="-902.95" font-family="Helvetica,sans-Serif" font-size="14.00" fill="white">AI Agent &amp; Code Execution</text>
</g>
<!-- User / External Systems&#45;&gt;AI Agent &amp; Code Execution -->
<g id="edge2" class="edge">
<title>User / External Systems&#45;&gt;AI Agent &amp; Code Execution</title>
<path fill="none" stroke="#333333" stroke-width="2" d="M429.35,-1665.09C429.35,-1665.09 429.35,-942.16 429.35,-942.16"/>
<polygon fill="#333333" stroke="#333333" stroke-width="2" points="432.15,-942.16 429.35,-934.16 426.55,-942.16 432.15,-942.16"/>
</g>
<!-- Model Context Protocol (MCP) -->
<g id="node4" class="node">
<title>Model Context Protocol (MCP)</title>
<polygon fill="lightblue" stroke="black" points="869.95,-930.65 616.75,-930.65 616.75,-891.35 869.95,-891.35 869.95,-930.65"/>
<text xml:space="preserve" text-anchor="middle" x="743.35" y="-902.95" font-family="Helvetica,sans-Serif" font-size="14.00">Model Context Protocol (MCP)</text>
</g>
<!-- User / External Systems&#45;&gt;Model Context Protocol (MCP) -->
<g id="edge3" class="edge">
<title>User / External Systems&#45;&gt;Model Context Protocol (MCP)</title>
<path fill="none" stroke="#333333" stroke-width="2" d="M537.41,-1685C628.24,-1685 743.35,-1685 743.35,-1685 743.35,-1685 743.35,-941.94 743.35,-941.94"/>
<polygon fill="#333333" stroke="#333333" stroke-width="2" points="746.15,-941.94 743.35,-933.94 740.55,-941.94 746.15,-941.94"/>
</g>
<!-- External Services &amp; LLM Providers -->
<g id="node5" class="node">
<title>External Services &amp; LLM Providers</title>
<polygon fill="lightblue" stroke="black" points="290.7,-156.65 0,-156.65 0,-117.35 290.7,-117.35 290.7,-156.65"/>
<text xml:space="preserve" text-anchor="middle" x="145.35" y="-128.95" font-family="Helvetica,sans-Serif" font-size="14.00" fill="white">External Services &amp; LLM Providers</text>
</g>
<!-- Browser Automation &amp; DOM -->
<g id="node6" class="node">
<title>Browser Automation &amp; DOM</title>
<polygon fill="lightblue" stroke="black" points="1164.95,-930.65 941.75,-930.65 941.75,-891.35 1164.95,-891.35 1164.95,-930.65"/>
<text xml:space="preserve" text-anchor="middle" x="1053.35" y="-902.95" font-family="Helvetica,sans-Serif" font-size="14.00">Browser Automation &amp; DOM</text>
</g>
<!-- Unified LLM Interface -->
<g id="node7" class="node">
<title>Unified LLM Interface</title>
<polygon fill="lightblue" stroke="black" points="1437.7,-930.65 1237,-930.65 1237,-891.35 1437.7,-891.35 1437.7,-930.65"/>
<text xml:space="preserve" text-anchor="middle" x="1337.35" y="-902.95" font-family="Helvetica,sans-Serif" font-size="14.00">Unified LLM Interface</text>
</g>
<!-- Virtual File System -->
<g id="node8" class="node">
<title>Virtual File System</title>
<polygon fill="lightblue" stroke="black" points="1695.2,-930.65 1509.5,-930.65 1509.5,-891.35 1695.2,-891.35 1695.2,-930.65"/>
<text xml:space="preserve" text-anchor="middle" x="1602.35" y="-902.95" font-family="Helvetica,sans-Serif" font-size="14.00">Virtual File System</text>
</g>
<!-- &#45; -->
<g id="node9" class="node">
<title>&#45;</title>
<polygon fill="lightblue" stroke="black" points="1821.35,-930.65 1767.35,-930.65 1767.35,-891.35 1821.35,-891.35 1821.35,-930.65"/>
<text xml:space="preserve" text-anchor="middle" x="1794.35" y="-902.95" font-family="Helvetica,sans-Serif" font-size="14.00">&#45;</text>
</g>
</g>
</svg>