<svg width="476pt" height="476pt"
 viewBox="0.00 0.00 476.00 476.00" xmlns="http://www.w3.org/2000/svg" xmlns:xlink="http://www.w3.org/1999/xlink"><style>
  * {
    fill: transparent !important;
    stroke: rgb(255, 255, 255) !important;
    stroke-width: 1 !important;
  }
  polygon:not(.cluster *, .node *, .edge *, text) {
    stroke: transparent !important;
  }
  text {
    font-size: 10px !important;
    font-family: monospace !important;
    fill: rgb(255, 255, 255) !important;
    stroke: transparent !important;
    transform: translateY(-0.5em);
  }
</style>
<g id="graph0" class="graph" transform="scale(1 1) rotate(0) translate(4 471.5)">
<title>G</title>
<polygon fill="white" stroke="none" points="-4,4 -4,-471.5 471.5,-471.5 471.5,4 -4,4"/>
<g id="clust1" class="cluster">
<title>cluster_cdp_domains</title>
<polygon fill="lightblue" stroke="lightblue" points="12.3,-389 12.3,-459.5 455.2,-459.5 455.2,-389 12.3,-389"/>
<text xml:space="preserve" text-anchor="middle" x="233.75" y="-442.2" font-family="Times,serif" font-size="14.00">CDP Domains</text>
</g>
<!-- RawCDPData -->
<g id="node1" class="node">
<title>RawCDPData</title>
<polygon fill="lightblue" stroke="black" points="369.71,-433 98.71,-433 98.71,-397 369.71,-397 369.71,-433"/>
<text xml:space="preserve" text-anchor="middle" x="234.21" y="-412.2" font-family="Times,serif" font-size="14.00">Raw CDP Data</text>
<text xml:space="preserve" text-anchor="middle" x="234.21" y="-401.7" font-family="Times,serif" font-size="14.00">(DOM, Snapshot, AX, Page, Runtime)</text>
</g>
<!-- DomService -->
<g id="node2" class="node">
<title>DomService</title>
<polygon fill="lightblue" stroke="black" points="279.71,-360 188.71,-360 188.71,-324 279.71,-324 279.71,-360"/>
<text xml:space="preserve" text-anchor="middle" x="234.21" y="-333.95" font-family="Times,serif" font-size="14.00">DomService</text>
</g>
<!-- RawCDPData&#45;&gt;DomService -->
<g id="edge1" class="edge">
<title>RawCDPData&#45;&gt;DomService</title>
<path fill="none" stroke="black" d="M234.21,-396.81C234.21,-389.23 234.21,-380.1 234.21,-371.54"/>
<polygon fill="black" stroke="black" points="237.71,-371.54 234.21,-361.54 230.71,-371.54 237.71,-371.54"/>
</g>
<!-- EnhancedSnapshotProcessor -->
<g id="node3" class="node">
<title>EnhancedSnapshotProcessor</title>
<polygon fill="lightblue" stroke="black" points="223.96,-278 80.46,-278 80.46,-242 223.96,-242 223.96,-278"/>
<text xml:space="preserve" text-anchor="middle" x="152.21" y="-257.2" font-family="Times,serif" font-size="14.00">Enhanced Snapshot</text>
<text xml:space="preserve" text-anchor="middle" x="152.21" y="-246.7" font-family="Times,serif" font-size="14.00">Processor</text>
</g>
<!-- DomService&#45;&gt;EnhancedSnapshotProcessor -->
<g id="edge2" class="edge">
<title>DomService&#45;&gt;EnhancedSnapshotProcessor</title>
<path fill="none" stroke="black" d="M216.42,-323.64C205.24,-312.74 190.64,-298.49 178.18,-286.34"/>
<polygon fill="black" stroke="black" points="180.66,-283.86 171.05,-279.38 175.77,-288.87 180.66,-283.86"/>
<text xml:space="preserve" text-anchor="middle" x="261.87" y="-292.95" font-family="Times,serif" font-size="14.00">Augments Snapshot</text>
</g>
<!-- EnhancedDOMTreeNode -->
<g id="node4" class="node">
<title>EnhancedDOMTreeNode</title>
<polygon fill="lightblue" stroke="black" points="352.71,-204.75 141.71,-204.75 141.71,-165.25 352.71,-165.25 352.71,-204.75"/>
<text xml:space="preserve" text-anchor="middle" x="247.21" y="-187.45" font-family="Times,serif" font-size="14.00">EnhancedDOMTreeNode</text>
<text xml:space="preserve" text-anchor="middle" x="247.21" y="-176.95" font-family="Times,serif" font-size="14.00">(Augmented with Layout,</text>
<text xml:space="preserve" text-anchor="middle" x="247.21" y="-166.45" font-family="Times,serif" font-size="14.00">Accessibility, Visibility)</text>
</g>
<!-- DomService&#45;&gt;EnhancedDOMTreeNode -->
<g id="edge3" class="edge">
<title>DomService&#45;&gt;EnhancedDOMTreeNode</title>
<path fill="none" stroke="black" d="M279.88,-335.69C298.35,-331.04 317.94,-322.37 329.21,-306.25 351.81,-273.92 316.36,-236.31 285.26,-211.88"/>
<polygon fill="black" stroke="black" points="287.52,-209.2 277.44,-205.96 283.3,-214.79 287.52,-209.2"/>
<text xml:space="preserve" text-anchor="middle" x="373.22" y="-251.95" font-family="Times,serif" font-size="14.00">Constructs</text>
</g>
<!-- EnhancedSnapshotProcessor&#45;&gt;EnhancedDOMTreeNode -->
<g id="edge4" class="edge">
<title>EnhancedSnapshotProcessor&#45;&gt;EnhancedDOMTreeNode</title>
<path fill="none" stroke="black" d="M174.73,-241.7C186.21,-232.88 200.41,-221.97 213.19,-212.14"/>
<polygon fill="black" stroke="black" points="215.19,-215.02 220.99,-206.15 210.92,-209.47 215.19,-215.02"/>
</g>
<!-- DOMTreeSerializer -->
<g id="node5" class="node">
<title>DOMTreeSerializer</title>
<polygon fill="lightblue" stroke="black" points="318.96,-119 175.46,-119 175.46,-83 318.96,-83 318.96,-119"/>
<text xml:space="preserve" text-anchor="middle" x="247.21" y="-92.95" font-family="Times,serif" font-size="14.00">DOMTreeSerializer</text>
</g>
<!-- EnhancedDOMTreeNode&#45;&gt;DOMTreeSerializer -->
<g id="edge5" class="edge">
<title>EnhancedDOMTreeNode&#45;&gt;DOMTreeSerializer</title>
<path fill="none" stroke="black" d="M247.21,-164.98C247.21,-154.73 247.21,-141.87 247.21,-130.45"/>
<polygon fill="black" stroke="black" points="250.71,-130.75 247.21,-120.75 243.71,-130.75 250.71,-130.75"/>
<text xml:space="preserve" text-anchor="middle" x="284.71" y="-133.95" font-family="Times,serif" font-size="14.00">Serializes</text>
</g>
<!-- SerializedDOMState -->
<g id="node6" class="node">
<title>SerializedDOMState</title>
<polygon fill="lightblue" stroke="black" points="322.71,-36 171.71,-36 171.71,0 322.71,0 322.71,-36"/>
<text xml:space="preserve" text-anchor="middle" x="247.21" y="-15.2" font-family="Times,serif" font-size="14.00">SerializedDOMState</text>
<text xml:space="preserve" text-anchor="middle" x="247.21" y="-4.7" font-family="Times,serif" font-size="14.00">(LLM Consumable)</text>
</g>
<!-- DOMTreeSerializer&#45;&gt;SerializedDOMState -->
<g id="edge6" class="edge">
<title>DOMTreeSerializer&#45;&gt;SerializedDOMState</title>
<path fill="none" stroke="black" d="M247.21,-82.82C247.21,-72.69 247.21,-59.6 247.21,-47.92"/>
<polygon fill="black" stroke="black" points="250.71,-47.95 247.21,-37.95 243.71,-47.95 250.71,-47.95"/>
<text xml:space="preserve" text-anchor="middle" x="280.96" y="-50.95" font-family="Times,serif" font-size="14.00">Generates</text>
</g>
</g>
</svg>