<svg width="450pt" height="209pt"
 viewBox="0.00 0.00 450.00 209.00" xmlns="http://www.w3.org/2000/svg" xmlns:xlink="http://www.w3.org/1999/xlink"><style>
  * {
    fill: transparent !important;
    stroke: rgb(255, 255, 255) !important;
    stroke-width: 1 !important;
  }
  polygon:not(.cluster *, .node *, .edge *, text) {
    stroke: transparent !important;
  }
  text {
    font-size: 10px !important;
    font-family: monospace !important;
    fill: rgb(255, 255, 255) !important;
    stroke: transparent !important;
    transform: translateY(-0.5em);
  }
</style>
<g id="graph0" class="graph" transform="scale(1 1) rotate(0) translate(4 205)">
<title>G</title>
<polygon fill="white" stroke="none" points="-4,4 -4,-205 446.3,-205 446.3,4 -4,4"/>
<!-- browser&#45;use -->
<g id="node1" class="node">
<title>browser&#45;use</title>
<polygon fill="lightblue" stroke="black" points="168.02,-201 32.02,-201 32.02,-165 168.02,-165 168.02,-201"/>
<text xml:space="preserve" text-anchor="middle" x="100.02" y="-180.2" font-family="Times,serif" font-size="14.00">browser&#45;use</text>
<text xml:space="preserve" text-anchor="middle" x="100.02" y="-169.7" font-family="Times,serif" font-size="14.00">(Tools Registry)</text>
</g>
<!-- MCPClient -->
<g id="node2" class="node">
<title>MCPClient</title>
<polygon fill="lightblue" stroke="black" points="141.77,-119 58.27,-119 58.27,-83 141.77,-83 141.77,-119"/>
<text xml:space="preserve" text-anchor="middle" x="100.02" y="-92.95" font-family="Times,serif" font-size="14.00">MCPClient</text>
</g>
<!-- browser&#45;use&#45;&gt;MCPClient -->
<g id="edge1" class="edge">
<title>browser&#45;use&#45;&gt;MCPClient</title>
<path fill="none" stroke="black" d="M82,-164.74C77.74,-159.56 73.78,-153.57 71.52,-147.25 69.24,-140.87 70.58,-134.44 73.66,-128.52"/>
<polygon fill="black" stroke="black" points="76.49,-130.58 79.29,-120.37 70.73,-126.6 76.49,-130.58"/>
<text xml:space="preserve" text-anchor="middle" x="120.27" y="-133.95" font-family="Times,serif" font-size="14.00">1. Initialize</text>
</g>
<!-- MCPClient&#45;&gt;browser&#45;use -->
<g id="edge4" class="edge">
<title>MCPClient&#45;&gt;browser&#45;use</title>
<path fill="none" stroke="black" d="M142.2,-113.09C161.66,-120.5 178.56,-131.76 169.02,-147.25 166.64,-151.12 163.67,-154.58 160.33,-157.66"/>
<polygon fill="black" stroke="black" points="158.32,-154.78 152.53,-163.65 162.59,-160.34 158.32,-154.78"/>
<text xml:space="preserve" text-anchor="middle" x="306.76" y="-133.95" font-family="Times,serif" font-size="14.00">4. Register Actions (Pydantic Model)</text>
</g>
<!-- MCP Server -->
<g id="node3" class="node">
<title>MCP Server</title>
<polygon fill="lightblue" stroke="black" points="145.52,-36 54.52,-36 54.52,0 145.52,0 145.52,-36"/>
<text xml:space="preserve" text-anchor="middle" x="100.02" y="-9.95" font-family="Times,serif" font-size="14.00">MCP Server</text>
</g>
<!-- MCPClient&#45;&gt;MCP Server -->
<g id="edge2" class="edge">
<title>MCPClient&#45;&gt;MCP Server</title>
<path fill="none" stroke="black" d="M60.79,-82.65C49.38,-74.97 41.43,-65.09 47.52,-53.75 49.5,-50.07 52.06,-46.71 54.98,-43.66"/>
<polygon fill="black" stroke="black" points="57.04,-46.51 62.28,-37.3 52.44,-41.23 57.04,-46.51"/>
<text xml:space="preserve" text-anchor="middle" x="141.27" y="-50.95" font-family="Times,serif" font-size="14.00">2. Connect (stdio_client)</text>
</g>
<!-- MCP Server&#45;&gt;MCPClient -->
<g id="edge3" class="edge">
<title>MCP Server&#45;&gt;MCPClient</title>
<path fill="none" stroke="black" d="M145.97,-24.78C180.64,-30.19 224.05,-39.6 235.02,-53.75 259.21,-84.95 200.97,-95.23 153.55,-98.54"/>
<polygon fill="black" stroke="black" points="153.38,-95.05 143.61,-99.14 153.8,-102.03 153.38,-95.05"/>
<text xml:space="preserve" text-anchor="middle" x="341.05" y="-50.95" font-family="Times,serif" font-size="14.00">3. List Tools (JSON Schema)</text>
</g>
</g>
</svg>