<svg width="597pt" height="518pt"
 viewBox="0.00 0.00 597.00 518.00" xmlns="http://www.w3.org/2000/svg" xmlns:xlink="http://www.w3.org/1999/xlink"><style>
  * {
    fill: transparent !important;
    stroke: rgb(255, 255, 255) !important;
    stroke-width: 1 !important;
  }
  polygon:not(.cluster *, .node *, .edge *, text) {
    stroke: transparent !important;
  }
  text {
    font-size: 10px !important;
    font-family: monospace !important;
    fill: rgb(255, 255, 255) !important;
    stroke: transparent !important;
    transform: translateY(-0.5em);
  }
</style>
<g id="graph0" class="graph" transform="scale(1 1) rotate(0) translate(4 513.75)">
<title>G</title>
<polygon fill="white" stroke="none" points="-4,4 -4,-513.75 593.21,-513.75 593.21,4 -4,4"/>
<!-- NotebookSession -->
<g id="node1" class="node">
<title>NotebookSession</title>
<polygon fill="lightblue" stroke="black" points="164.25,-260 35.75,-260 35.75,-224 164.25,-224 164.25,-260"/>
<text xml:space="preserve" text-anchor="middle" x="100" y="-233.95" font-family="Times,serif" font-size="14.00">NotebookSession</text>
</g>
<!-- CodeCell -->
<g id="node2" class="node">
<title>CodeCell</title>
<polygon fill="lightblue" stroke="black" points="76,-61 0,-61 0,-25 76,-25 76,-61"/>
<text xml:space="preserve" text-anchor="middle" x="38" y="-34.95" font-family="Times,serif" font-size="14.00">CodeCell</text>
</g>
<!-- NotebookSession&#45;&gt;CodeCell -->
<g id="edge1" class="edge">
<title>NotebookSession&#45;&gt;CodeCell</title>
<path fill="none" stroke="black" d="M94.5,-223.52C83.77,-189.42 59.95,-113.76 46.93,-72.38"/>
<polygon fill="black" stroke="black" points="50.28,-71.38 43.94,-62.89 43.61,-73.48 50.28,-71.38"/>
<text xml:space="preserve" text-anchor="middle" x="99" y="-134.95" font-family="Times,serif" font-size="14.00">contains</text>
</g>
<!-- CodeAgentHistory -->
<g id="node3" class="node">
<title>CodeAgentHistory</title>
<polygon fill="lightblue" stroke="black" points="230,-61 94,-61 94,-25 230,-25 230,-61"/>
<text xml:space="preserve" text-anchor="middle" x="162" y="-34.95" font-family="Times,serif" font-size="14.00">CodeAgentHistory</text>
</g>
<!-- NotebookSession&#45;&gt;CodeAgentHistory -->
<g id="edge2" class="edge">
<title>NotebookSession&#45;&gt;CodeAgentHistory</title>
<path fill="none" stroke="black" d="M106.57,-223.69C113.51,-205.15 124.59,-174.81 133,-148.25 141.05,-122.83 149.09,-93.55 154.65,-72.51"/>
<polygon fill="black" stroke="black" points="158.02,-73.47 157.16,-62.91 151.24,-71.7 158.02,-73.47"/>
<text xml:space="preserve" text-anchor="middle" x="158.11" y="-134.95" font-family="Times,serif" font-size="14.00">tracks</text>
</g>
<!-- CodeAgent -->
<g id="node4" class="node">
<title>CodeAgent</title>
<polygon fill="lightblue" stroke="black" points="321.75,-484 238.25,-484 238.25,-448 321.75,-448 321.75,-484"/>
<text xml:space="preserve" text-anchor="middle" x="280" y="-457.95" font-family="Times,serif" font-size="14.00">CodeAgent</text>
</g>
<!-- CodeAgent&#45;&gt;NotebookSession -->
<g id="edge3" class="edge">
<title>CodeAgent&#45;&gt;NotebookSession</title>
<path fill="none" stroke="black" d="M265.88,-447.58C234.4,-408.76 158.33,-314.94 121.16,-269.1"/>
<polygon fill="black" stroke="black" points="124.03,-267.08 115.01,-261.51 118.59,-271.49 124.03,-267.08"/>
<text xml:space="preserve" text-anchor="middle" x="221.65" y="-345.95" font-family="Times,serif" font-size="14.00">manages</text>
</g>
<!-- Jupyter Notebook (ipynb) -->
<g id="node5" class="node">
<title>Jupyter Notebook (ipynb)</title>
<polygon fill="lightblue" stroke="black" points="378,-260 182,-260 182,-224 378,-224 378,-260"/>
<text xml:space="preserve" text-anchor="middle" x="280" y="-233.95" font-family="Times,serif" font-size="14.00">Jupyter Notebook (ipynb)</text>
</g>
<!-- CodeAgent&#45;&gt;Jupyter Notebook (ipynb) -->
<g id="edge4" class="edge">
<title>CodeAgent&#45;&gt;Jupyter Notebook (ipynb)</title>
<path fill="none" stroke="black" d="M280,-447.58C280,-409.48 280,-318.45 280,-271.73"/>
<polygon fill="black" stroke="black" points="283.5,-271.85 280,-261.85 276.5,-271.85 283.5,-271.85"/>
<text xml:space="preserve" text-anchor="middle" x="336.25" y="-351.2" font-family="Times,serif" font-size="14.00">exports via</text>
<text xml:space="preserve" text-anchor="middle" x="336.25" y="-340.7" font-family="Times,serif" font-size="14.00">export_to_ipynb</text>
</g>
<!-- Python Script -->
<g id="node6" class="node">
<title>Python Script</title>
<polygon fill="lightblue" stroke="black" points="509.75,-260 396.25,-260 396.25,-224 509.75,-224 509.75,-260"/>
<text xml:space="preserve" text-anchor="middle" x="453" y="-233.95" font-family="Times,serif" font-size="14.00">Python Script</text>
</g>
<!-- CodeAgent&#45;&gt;Python Script -->
<g id="edge5" class="edge">
<title>CodeAgent&#45;&gt;Python Script</title>
<path fill="none" stroke="black" d="M306.13,-447.63C331.94,-429.41 371.19,-398.7 397,-364.5 418.82,-335.59 434.83,-296.82 444.02,-270.93"/>
<polygon fill="black" stroke="black" points="447.22,-272.38 447.16,-261.79 440.6,-270.11 447.22,-272.38"/>
<text xml:space="preserve" text-anchor="middle" x="499.21" y="-351.2" font-family="Times,serif" font-size="14.00">exports via</text>
<text xml:space="preserve" text-anchor="middle" x="499.21" y="-340.7" font-family="Times,serif" font-size="14.00">session_to_python_script</text>
</g>
</g>
</svg>