<svg width="527pt" height="457pt"
 viewBox="0.00 0.00 527.00 457.00" xmlns="http://www.w3.org/2000/svg" xmlns:xlink="http://www.w3.org/1999/xlink"><style>
  * {
    fill: transparent !important;
    stroke: rgb(255, 255, 255) !important;
    stroke-width: 1 !important;
  }
  polygon:not(.cluster *, .node *, .edge *, text) {
    stroke: transparent !important;
  }
  text {
    font-size: 10px !important;
    font-family: monospace !important;
    fill: rgb(255, 255, 255) !important;
    stroke: transparent !important;
    transform: translateY(-0.5em);
  }
</style>
<g id="graph0" class="graph" transform="scale(1 1) rotate(0) translate(4 452.5)">
<title>G</title>
<polygon fill="white" stroke="none" points="-4,4 -4,-452.5 523.47,-452.5 523.47,4 -4,4"/>
<!-- PythonDemoMode -->
<g id="node1" class="node">
<title>PythonDemoMode</title>
<polygon fill="lightblue" stroke="black" points="254.52,-449 126.02,-449 126.02,-413 254.52,-413 254.52,-449"/>
<text xml:space="preserve" text-anchor="middle" x="190.27" y="-422.95" font-family="Times,serif" font-size="14.00">Python DemoMode</text>
</g>
<!-- BrowserSession -->
<g id="node2" class="node">
<title>BrowserSession</title>
<polygon fill="lightblue" stroke="black" points="250.77,-366 129.77,-366 129.77,-330 250.77,-330 250.77,-366"/>
<text xml:space="preserve" text-anchor="middle" x="190.27" y="-339.95" font-family="Times,serif" font-size="14.00">BrowserSession</text>
</g>
<!-- PythonDemoMode&#45;&gt;BrowserSession -->
<g id="edge1" class="edge">
<title>PythonDemoMode&#45;&gt;BrowserSession</title>
<path fill="none" stroke="black" d="M190.27,-412.82C190.27,-402.69 190.27,-389.6 190.27,-377.92"/>
<polygon fill="black" stroke="black" points="193.77,-377.95 190.27,-367.95 186.77,-377.95 193.77,-377.95"/>
<text xml:space="preserve" text-anchor="middle" x="227.77" y="-380.95" font-family="Times,serif" font-size="14.00">send_log()</text>
</g>
<!-- CDPClientRoot -->
<g id="node3" class="node">
<title>CDPClientRoot</title>
<polygon fill="lightblue" stroke="black" points="158.02,-284 14.52,-284 14.52,-248 158.02,-248 158.02,-284"/>
<text xml:space="preserve" text-anchor="middle" x="86.27" y="-257.95" font-family="Times,serif" font-size="14.00">CDP Client (Root)</text>
</g>
<!-- BrowserSession&#45;&gt;CDPClientRoot -->
<g id="edge2" class="edge">
<title>BrowserSession&#45;&gt;CDPClientRoot</title>
<path fill="none" stroke="black" d="M129.63,-339.29C96.91,-333.76 61.22,-324.99 51.27,-312.25 46.31,-305.9 48.01,-299.03 52.65,-292.61"/>
<polygon fill="black" stroke="black" points="55.17,-295.04 59.41,-285.33 50.04,-290.27 55.17,-295.04"/>
<text xml:space="preserve" text-anchor="middle" x="216.27" y="-298.95" font-family="Times,serif" font-size="14.00">ensure_ready() / get_or_create_cdp_session()</text>
</g>
<!-- CDPSession -->
<g id="node5" class="node">
<title>CDPSession</title>
<polygon fill="lightblue" stroke="black" points="431.27,-284 265.27,-284 265.27,-248 431.27,-248 431.27,-284"/>
<text xml:space="preserve" text-anchor="middle" x="348.27" y="-257.95" font-family="Times,serif" font-size="14.00">CDP Session (Target)</text>
</g>
<!-- BrowserSession&#45;&gt;CDPSession -->
<g id="edge4" class="edge">
<title>BrowserSession&#45;&gt;CDPSession</title>
<path fill="none" stroke="black" d="M251.1,-344.19C300.6,-340.48 364.86,-331.92 381.27,-312.25 386.41,-306.09 384.81,-299.2 380.28,-292.69"/>
<polygon fill="black" stroke="black" points="382.93,-290.41 373.66,-285.29 377.71,-295.07 382.93,-290.41"/>
<text xml:space="preserve" text-anchor="middle" x="451.97" y="-298.95" font-family="Times,serif" font-size="14.00">Runtime.evaluate()</text>
</g>
<!-- BrowserPage -->
<g id="node4" class="node">
<title>BrowserPage</title>
<polygon fill="lightblue" stroke="black" points="243.27,-201 137.27,-201 137.27,-165 243.27,-165 243.27,-201"/>
<text xml:space="preserve" text-anchor="middle" x="190.27" y="-174.95" font-family="Times,serif" font-size="14.00">Browser Page</text>
</g>
<!-- CDPClientRoot&#45;&gt;BrowserPage -->
<g id="edge3" class="edge">
<title>CDPClientRoot&#45;&gt;BrowserPage</title>
<path fill="none" stroke="black" d="M108.58,-247.62C123.39,-236.09 143.02,-220.8 159.33,-208.1"/>
<polygon fill="black" stroke="black" points="161.07,-211.18 166.8,-202.28 156.76,-205.66 161.07,-211.18"/>
<text xml:space="preserve" text-anchor="middle" x="200.75" y="-215.95" font-family="Times,serif" font-size="14.00">inject_script()</text>
</g>
<!-- InjectedJSDemoPanel -->
<g id="node6" class="node">
<title>InjectedJSDemoPanel</title>
<polygon fill="lightblue" stroke="black" points="280.77,-119 99.77,-119 99.77,-83 280.77,-83 280.77,-119"/>
<text xml:space="preserve" text-anchor="middle" x="190.27" y="-92.95" font-family="Times,serif" font-size="14.00">Injected JS Demo Panel</text>
</g>
<!-- BrowserPage&#45;&gt;InjectedJSDemoPanel -->
<g id="edge6" class="edge">
<title>BrowserPage&#45;&gt;InjectedJSDemoPanel</title>
<path fill="none" stroke="black" d="M190.27,-164.64C190.27,-154.68 190.27,-141.93 190.27,-130.54"/>
<polygon fill="black" stroke="black" points="193.77,-130.84 190.27,-120.84 186.77,-130.84 193.77,-130.84"/>
<text xml:space="preserve" text-anchor="middle" x="250.27" y="-133.95" font-family="Times,serif" font-size="14.00">handleLogEvent()</text>
</g>
<!-- CDPSession&#45;&gt;BrowserPage -->
<g id="edge5" class="edge">
<title>CDPSession&#45;&gt;BrowserPage</title>
<path fill="none" stroke="black" d="M316.18,-247.61C299.82,-238.83 279.56,-228.08 261.27,-218.75 253.37,-214.71 244.92,-210.5 236.72,-206.45"/>
<polygon fill="black" stroke="black" points="238.39,-203.38 227.87,-202.11 235.3,-209.66 238.39,-203.38"/>
<text xml:space="preserve" text-anchor="middle" x="336.7" y="-215.95" font-family="Times,serif" font-size="14.00">dispatchEvent()</text>
</g>
<!-- BrowserEventBus -->
<g id="node7" class="node">
<title>BrowserEventBus</title>
<polygon fill="lightblue" stroke="black" points="265.77,-36 114.77,-36 114.77,0 265.77,0 265.77,-36"/>
<text xml:space="preserve" text-anchor="middle" x="190.27" y="-9.95" font-family="Times,serif" font-size="14.00">Browser&#39;s EventBus</text>
</g>
<!-- InjectedJSDemoPanel&#45;&gt;BrowserEventBus -->
<g id="edge7" class="edge">
<title>InjectedJSDemoPanel&#45;&gt;BrowserEventBus</title>
<path fill="none" stroke="black" d="M190.27,-82.82C190.27,-72.69 190.27,-59.6 190.27,-47.92"/>
<polygon fill="black" stroke="black" points="193.77,-47.95 190.27,-37.95 186.77,-47.95 193.77,-47.95"/>
<text xml:space="preserve" text-anchor="middle" x="257.77" y="-50.95" font-family="Times,serif" font-size="14.00">registers listener</text>
</g>
</g>
</svg>