<svg width="716pt" height="438pt"
 viewBox="0.00 0.00 716.00 438.00" xmlns="http://www.w3.org/2000/svg" xmlns:xlink="http://www.w3.org/1999/xlink"><style>
  * {
    fill: transparent !important;
    stroke: rgb(255, 255, 255) !important;
    stroke-width: 1 !important;
  }
  polygon:not(.cluster *, .node *, .edge *, text) {
    stroke: transparent !important;
  }
  text {
    font-size: 10px !important;
    font-family: monospace !important;
    fill: rgb(255, 255, 255) !important;
    stroke: transparent !important;
    transform: translateY(-0.5em);
  }
</style>
<g id="graph0" class="graph" transform="scale(1 1) rotate(0) translate(4 433.5)">
<title>G</title>
<polygon fill="white" stroke="none" points="-4,4 -4,-433.5 712,-433.5 712,4 -4,4"/>
<!-- User -->
<g id="node1" class="node">
<title>User</title>
<polygon fill="lightblue" stroke="black" points="436.5,-426 382.5,-426 382.5,-390 436.5,-390 436.5,-426"/>
<text xml:space="preserve" text-anchor="middle" x="409.5" y="-399.95" font-family="Times,serif" font-size="14.00">User</text>
</g>
<!-- BrowserUseAgent -->
<g id="node2" class="node">
<title>BrowserUseAgent</title>
<polygon fill="lightblue" stroke="black" points="312.25,-330 168.75,-330 168.75,-294 312.25,-294 312.25,-330"/>
<text xml:space="preserve" text-anchor="middle" x="240.5" y="-303.95" font-family="Times,serif" font-size="14.00">Browser Use Agent</text>
</g>
<!-- User&#45;&gt;BrowserUseAgent -->
<g id="edge1" class="edge">
<title>User&#45;&gt;BrowserUseAgent</title>
<path fill="none" stroke="black" d="M382.36,-401.33C357.12,-395.21 319.21,-383.75 290.5,-365.25 279.47,-358.14 269.1,-348.12 260.7,-338.75"/>
<polygon fill="black" stroke="black" points="263.44,-336.56 254.28,-331.24 258.12,-341.11 263.44,-336.56"/>
<text xml:space="preserve" text-anchor="middle" x="343" y="-351.95" font-family="Times,serif" font-size="14.00">initiates task</text>
</g>
<!-- GoogleOAuth2 -->
<g id="node5" class="node">
<title>GoogleOAuth2</title>
<polygon fill="lightblue" stroke="black" points="466.25,-39 352.75,-39 352.75,-3 466.25,-3 466.25,-39"/>
<text xml:space="preserve" text-anchor="middle" x="409.5" y="-12.95" font-family="Times,serif" font-size="14.00">Google OAuth2</text>
</g>
<!-- User&#45;&gt;GoogleOAuth2 -->
<g id="edge6" class="edge">
<title>User&#45;&gt;GoogleOAuth2</title>
<path fill="none" stroke="black" d="M409.5,-389.68C409.5,-370.81 409.5,-339.76 409.5,-313 409.5,-313 409.5,-313 409.5,-117 409.5,-94.68 409.5,-69.4 409.5,-50.54"/>
<polygon fill="black" stroke="black" points="413,-50.68 409.5,-40.68 406,-50.68 413,-50.68"/>
<text xml:space="preserve" text-anchor="middle" x="462" y="-206.95" font-family="Times,serif" font-size="14.00">grants consent</text>
</g>
<!-- GmailActions -->
<g id="node3" class="node">
<title>GmailActions</title>
<polygon fill="lightblue" stroke="black" points="270,-233 89,-233 89,-197 270,-197 270,-233"/>
<text xml:space="preserve" text-anchor="middle" x="179.5" y="-206.95" font-family="Times,serif" font-size="14.00">register_gmail_actions</text>
</g>
<!-- BrowserUseAgent&#45;&gt;GmailActions -->
<g id="edge2" class="edge">
<title>BrowserUseAgent&#45;&gt;GmailActions</title>
<path fill="none" stroke="black" d="M205.29,-293.57C195.72,-287.01 186.49,-278.58 181,-268.25 177.27,-261.22 175.92,-252.88 175.76,-244.95"/>
<polygon fill="black" stroke="black" points="179.25,-245.11 176.2,-234.97 172.26,-244.8 179.25,-245.11"/>
<text xml:space="preserve" text-anchor="middle" x="199.75" y="-254.95" font-family="Times,serif" font-size="14.00">calls</text>
</g>
<!-- GmailActions&#45;&gt;BrowserUseAgent -->
<g id="edge9" class="edge">
<title>GmailActions&#45;&gt;BrowserUseAgent</title>
<path fill="none" stroke="black" d="M198.12,-233.1C205.15,-240.23 212.82,-248.91 218.5,-257.75 223.54,-265.59 227.83,-274.77 231.24,-283.29"/>
<polygon fill="black" stroke="black" points="227.91,-284.37 234.69,-292.51 234.47,-281.92 227.91,-284.37"/>
<text xml:space="preserve" text-anchor="middle" x="298.98" y="-254.95" font-family="Times,serif" font-size="14.00">returns ActionResult</text>
</g>
<!-- GmailService -->
<g id="node4" class="node">
<title>GmailService</title>
<polygon fill="lightblue" stroke="black" points="210.5,-136 104.5,-136 104.5,-100 210.5,-100 210.5,-136"/>
<text xml:space="preserve" text-anchor="middle" x="157.5" y="-109.95" font-family="Times,serif" font-size="14.00">GmailService</text>
</g>
<!-- GmailActions&#45;&gt;GmailService -->
<g id="edge3" class="edge">
<title>GmailActions&#45;&gt;GmailService</title>
<path fill="none" stroke="black" d="M175.47,-196.58C172.27,-182.78 167.75,-163.24 164.04,-147.22"/>
<polygon fill="black" stroke="black" points="167.52,-146.74 161.85,-137.79 160.7,-148.32 167.52,-146.74"/>
<text xml:space="preserve" text-anchor="middle" x="229.16" y="-157.95" font-family="Times,serif" font-size="14.00">initializes/uses</text>
</g>
<!-- GmailService&#45;&gt;GoogleOAuth2 -->
<g id="edge4" class="edge">
<title>GmailService&#45;&gt;GoogleOAuth2</title>
<path fill="none" stroke="black" d="M190.79,-99.67C212.44,-88.8 241.47,-74.97 268,-64.75 291.57,-55.67 317.93,-47.26 341.45,-40.34"/>
<polygon fill="black" stroke="black" points="342.31,-43.73 350.94,-37.59 340.36,-37.01 342.31,-43.73"/>
<text xml:space="preserve" text-anchor="middle" x="331.75" y="-61.95" font-family="Times,serif" font-size="14.00">authenticates via</text>
</g>
<!-- GmailAPI -->
<g id="node6" class="node">
<title>GmailAPI</title>
<polygon fill="lightblue" stroke="black" points="120.25,-39 36.75,-39 36.75,-3 120.25,-3 120.25,-39"/>
<text xml:space="preserve" text-anchor="middle" x="78.5" y="-12.95" font-family="Times,serif" font-size="14.00">Gmail API</text>
</g>
<!-- GmailService&#45;&gt;GmailAPI -->
<g id="edge7" class="edge">
<title>GmailService&#45;&gt;GmailAPI</title>
<path fill="none" stroke="black" d="M104.02,-109.44C64.78,-102.67 16.29,-91.32 4,-75.25 -7.17,-60.64 6.98,-48.35 25.84,-39.28"/>
<polygon fill="black" stroke="black" points="27.18,-42.51 34.96,-35.31 24.39,-36.09 27.18,-42.51"/>
<text xml:space="preserve" text-anchor="middle" x="67.75" y="-61.95" font-family="Times,serif" font-size="14.00">sends requests to</text>
</g>
<!-- GoogleOAuth2&#45;&gt;User -->
<g id="edge5" class="edge">
<title>GoogleOAuth2&#45;&gt;User</title>
<path fill="none" stroke="black" d="M466.45,-36.09C505.58,-49.58 550.5,-74.35 550.5,-117 550.5,-313 550.5,-313 550.5,-313 550.5,-362.59 489.38,-387.63 447.62,-398.95"/>
<polygon fill="black" stroke="black" points="446.99,-395.5 438.16,-401.35 448.71,-402.28 446.99,-395.5"/>
<text xml:space="preserve" text-anchor="middle" x="629.25" y="-206.95" font-family="Times,serif" font-size="14.00">requests consent from</text>
</g>
<!-- GmailAPI&#45;&gt;GmailService -->
<g id="edge8" class="edge">
<title>GmailAPI&#45;&gt;GmailService</title>
<path fill="none" stroke="black" d="M104.5,-39.39C113.81,-46.48 123.88,-55.26 131.5,-64.75 137.48,-72.19 142.58,-81.23 146.64,-89.69"/>
<polygon fill="black" stroke="black" points="143.32,-90.84 150.59,-98.54 149.71,-87.98 143.32,-90.84"/>
<text xml:space="preserve" text-anchor="middle" x="183.79" y="-61.95" font-family="Times,serif" font-size="14.00">returns data</text>
</g>
</g>
</svg>