<svg width="492pt" height="374pt"
 viewBox="0.00 0.00 492.00 374.00" xmlns="http://www.w3.org/2000/svg" xmlns:xlink="http://www.w3.org/1999/xlink"><style>
  * {
    fill: transparent !important;
    stroke: rgb(255, 255, 255) !important;
    stroke-width: 1 !important;
  }
  polygon:not(.cluster *, .node *, .edge *, text) {
    stroke: transparent !important;
  }
  text {
    font-size: 10px !important;
    font-family: monospace !important;
    fill: rgb(255, 255, 255) !important;
    stroke: transparent !important;
    transform: translateY(-0.5em);
  }
</style>
<g id="graph0" class="graph" transform="scale(1 1) rotate(0) translate(4 370)">
<title>G</title>
<polygon fill="white" stroke="none" points="-4,4 -4,-370 488.14,-370 488.14,4 -4,4"/>
<!-- LLM -->
<g id="node1" class="node">
<title>LLM</title>
<polygon fill="lightblue" stroke="black" points="340.39,-366 219.39,-366 219.39,-330 340.39,-330 340.39,-366"/>
<text xml:space="preserve" text-anchor="middle" x="279.89" y="-345.2" font-family="Helvetica,sans-Serif" font-size="14.00">LLM</text>
<text xml:space="preserve" text-anchor="middle" x="279.89" y="-334.7" font-family="Helvetica,sans-Serif" font-size="14.00">(User&#39;s Model)</text>
</g>
<!-- CodeAgent -->
<g id="node2" class="node">
<title>CodeAgent</title>
<polygon fill="lightblue" stroke="black" points="340.39,-284 219.39,-284 219.39,-248 340.39,-248 340.39,-284"/>
<text xml:space="preserve" text-anchor="middle" x="279.89" y="-263.2" font-family="Helvetica,sans-Serif" font-size="14.00">CodeAgent</text>
<text xml:space="preserve" text-anchor="middle" x="279.89" y="-252.7" font-family="Helvetica,sans-Serif" font-size="14.00">(Orchestrator)</text>
</g>
<!-- LLM&#45;&gt;CodeAgent -->
<g id="edge1" class="edge">
<title>LLM&#45;&gt;CodeAgent</title>
<path fill="none" stroke="black" d="M221.61,-329.56C214.4,-325.04 207.97,-319.36 203.39,-312.25 197.25,-302.72 200.94,-294.93 209.32,-288.66"/>
<polygon fill="black" stroke="black" points="210.94,-291.77 217.78,-283.67 207.39,-285.74 210.94,-291.77"/>
<text xml:space="preserve" text-anchor="middle" x="282.14" y="-298.95" font-family="Times,serif" font-size="14.00">Generates Python Code</text>
</g>
<!-- CodeAgent&#45;&gt;LLM -->
<g id="edge7" class="edge">
<title>CodeAgent&#45;&gt;LLM</title>
<path fill="none" stroke="black" d="M340.41,-280.72C358.01,-287.79 370.29,-297.99 360.89,-312.25 357.89,-316.8 354.16,-320.76 349.95,-324.2"/>
<polygon fill="black" stroke="black" points="348.22,-321.14 341.99,-329.7 352.2,-326.9 348.22,-321.14"/>
<text xml:space="preserve" text-anchor="middle" x="424.14" y="-298.95" font-family="Times,serif" font-size="14.00">Provides Context</text>
</g>
<!-- PythonNamespace -->
<g id="node3" class="node">
<title>PythonNamespace</title>
<polygon fill="lightblue" stroke="black" points="326.89,-201 40.89,-201 40.89,-165 326.89,-165 326.89,-201"/>
<text xml:space="preserve" text-anchor="middle" x="183.89" y="-180.2" font-family="Helvetica,sans-Serif" font-size="14.00">Persistent Python Namespace</text>
<text xml:space="preserve" text-anchor="middle" x="183.89" y="-169.7" font-family="Helvetica,sans-Serif" font-size="14.00">(Browser Control, Data Science Libs)</text>
</g>
<!-- CodeAgent&#45;&gt;PythonNamespace -->
<g id="edge2" class="edge">
<title>CodeAgent&#45;&gt;PythonNamespace</title>
<path fill="none" stroke="black" d="M259.53,-247.82C246,-236.41 228.03,-221.25 213,-208.57"/>
<polygon fill="black" stroke="black" points="215.61,-206.18 205.71,-202.41 211.09,-211.53 215.61,-206.18"/>
<text xml:space="preserve" text-anchor="middle" x="283.52" y="-215.95" font-family="Times,serif" font-size="14.00">Executes Code</text>
</g>
<!-- RemoteSandbox -->
<g id="node4" class="node">
<title>RemoteSandbox</title>
<polygon fill="lightblue" stroke="black" points="306.64,-119 73.14,-119 73.14,-83 306.64,-83 306.64,-119"/>
<text xml:space="preserve" text-anchor="middle" x="189.89" y="-98.2" font-family="Helvetica,sans-Serif" font-size="14.00">Remote Sandbox</text>
<text xml:space="preserve" text-anchor="middle" x="189.89" y="-87.7" font-family="Helvetica,sans-Serif" font-size="14.00">(Python Interpreter, Browser)</text>
</g>
<!-- PythonNamespace&#45;&gt;RemoteSandbox -->
<g id="edge3" class="edge">
<title>PythonNamespace&#45;&gt;RemoteSandbox</title>
<path fill="none" stroke="black" d="M45.99,-164.53C14.74,-157.57 -6.79,-148.39 2.89,-136.75 11.7,-126.15 34.66,-118.77 61.6,-113.63"/>
<polygon fill="black" stroke="black" points="62.2,-117.08 71.44,-111.9 60.98,-110.18 62.2,-117.08"/>
<text xml:space="preserve" text-anchor="middle" x="85.39" y="-133.95" font-family="Times,serif" font-size="14.00">Interacts with Browser</text>
</g>
<!-- RemoteSandbox&#45;&gt;PythonNamespace -->
<g id="edge4" class="edge">
<title>RemoteSandbox&#45;&gt;PythonNamespace</title>
<path fill="none" stroke="black" d="M188.59,-119.32C187.84,-129.28 186.89,-142.03 186.03,-153.43"/>
<polygon fill="black" stroke="black" points="182.56,-152.9 185.3,-163.13 189.54,-153.42 182.56,-152.9"/>
<text xml:space="preserve" text-anchor="middle" x="258.5" y="-133.95" font-family="Times,serif" font-size="14.00">Sends Browser State</text>
</g>
<!-- SSEStream -->
<g id="node5" class="node">
<title>SSEStream</title>
<polygon fill="lightblue" stroke="black" points="378.14,-36 189.64,-36 189.64,0 378.14,0 378.14,-36"/>
<text xml:space="preserve" text-anchor="middle" x="283.89" y="-15.2" font-family="Helvetica,sans-Serif" font-size="14.00">SSE Stream</text>
<text xml:space="preserve" text-anchor="middle" x="283.89" y="-4.7" font-family="Helvetica,sans-Serif" font-size="14.00">(Logs, Results, Errors)</text>
</g>
<!-- RemoteSandbox&#45;&gt;SSEStream -->
<g id="edge5" class="edge">
<title>RemoteSandbox&#45;&gt;SSEStream</title>
<path fill="none" stroke="black" d="M209.82,-82.82C222.95,-71.52 240.34,-56.53 254.97,-43.92"/>
<polygon fill="black" stroke="black" points="257.22,-46.6 262.51,-37.42 252.65,-41.3 257.22,-46.6"/>
<text xml:space="preserve" text-anchor="middle" x="295.02" y="-50.95" font-family="Times,serif" font-size="14.00">Streams Events</text>
</g>
<!-- SSEStream&#45;&gt;CodeAgent -->
<g id="edge6" class="edge">
<title>SSEStream&#45;&gt;CodeAgent</title>
<path fill="none" stroke="black" d="M334.13,-36.32C341.2,-40.9 347.53,-46.63 351.89,-53.75 354.32,-57.73 352.11,-59.59 351.89,-64.25 348.33,-137.84 374.38,-166.42 335.89,-229.25 333.38,-233.34 330.21,-237.05 326.65,-240.39"/>
<polygon fill="black" stroke="black" points="324.57,-237.57 318.97,-246.57 328.96,-243.03 324.57,-237.57"/>
<text xml:space="preserve" text-anchor="middle" x="416.71" y="-133.95" font-family="Times,serif" font-size="14.00">Receives Updates</text>
</g>
</g>
</svg>