<svg width="676pt" height="539pt"
 viewBox="0.00 0.00 676.00 539.00" xmlns="http://www.w3.org/2000/svg" xmlns:xlink="http://www.w3.org/1999/xlink"><style>
  * {
    fill: transparent !important;
    stroke: rgb(255, 255, 255) !important;
    stroke-width: 1 !important;
  }
  polygon:not(.cluster *, .node *, .edge *, text) {
    stroke: transparent !important;
  }
  text {
    font-size: 10px !important;
    font-family: monospace !important;
    fill: rgb(255, 255, 255) !important;
    stroke: transparent !important;
    transform: translateY(-0.5em);
  }
</style>
<g id="graph0" class="graph" transform="scale(1 1) rotate(0) translate(4 535)">
<title>G</title>
<polygon fill="white" stroke="none" points="-4,4 -4,-535 671.5,-535 671.5,4 -4,4"/>
<!-- Agent.run() -->
<g id="node1" class="node">
<title>Agent.run()</title>
<polygon fill="lightblue" stroke="black" points="535.25,-531 436.75,-531 436.75,-495 535.25,-495 535.25,-531"/>
<text xml:space="preserve" text-anchor="middle" x="486" y="-504.95" font-family="Helvetica,sans-Serif" font-size="14.00">Agent.run()</text>
</g>
<!-- Agent.step() -->
<g id="node2" class="node">
<title>Agent.step()</title>
<polygon fill="lightblue" stroke="black" points="539,-449 433,-449 433,-413 539,-413 539,-449"/>
<text xml:space="preserve" text-anchor="middle" x="486" y="-422.95" font-family="Helvetica,sans-Serif" font-size="14.00">Agent.step()</text>
</g>
<!-- Agent.run()&#45;&gt;Agent.step() -->
<g id="edge1" class="edge">
<title>Agent.run()&#45;&gt;Agent.step()</title>
<path fill="none" stroke="#333333" d="M486,-494.64C486,-484.68 486,-471.93 486,-460.54"/>
<polygon fill="#333333" stroke="#333333" points="489.5,-460.84 486,-450.84 482.5,-460.84 489.5,-460.84"/>
<text xml:space="preserve" text-anchor="middle" x="516" y="-463.95" font-family="Helvetica,sans-Serif" font-size="14.00">iterates</text>
</g>
<!-- Context Preparation -->
<g id="node3" class="node">
<title>Context Preparation</title>
<polygon fill="lightblue" stroke="black" points="413.75,-366 150.25,-366 150.25,-330 413.75,-330 413.75,-366"/>
<text xml:space="preserve" text-anchor="middle" x="282" y="-345.2" font-family="Helvetica,sans-Serif" font-size="14.00">Context Preparation</text>
<text xml:space="preserve" text-anchor="middle" x="282" y="-334.7" font-family="Helvetica,sans-Serif" font-size="14.00">(DOM, Screenshots, URL, Messages)</text>
</g>
<!-- Agent.step()&#45;&gt;Context Preparation -->
<g id="edge2" class="edge">
<title>Agent.step()&#45;&gt;Context Preparation</title>
<path fill="none" stroke="#333333" d="M441.99,-412.52C411.02,-400.23 369.37,-383.69 336.33,-370.57"/>
<polygon fill="#333333" stroke="#333333" points="337.93,-367.44 327.34,-367 335.34,-373.95 337.93,-367.44"/>
<text xml:space="preserve" text-anchor="middle" x="420.12" y="-380.95" font-family="Helvetica,sans-Serif" font-size="14.00">prepares</text>
</g>
<!-- Observability &amp; Feedback -->
<g id="node7" class="node">
<title>Observability &amp; Feedback</title>
<polygon fill="lightblue" stroke="black" points="584,-119 388,-119 388,-83 584,-83 584,-119"/>
<text xml:space="preserve" text-anchor="middle" x="486" y="-98.2" font-family="Helvetica,sans-Serif" font-size="14.00">Observability &amp; Feedback</text>
<text xml:space="preserve" text-anchor="middle" x="486" y="-87.7" font-family="Helvetica,sans-Serif" font-size="14.00">(History, GIF, Judge)</text>
</g>
<!-- Agent.step()&#45;&gt;Observability &amp; Feedback -->
<g id="edge9" class="edge">
<title>Agent.step()&#45;&gt;Observability &amp; Feedback</title>
<path fill="none" stroke="#333333" d="M539.33,-414.37C569,-402.05 600,-381.41 600,-349 600,-349 600,-349 600,-182 600,-155.22 578.67,-136.64 554.46,-124.18"/>
<polygon fill="#333333" stroke="#333333" points="556.24,-121.15 545.7,-120.02 553.23,-127.47 556.24,-121.15"/>
<text xml:space="preserve" text-anchor="middle" x="633.75" y="-257.95" font-family="Helvetica,sans-Serif" font-size="14.00">finalizes</text>
</g>
<!-- AgentState -->
<g id="node4" class="node">
<title>AgentState</title>
<polygon fill="lightblue" stroke="black" points="257.5,-36 166.5,-36 166.5,0 257.5,0 257.5,-36"/>
<text xml:space="preserve" text-anchor="middle" x="212" y="-9.95" font-family="Helvetica,sans-Serif" font-size="14.00">AgentState</text>
</g>
<!-- Context Preparation&#45;&gt;AgentState -->
<g id="edge3" class="edge">
<title>Context Preparation&#45;&gt;AgentState</title>
<path fill="none" stroke="#333333" d="M150.08,-332.91C76.69,-321.27 0,-300.97 0,-267 0,-267 0,-267 0,-100 0,-66.69 92.5,-42.04 155.3,-29.15"/>
<polygon fill="#333333" stroke="#333333" points="155.66,-32.65 164.78,-27.25 154.28,-25.78 155.66,-32.65"/>
<text xml:space="preserve" text-anchor="middle" x="45" y="-174.95" font-family="Helvetica,sans-Serif" font-size="14.00">updates from</text>
</g>
<!-- LLM Interaction -->
<g id="node5" class="node">
<title>LLM Interaction</title>
<polygon fill="lightblue" stroke="black" points="477.25,-284 348.75,-284 348.75,-248 477.25,-248 477.25,-284"/>
<text xml:space="preserve" text-anchor="middle" x="413" y="-263.2" font-family="Helvetica,sans-Serif" font-size="14.00">LLM Interaction</text>
<text xml:space="preserve" text-anchor="middle" x="413" y="-252.7" font-family="Helvetica,sans-Serif" font-size="14.00">(AgentOutput)</text>
</g>
<!-- Context Preparation&#45;&gt;LLM Interaction -->
<g id="edge4" class="edge">
<title>Context Preparation&#45;&gt;LLM Interaction</title>
<path fill="none" stroke="#333333" d="M310.43,-329.64C329.31,-318.11 354.32,-302.83 374.92,-290.26"/>
<polygon fill="#333333" stroke="#333333" points="376.63,-293.31 383.34,-285.11 372.98,-287.34 376.63,-293.31"/>
<text xml:space="preserve" text-anchor="middle" x="374.09" y="-298.95" font-family="Helvetica,sans-Serif" font-size="14.00">feeds</text>
</g>
<!-- AgentState&#45;&gt;Context Preparation -->
<g id="edge10" class="edge">
<title>AgentState&#45;&gt;Context Preparation</title>
<path fill="none" stroke="#333333" d="M200.46,-36.19C190.94,-52.05 179,-76.62 179,-100 179,-267 179,-267 179,-267 179,-292.84 199.47,-311.54 222.15,-324.33"/>
<polygon fill="#333333" stroke="#333333" points="220.48,-327.4 230.97,-328.92 223.72,-321.2 220.48,-327.4"/>
<text xml:space="preserve" text-anchor="middle" x="231.5" y="-174.95" font-family="Helvetica,sans-Serif" font-size="14.00">provides state</text>
</g>
<!-- Action Execution -->
<g id="node6" class="node">
<title>Action Execution</title>
<polygon fill="lightblue" stroke="black" points="519,-201 383,-201 383,-165 519,-165 519,-201"/>
<text xml:space="preserve" text-anchor="middle" x="451" y="-180.2" font-family="Helvetica,sans-Serif" font-size="14.00">Action Execution</text>
<text xml:space="preserve" text-anchor="middle" x="451" y="-169.7" font-family="Helvetica,sans-Serif" font-size="14.00">(multi_act)</text>
</g>
<!-- LLM Interaction&#45;&gt;Action Execution -->
<g id="edge5" class="edge">
<title>LLM Interaction&#45;&gt;Action Execution</title>
<path fill="none" stroke="#333333" d="M421.06,-247.82C425.96,-237.37 432.34,-223.77 437.95,-211.81"/>
<polygon fill="#333333" stroke="#333333" points="441.1,-213.34 442.18,-202.8 434.76,-210.37 441.1,-213.34"/>
<text xml:space="preserve" text-anchor="middle" x="471.78" y="-215.95" font-family="Helvetica,sans-Serif" font-size="14.00">determines</text>
</g>
<!-- Action Execution&#45;&gt;AgentState -->
<g id="edge6" class="edge">
<title>Action Execution&#45;&gt;AgentState</title>
<path fill="none" stroke="#333333" d="M410.33,-164.56C385.29,-153.07 353.01,-136.87 326.5,-119 293.46,-96.73 259.57,-65.95 237.33,-44.44"/>
<polygon fill="#333333" stroke="#333333" points="239.79,-41.96 230.19,-37.47 234.9,-46.96 239.79,-41.96"/>
<text xml:space="preserve" text-anchor="middle" x="352.75" y="-92.95" font-family="Helvetica,sans-Serif" font-size="14.00">updates</text>
</g>
<!-- Action Execution&#45;&gt;Observability &amp; Feedback -->
<g id="edge7" class="edge">
<title>Action Execution&#45;&gt;Observability &amp; Feedback</title>
<path fill="none" stroke="#333333" d="M458.59,-164.64C463.04,-154.47 468.77,-141.39 473.83,-129.82"/>
<polygon fill="#333333" stroke="#333333" points="477.01,-131.28 477.81,-120.71 470.6,-128.47 477.01,-131.28"/>
<text xml:space="preserve" text-anchor="middle" x="519.35" y="-133.95" font-family="Helvetica,sans-Serif" font-size="14.00">sends results</text>
</g>
<!-- Observability &amp; Feedback&#45;&gt;AgentState -->
<g id="edge8" class="edge">
<title>Observability &amp; Feedback&#45;&gt;AgentState</title>
<path fill="none" stroke="#333333" d="M426.88,-82.52C380.08,-68.69 315.13,-49.49 268.91,-35.82"/>
<polygon fill="#333333" stroke="#333333" points="269.92,-32.47 259.34,-32.99 267.93,-39.18 269.92,-32.47"/>
<text xml:space="preserve" text-anchor="middle" x="383.47" y="-50.95" font-family="Helvetica,sans-Serif" font-size="14.00">logs to</text>
</g>
</g>
</svg>