<svg width="555pt" height="530pt"
 viewBox="0.00 0.00 555.00 530.00" xmlns="http://www.w3.org/2000/svg" xmlns:xlink="http://www.w3.org/1999/xlink"><style>
  * {
    fill: transparent !important;
    stroke: rgb(255, 255, 255) !important;
    stroke-width: 1 !important;
  }
  polygon:not(.cluster *, .node *, .edge *, text) {
    stroke: transparent !important;
  }
  text {
    font-size: 10px !important;
    font-family: monospace !important;
    fill: rgb(255, 255, 255) !important;
    stroke: transparent !important;
    transform: translateY(-0.5em);
  }
</style>
<g id="graph0" class="graph" transform="scale(1 1) rotate(0) translate(4 525.75)">
<title>G</title>
<polygon fill="white" stroke="none" points="-4,4 -4,-525.75 551.34,-525.75 551.34,4 -4,4"/>
<!-- User Python Code -->
<g id="node1" class="node">
<title>User Python Code</title>
<polygon fill="lightblue" stroke="black" points="282.71,-507 146.71,-507 146.71,-471 282.71,-471 282.71,-507"/>
<text xml:space="preserve" text-anchor="middle" x="214.71" y="-480.95" font-family="Times,serif" font-size="14.00">User Python Code</text>
</g>
<!-- PythonSession -->
<g id="node2" class="node">
<title>PythonSession</title>
<polygon fill="lightblue" stroke="black" points="357.71,-355 71.71,-355 71.71,-319 357.71,-319 357.71,-355"/>
<text xml:space="preserve" text-anchor="middle" x="214.71" y="-328.95" font-family="Times,serif" font-size="14.00">PythonSession (Persistent Namespace)</text>
</g>
<!-- User Python Code&#45;&gt;PythonSession -->
<g id="edge1" class="edge">
<title>User Python Code&#45;&gt;PythonSession</title>
<path fill="none" stroke="black" d="M214.71,-470.79C214.71,-445.39 214.71,-397.52 214.71,-366.73"/>
<polygon fill="black" stroke="black" points="218.21,-366.98 214.71,-356.98 211.21,-366.98 218.21,-366.98"/>
<text xml:space="preserve" text-anchor="middle" x="259.71" y="-404.95" font-family="Times,serif" font-size="14.00">executes via</text>
</g>
<!-- Event Loop Executor -->
<g id="node3" class="node">
<title>Event Loop Executor</title>
<polygon fill="lightblue" stroke="black" points="167.96,-203 9.46,-203 9.46,-167 167.96,-167 167.96,-203"/>
<text xml:space="preserve" text-anchor="middle" x="88.71" y="-176.95" font-family="Times,serif" font-size="14.00">Event Loop Executor</text>
</g>
<!-- PythonSession&#45;&gt;Event Loop Executor -->
<g id="edge2" class="edge">
<title>PythonSession&#45;&gt;Event Loop Executor</title>
<path fill="none" stroke="black" d="M81.67,-318.57C51.86,-308.17 23.65,-291.83 5.21,-266.25 -10.38,-244.63 12.56,-223.88 38.31,-208.9"/>
<polygon fill="black" stroke="black" points="39.84,-212.06 46.92,-204.18 36.47,-205.92 39.84,-212.06"/>
<text xml:space="preserve" text-anchor="middle" x="98.96" y="-252.95" font-family="Times,serif" font-size="14.00">delegates blocking ops to</text>
</g>
<!-- BrowserWrapper -->
<g id="node4" class="node">
<title>BrowserWrapper</title>
<polygon fill="lightblue" stroke="black" points="519.96,-203 271.46,-203 271.46,-167 519.96,-167 519.96,-203"/>
<text xml:space="preserve" text-anchor="middle" x="395.71" y="-176.95" font-family="Times,serif" font-size="14.00">BrowserWrapper (browser object)</text>
</g>
<!-- PythonSession&#45;&gt;BrowserWrapper -->
<g id="edge4" class="edge">
<title>PythonSession&#45;&gt;BrowserWrapper</title>
<path fill="none" stroke="black" d="M273.12,-318.61C302.16,-307.51 336.03,-290.57 359.71,-266.25 373.73,-251.85 382.85,-231.04 388.4,-214.22"/>
<polygon fill="black" stroke="black" points="391.71,-215.38 391.25,-204.79 385.01,-213.35 391.71,-215.38"/>
<text xml:space="preserve" text-anchor="middle" x="457.34" y="-252.95" font-family="Times,serif" font-size="14.00">accesses browser through</text>
</g>
<!-- Event Loop Executor&#45;&gt;PythonSession -->
<g id="edge3" class="edge">
<title>Event Loop Executor&#45;&gt;PythonSession</title>
<path fill="none" stroke="black" d="M127.49,-203.39C149.64,-215.18 176.2,-232.81 192.71,-255.75 203.57,-270.85 209.07,-291.06 211.85,-307.42"/>
<polygon fill="black" stroke="black" points="208.35,-307.62 213.23,-317.02 215.28,-306.63 208.35,-307.62"/>
<text xml:space="preserve" text-anchor="middle" x="277.32" y="-252.95" font-family="Times,serif" font-size="14.00">injects &#39;browser&#39; via</text>
</g>
<!-- BrowserSession -->
<g id="node5" class="node">
<title>BrowserSession</title>
<polygon fill="lightblue" stroke="black" points="531.21,-51 260.21,-51 260.21,-15 531.21,-15 531.21,-51"/>
<text xml:space="preserve" text-anchor="middle" x="395.71" y="-24.95" font-family="Times,serif" font-size="14.00">BrowserSession (Async Browser Ops)</text>
</g>
<!-- BrowserWrapper&#45;&gt;BrowserSession -->
<g id="edge5" class="edge">
<title>BrowserWrapper&#45;&gt;BrowserSession</title>
<path fill="none" stroke="black" d="M395.71,-166.79C395.71,-141.39 395.71,-93.52 395.71,-62.73"/>
<polygon fill="black" stroke="black" points="399.21,-62.98 395.71,-52.98 392.21,-62.98 399.21,-62.98"/>
<text xml:space="preserve" text-anchor="middle" x="444.46" y="-100.95" font-family="Times,serif" font-size="14.00">translates to</text>
</g>
</g>
</svg>