<svg width="438pt" height="438pt"
 viewBox="0.00 0.00 438.00 438.00" xmlns="http://www.w3.org/2000/svg" xmlns:xlink="http://www.w3.org/1999/xlink"><style>
  * {
    fill: transparent !important;
    stroke: rgb(255, 255, 255) !important;
    stroke-width: 1 !important;
  }
  polygon:not(.cluster *, .node *, .edge *, text) {
    stroke: transparent !important;
  }
  text {
    font-size: 10px !important;
    font-family: monospace !important;
    fill: rgb(255, 255, 255) !important;
    stroke: transparent !important;
    transform: translateY(-0.5em);
  }
</style>
<g id="graph0" class="graph" transform="scale(1 1) rotate(0) translate(4 433.5)">
<title>G</title>
<polygon fill="white" stroke="none" points="-4,4 -4,-433.5 433.5,-433.5 433.5,4 -4,4"/>
<!-- Browser Content Source -->
<g id="node1" class="node">
<title>Browser Content Source</title>
<polygon fill="lightblue" stroke="black" points="324,-430 105.5,-430 105.5,-394 324,-394 324,-430"/>
<text xml:space="preserve" text-anchor="middle" x="214.75" y="-403.95" font-family="Times,serif" font-size="14.00">BrowserSession / DomService</text>
</g>
<!-- HTML Serialization -->
<g id="node2" class="node">
<title>HTML Serialization</title>
<polygon fill="lightblue" stroke="black" points="275.25,-357 154.25,-357 154.25,-321 275.25,-321 275.25,-357"/>
<text xml:space="preserve" text-anchor="middle" x="214.75" y="-330.95" font-family="Times,serif" font-size="14.00">HTMLSerializer</text>
</g>
<!-- Browser Content Source&#45;&gt;HTML Serialization -->
<g id="edge1" class="edge">
<title>Browser Content Source&#45;&gt;HTML Serialization</title>
<path fill="none" stroke="black" d="M214.75,-393.81C214.75,-386.23 214.75,-377.1 214.75,-368.54"/>
<polygon fill="black" stroke="black" points="218.25,-368.54 214.75,-358.54 211.25,-368.54 218.25,-368.54"/>
</g>
<!-- Markdown Conversion &amp; Preprocessing -->
<g id="node3" class="node">
<title>Markdown Conversion &amp; Preprocessing</title>
<polygon fill="lightblue" stroke="black" points="380.25,-284 49.25,-284 49.25,-248 380.25,-248 380.25,-284"/>
<text xml:space="preserve" text-anchor="middle" x="214.75" y="-257.95" font-family="Times,serif" font-size="14.00">markdownify &amp; _preprocess_markdown_content</text>
</g>
<!-- HTML Serialization&#45;&gt;Markdown Conversion &amp; Preprocessing -->
<g id="edge2" class="edge">
<title>HTML Serialization&#45;&gt;Markdown Conversion &amp; Preprocessing</title>
<path fill="none" stroke="black" d="M214.75,-320.81C214.75,-313.23 214.75,-304.1 214.75,-295.54"/>
<polygon fill="black" stroke="black" points="218.25,-295.54 214.75,-285.54 211.25,-295.54 218.25,-295.54"/>
</g>
<!-- Atomic Block Parsing -->
<g id="node4" class="node">
<title>Atomic Block Parsing</title>
<polygon fill="lightblue" stroke="black" points="297.75,-201 131.75,-201 131.75,-165 297.75,-165 297.75,-201"/>
<text xml:space="preserve" text-anchor="middle" x="214.75" y="-174.95" font-family="Times,serif" font-size="14.00">_parse_atomic_blocks</text>
</g>
<!-- Markdown Conversion &amp; Preprocessing&#45;&gt;Atomic Block Parsing -->
<g id="edge3" class="edge">
<title>Markdown Conversion &amp; Preprocessing&#45;&gt;Atomic Block Parsing</title>
<path fill="none" stroke="black" d="M214.75,-247.82C214.75,-237.69 214.75,-224.6 214.75,-212.92"/>
<polygon fill="black" stroke="black" points="218.25,-212.95 214.75,-202.95 211.25,-212.95 218.25,-212.95"/>
<text xml:space="preserve" text-anchor="middle" x="267.25" y="-215.95" font-family="Times,serif" font-size="14.00">Clean Markdown</text>
</g>
<!-- Structured Markdown Chunks -->
<g id="node5" class="node">
<title>Structured Markdown Chunks</title>
<polygon fill="lightblue" stroke="black" points="324,-119 105.5,-119 105.5,-83 324,-83 324,-119"/>
<text xml:space="preserve" text-anchor="middle" x="214.75" y="-92.95" font-family="Times,serif" font-size="14.00">chunk_markdown_by_structure</text>
</g>
<!-- Atomic Block Parsing&#45;&gt;Structured Markdown Chunks -->
<g id="edge4" class="edge">
<title>Atomic Block Parsing&#45;&gt;Structured Markdown Chunks</title>
<path fill="none" stroke="black" d="M214.75,-164.64C214.75,-154.68 214.75,-141.93 214.75,-130.54"/>
<polygon fill="black" stroke="black" points="218.25,-130.84 214.75,-120.84 211.25,-130.84 218.25,-130.84"/>
<text xml:space="preserve" text-anchor="middle" x="263.5" y="-133.95" font-family="Times,serif" font-size="14.00">Atomic Blocks</text>
</g>
<!-- Final Markdown Chunks -->
<g id="node6" class="node">
<title>Final Markdown Chunks</title>
<polygon fill="lightblue" stroke="black" points="294,-36 135.5,-36 135.5,0 294,0 294,-36"/>
<text xml:space="preserve" text-anchor="middle" x="214.75" y="-9.95" font-family="Times,serif" font-size="14.00">List[MarkdownChunk]</text>
</g>
<!-- Structured Markdown Chunks&#45;&gt;Final Markdown Chunks -->
<g id="edge5" class="edge">
<title>Structured Markdown Chunks&#45;&gt;Final Markdown Chunks</title>
<path fill="none" stroke="black" d="M214.75,-82.82C214.75,-72.69 214.75,-59.6 214.75,-47.92"/>
<polygon fill="black" stroke="black" points="218.25,-47.95 214.75,-37.95 211.25,-47.95 218.25,-47.95"/>
<text xml:space="preserve" text-anchor="middle" x="289.75" y="-50.95" font-family="Times,serif" font-size="14.00">Chunked with Overlap</text>
</g>
</g>
</svg>