<svg width="501pt" height="433pt"
 viewBox="0.00 0.00 501.00 433.00" xmlns="http://www.w3.org/2000/svg" xmlns:xlink="http://www.w3.org/1999/xlink"><style>
  * {
    fill: transparent !important;
    stroke: rgb(255, 255, 255) !important;
    stroke-width: 1 !important;
  }
  polygon:not(.cluster *, .node *, .edge *, text) {
    stroke: transparent !important;
  }
  text {
    font-size: 10px !important;
    font-family: monospace !important;
    fill: rgb(255, 255, 255) !important;
    stroke: transparent !important;
    transform: translateY(-0.5em);
  }
</style>
<g id="graph0" class="graph" transform="scale(1 1) rotate(0) translate(4 429)">
<title>G</title>
<polygon fill="white" stroke="none" points="-4,4 -4,-429 496.75,-429 496.75,4 -4,4"/>
<!-- Client -->
<g id="node1" class="node">
<title>Client</title>
<polygon fill="lightblue" stroke="black" points="380.75,-422 139.75,-422 139.75,-386 380.75,-386 380.75,-422"/>
<text xml:space="preserve" text-anchor="middle" x="260.25" y="-395.95" font-family="Times,serif" font-size="14.00">Client Code (User Application)</text>
</g>
<!-- SandboxDecorator -->
<g id="node2" class="node">
<title>SandboxDecorator</title>
<polygon fill="lightblue" stroke="black" points="220,-326 76.5,-326 76.5,-290 220,-290 220,-326"/>
<text xml:space="preserve" text-anchor="middle" x="148.25" y="-299.95" font-family="Times,serif" font-size="14.00">sandbox Decorator</text>
</g>
<!-- Client&#45;&gt;SandboxDecorator -->
<g id="edge1" class="edge">
<title>Client&#45;&gt;SandboxDecorator</title>
<path fill="none" stroke="black" d="M207.27,-385.68C194.29,-379.53 181.27,-371.51 171.25,-361.25 164.7,-354.54 159.85,-345.66 156.34,-337.13"/>
<polygon fill="black" stroke="black" points="159.65,-335.98 152.98,-327.75 153.06,-338.34 159.65,-335.98"/>
<text xml:space="preserve" text-anchor="middle" x="261.25" y="-347.95" font-family="Times,serif" font-size="14.00">Calls decorated function</text>
</g>
<!-- Serialization -->
<g id="node3" class="node">
<title>Serialization</title>
<polygon fill="lightblue" stroke="black" points="278.5,-231 0,-231 0,-195 278.5,-195 278.5,-231"/>
<text xml:space="preserve" text-anchor="middle" x="139.25" y="-204.95" font-family="Times,serif" font-size="14.00">Serialization (cloudpickle, base64)</text>
</g>
<!-- SandboxDecorator&#45;&gt;Serialization -->
<g id="edge2" class="edge">
<title>SandboxDecorator&#45;&gt;Serialization</title>
<path fill="none" stroke="black" d="M144.82,-289.6C143.49,-282.13 142.08,-273.29 141.25,-265.25 140.49,-257.9 140.02,-249.93 139.72,-242.51"/>
<polygon fill="black" stroke="black" points="143.22,-242.52 139.42,-232.63 136.22,-242.74 143.22,-242.52"/>
<text xml:space="preserve" text-anchor="middle" x="246.25" y="-251.95" font-family="Times,serif" font-size="14.00">Captures &amp; Serializes params</text>
</g>
<!-- RemoteSandbox -->
<g id="node4" class="node">
<title>RemoteSandbox</title>
<polygon fill="lightblue" stroke="black" points="238.75,-135 27.75,-135 27.75,-99 238.75,-99 238.75,-135"/>
<text xml:space="preserve" text-anchor="middle" x="133.25" y="-108.95" font-family="Times,serif" font-size="14.00">Remote Sandbox Environment</text>
</g>
<!-- Serialization&#45;&gt;RemoteSandbox -->
<g id="edge3" class="edge">
<title>Serialization&#45;&gt;RemoteSandbox</title>
<path fill="none" stroke="black" d="M138.15,-194.76C137.29,-181.33 136.08,-162.39 135.08,-146.68"/>
<polygon fill="black" stroke="black" points="138.59,-146.72 134.46,-136.96 131.6,-147.16 138.59,-146.72"/>
<text xml:space="preserve" text-anchor="middle" x="181.43" y="-156.95" font-family="Times,serif" font-size="14.00">Transmits to</text>
</g>
<!-- Deserialization -->
<g id="node5" class="node">
<title>Deserialization</title>
<polygon fill="lightblue" stroke="black" points="425,-39 71.5,-39 71.5,-3 425,-3 425,-39"/>
<text xml:space="preserve" text-anchor="middle" x="248.25" y="-12.95" font-family="Times,serif" font-size="14.00">Deserialization (_parse_with_type_annotation)</text>
</g>
<!-- RemoteSandbox&#45;&gt;Deserialization -->
<g id="edge4" class="edge">
<title>RemoteSandbox&#45;&gt;Deserialization</title>
<path fill="none" stroke="black" d="M128.78,-98.96C126.93,-87.94 126.63,-73.82 133.75,-63.75 138.99,-56.34 145.69,-50.24 153.21,-45.22"/>
<polygon fill="black" stroke="black" points="154.95,-48.26 161.82,-40.19 151.42,-42.21 154.95,-48.26"/>
<text xml:space="preserve" text-anchor="middle" x="242.5" y="-60.95" font-family="Times,serif" font-size="14.00">Returns &amp; Deserializes result</text>
</g>
<!-- Deserialization&#45;&gt;Client -->
<g id="edge5" class="edge">
<title>Deserialization&#45;&gt;Client</title>
<path fill="none" stroke="black" d="M316.87,-39.44C329.71,-45.37 341.99,-53.27 351.25,-63.75 367.17,-81.76 365.25,-91.96 365.25,-116 365.25,-309 365.25,-309 365.25,-309 365.25,-333.04 366.76,-342.88 351.25,-361.25 344.89,-368.78 336.89,-375.02 328.29,-380.17"/>
<polygon fill="black" stroke="black" points="326.83,-376.98 319.7,-384.82 330.16,-383.14 326.83,-376.98"/>
<text xml:space="preserve" text-anchor="middle" x="429" y="-204.95" font-family="Times,serif" font-size="14.00">Returns result to</text>
</g>
</g>
</svg>