<svg width="456pt" height="456pt"
 viewBox="0.00 0.00 456.00 456.00" xmlns="http://www.w3.org/2000/svg" xmlns:xlink="http://www.w3.org/1999/xlink"><style>
  * {
    fill: transparent !important;
    stroke: rgb(255, 255, 255) !important;
    stroke-width: 1 !important;
  }
  polygon:not(.cluster *, .node *, .edge *, text) {
    stroke: transparent !important;
  }
  text {
    font-size: 10px !important;
    font-family: monospace !important;
    fill: rgb(255, 255, 255) !important;
    stroke: transparent !important;
    transform: translateY(-0.5em);
  }
</style>
<g id="graph0" class="graph" transform="scale(1 1) rotate(0) translate(4 452)">
<title>G</title>
<polygon fill="white" stroke="none" points="-4,4 -4,-452 452,-452 452,4 -4,4"/>
<g id="clust1" class="cluster">
<title>cluster_0</title>
<polygon fill="none" stroke="black" points="8,-15.35 8,-308.9 258,-308.9 258,-15.35 8,-15.35"/>
<text xml:space="preserve" text-anchor="middle" x="133" y="-291.6" font-family="Times,serif" font-size="14.00">Virtual File System</text>
</g>
<g id="clust2" class="cluster">
<title>cluster_1</title>
<polygon fill="none" stroke="black" points="266,-15.35 266,-308.9 440,-308.9 440,-15.35 266,-15.35"/>
<text xml:space="preserve" text-anchor="middle" x="353" y="-291.6" font-family="Times,serif" font-size="14.00">Gmail Integration</text>
</g>
<!-- FileSystem -->
<g id="node1" class="node">
<title>FileSystem</title>
<polygon fill="lightblue" stroke="black" points="231.25,-241.35 102.75,-241.35 102.75,-205.35 231.25,-205.35 231.25,-241.35"/>
<text xml:space="preserve" text-anchor="middle" x="167" y="-220.55" font-family="Times,serif" font-size="14.00">FileSystem</text>
<text xml:space="preserve" text-anchor="middle" x="167" y="-210.05" font-family="Times,serif" font-size="14.00">(Manages files)</text>
</g>
<!-- BaseFile and Concrete Types -->
<g id="node2" class="node">
<title>BaseFile and Concrete Types</title>
<polygon fill="lightblue" stroke="black" points="249.75,-83.35 16.25,-83.35 16.25,-47.35 249.75,-47.35 249.75,-83.35"/>
<text xml:space="preserve" text-anchor="middle" x="133" y="-62.55" font-family="Times,serif" font-size="14.00">BaseFile</text>
<text xml:space="preserve" text-anchor="middle" x="133" y="-52.05" font-family="Times,serif" font-size="14.00">(e.g., MarkdownFile, TxtFile)</text>
</g>
<!-- FileSystem&#45;&gt;BaseFile and Concrete Types -->
<g id="edge1" class="edge">
<title>FileSystem&#45;&gt;BaseFile and Concrete Types</title>
<path fill="none" stroke="black" d="M163.23,-205.06C157.41,-178.35 146.17,-126.8 139.16,-94.61"/>
<polygon fill="black" stroke="black" points="142.66,-94.22 137.11,-85.2 135.82,-95.71 142.66,-94.22"/>
<text xml:space="preserve" text-anchor="middle" x="177.27" y="-136.3" font-family="Times,serif" font-size="14.00">manages</text>
</g>
<!-- Gmail Actions -->
<g id="node3" class="node">
<title>Gmail Actions</title>
<polygon fill="lightblue" stroke="black" points="432.25,-241.35 273.75,-241.35 273.75,-205.35 432.25,-205.35 432.25,-241.35"/>
<text xml:space="preserve" text-anchor="middle" x="353" y="-220.55" font-family="Times,serif" font-size="14.00">Gmail Actions</text>
<text xml:space="preserve" text-anchor="middle" x="353" y="-210.05" font-family="Times,serif" font-size="14.00">(get_recent_emails)</text>
</g>
<!-- GmailService -->
<g id="node4" class="node">
<title>GmailService</title>
<polygon fill="lightblue" stroke="black" points="424.75,-83.35 281.25,-83.35 281.25,-47.35 424.75,-47.35 424.75,-83.35"/>
<text xml:space="preserve" text-anchor="middle" x="353" y="-62.55" font-family="Times,serif" font-size="14.00">GmailService</text>
<text xml:space="preserve" text-anchor="middle" x="353" y="-52.05" font-family="Times,serif" font-size="14.00">(API interaction)</text>
</g>
<!-- Gmail Actions&#45;&gt;GmailService -->
<g id="edge2" class="edge">
<title>Gmail Actions&#45;&gt;GmailService</title>
<path fill="none" stroke="black" d="M353,-205.06C353,-178.47 353,-127.25 353,-95.04"/>
<polygon fill="black" stroke="black" points="356.5,-95.23 353,-85.23 349.5,-95.23 356.5,-95.23"/>
<text xml:space="preserve" text-anchor="middle" x="368" y="-136.3" font-family="Times,serif" font-size="14.00">uses</text>
</g>
<!-- Agent -->
<g id="node5" class="node">
<title>Agent</title>
<polygon fill="lightblue" stroke="black" points="291,-431.35 237,-431.35 237,-395.35 291,-395.35 291,-431.35"/>
<text xml:space="preserve" text-anchor="middle" x="264" y="-405.3" font-family="Times,serif" font-size="14.00">Agent</text>
</g>
<!-- Agent&#45;&gt;FileSystem -->
<g id="edge3" class="edge">
<title>Agent&#45;&gt;FileSystem</title>
<path fill="none" stroke="black" d="M244.64,-394.96C230.42,-381.22 211.62,-360.86 200,-339.6 184.97,-312.1 176.21,-277.08 171.53,-252.9"/>
<polygon fill="black" stroke="black" points="175,-252.37 169.78,-243.15 168.11,-253.61 175,-252.37"/>
<text xml:space="preserve" text-anchor="middle" x="252.5" y="-326.3" font-family="Times,serif" font-size="14.00">interacts with</text>
</g>
<!-- Agent&#45;&gt;Gmail Actions -->
<g id="edge4" class="edge">
<title>Agent&#45;&gt;Gmail Actions</title>
<path fill="none" stroke="black" d="M276.07,-394.95C285.74,-380.54 299.26,-359.3 309,-339.6 323.28,-310.73 335.97,-276 344,-252.27"/>
<polygon fill="black" stroke="black" points="347.25,-253.6 347.09,-243.01 340.61,-251.39 347.25,-253.6"/>
<text xml:space="preserve" text-anchor="middle" x="328.32" y="-326.3" font-family="Times,serif" font-size="14.00">uses</text>
</g>
</g>
</svg>