<svg width="814pt" height="688pt"
 viewBox="0.00 0.00 814.00 688.00" xmlns="http://www.w3.org/2000/svg" xmlns:xlink="http://www.w3.org/1999/xlink"><style>
  * {
    fill: transparent !important;
    stroke: rgb(255, 255, 255) !important;
    stroke-width: 1 !important;
  }
  polygon:not(.cluster *, .node *, .edge *, text) {
    stroke: transparent !important;
  }
  text {
    font-size: 10px !important;
    font-family: monospace !important;
    fill: rgb(255, 255, 255) !important;
    stroke: transparent !important;
    transform: translateY(-0.5em);
  }
</style>
<g id="graph0" class="graph" transform="scale(1 1) rotate(0) translate(4 684.25)">
<title>G</title>
<polygon fill="white" stroke="none" points="-4,4 -4,-684.25 810,-684.25 810,4 -4,4"/>
<!-- BrowserProfile -->
<g id="node1" class="node">
<title>BrowserProfile</title>
<polygon fill="lightblue" stroke="black" points="654.5,-651 83.5,-651 83.5,-601 654.5,-601 654.5,-651"/>
<text xml:space="preserve" text-anchor="middle" x="369" y="-633.7" font-family="Times,serif" font-size="14.00">{&lt;head&gt;BrowserProfile|&lt;args&gt;CLI Args</text>
<text xml:space="preserve" text-anchor="middle" x="369" y="-623.2" font-family="Times,serif" font-size="14.00">(CHROME_*, _get_enable_default_extensions_default)|&lt;context&gt;Context Params</text>
<text xml:space="preserve" text-anchor="middle" x="369" y="-612.7" font-family="Times,serif" font-size="14.00">(ViewportSize, RecordHar*)|&lt;launch&gt;Launch Params</text>
<text xml:space="preserve" text-anchor="middle" x="369" y="-602.2" font-family="Times,serif" font-size="14.00">(Executable Path, User Data Dir)|&lt;proxy&gt;ProxySettings|&lt;ext&gt;Extensions|...}</text>
</g>
<!-- BrowserSession -->
<g id="node2" class="node">
<title>BrowserSession</title>
<polygon fill="lightblue" stroke="black" points="695.75,-448 42.25,-448 42.25,-412 695.75,-412 695.75,-448"/>
<text xml:space="preserve" text-anchor="middle" x="369" y="-427.2" font-family="Times,serif" font-size="14.00">{&lt;head&gt;BrowserSession|&lt;profile&gt;browser_profile</text>
<text xml:space="preserve" text-anchor="middle" x="369" y="-416.7" font-family="Times,serif" font-size="14.00">(BrowserProfile instance)|&lt;cdp&gt;CDPClient|&lt;sm&gt;SessionManager|&lt;watchdogs&gt;Watchdogs|...}</text>
</g>
<!-- BrowserProfile&#45;&gt;BrowserSession -->
<g id="edge1" class="edge">
<title>BrowserProfile&#45;&gt;BrowserSession</title>
<path fill="none" stroke="black" d="M165.07,-600.78C165.07,-600.78 165.07,-459.93 165.07,-459.93"/>
<polygon fill="black" stroke="black" points="168.57,-459.93 165.07,-449.93 161.57,-459.93 168.57,-459.93"/>
<text xml:space="preserve" text-anchor="middle" x="56.25" y="-511.95" font-family="Times,serif" font-size="14.00">uses for launch</text>
</g>
<!-- BrowserProfile&#45;&gt;BrowserSession -->
<g id="edge2" class="edge">
<title>BrowserProfile&#45;&gt;BrowserSession</title>
<path fill="none" stroke="black" d="M246.64,-600.78C246.64,-600.78 246.64,-459.93 246.64,-459.93"/>
<polygon fill="black" stroke="black" points="250.14,-459.93 246.64,-449.93 243.14,-459.93 250.14,-459.93"/>
<text xml:space="preserve" text-anchor="middle" x="203.5" y="-511.95" font-family="Times,serif" font-size="14.00">configures context</text>
</g>
<!-- BrowserProfile&#45;&gt;BrowserSession -->
<g id="edge3" class="edge">
<title>BrowserProfile&#45;&gt;BrowserSession</title>
<path fill="none" stroke="black" d="M328.21,-600.78C328.21,-600.78 328.21,-459.93 328.21,-459.93"/>
<polygon fill="black" stroke="black" points="331.71,-459.93 328.21,-449.93 324.71,-459.93 331.71,-459.93"/>
<text xml:space="preserve" text-anchor="middle" x="357.75" y="-511.95" font-family="Times,serif" font-size="14.00">configures launch</text>
</g>
<!-- BrowserProfile&#45;&gt;BrowserSession -->
<g id="edge4" class="edge">
<title>BrowserProfile&#45;&gt;BrowserSession</title>
<path fill="none" stroke="black" d="M409.79,-600.78C409.79,-600.78 409.79,-459.93 409.79,-459.93"/>
<polygon fill="black" stroke="black" points="413.29,-459.93 409.79,-449.93 406.29,-459.93 413.29,-459.93"/>
<text xml:space="preserve" text-anchor="middle" x="482.5" y="-511.95" font-family="Times,serif" font-size="14.00">sets proxy</text>
</g>
<!-- BrowserProfile&#45;&gt;BrowserSession -->
<g id="edge5" class="edge">
<title>BrowserProfile&#45;&gt;BrowserSession</title>
<path fill="none" stroke="black" d="M491.36,-600.78C491.36,-600.78 491.36,-459.93 491.36,-459.93"/>
<polygon fill="black" stroke="black" points="494.86,-459.93 491.36,-449.93 487.86,-459.93 494.86,-459.93"/>
<text xml:space="preserve" text-anchor="middle" x="610.5" y="-511.95" font-family="Times,serif" font-size="14.00">enables extensions</text>
</g>
<!-- BrowserSession&#45;&gt;BrowserProfile -->
<g id="edge6" class="edge">
<title>BrowserSession&#45;&gt;BrowserProfile</title>
<path fill="none" stroke="black" d="M572.93,-448.44C572.93,-448.44 572.93,-589.23 572.93,-589.23"/>
<polygon fill="black" stroke="black" points="569.43,-589.23 572.93,-599.23 576.43,-589.23 569.43,-589.23"/>
<text xml:space="preserve" text-anchor="middle" x="753.5" y="-511.95" font-family="Times,serif" font-size="14.00">holds instance</text>
</g>
<!-- CDPClient -->
<g id="node3" class="node">
<title>CDPClient</title>
<polygon fill="lightblue" stroke="black" points="237.75,-253 94.25,-253 94.25,-217 237.75,-217 237.75,-253"/>
<text xml:space="preserve" text-anchor="middle" x="166" y="-232.2" font-family="Times,serif" font-size="14.00">{CDPClient|send()</text>
<text xml:space="preserve" text-anchor="middle" x="166" y="-221.7" font-family="Times,serif" font-size="14.00">register()}</text>
</g>
<!-- BrowserSession&#45;&gt;CDPClient -->
<g id="edge7" class="edge">
<title>BrowserSession&#45;&gt;CDPClient</title>
<path fill="none" stroke="black" d="M166,-411.65C166,-411.65 166,-264.95 166,-264.95"/>
<polygon fill="black" stroke="black" points="169.5,-264.95 166,-254.95 162.5,-264.95 169.5,-264.95"/>
<text xml:space="preserve" text-anchor="middle" x="237.25" y="-331.95" font-family="Times,serif" font-size="14.00">manages</text>
</g>
<!-- SessionManager -->
<g id="node4" class="node">
<title>SessionManager</title>
<polygon fill="lightblue" stroke="black" points="316.5,-57 15.5,-57 15.5,-21 316.5,-21 316.5,-57"/>
<text xml:space="preserve" text-anchor="middle" x="166" y="-36.2" font-family="Times,serif" font-size="14.00">{SessionManager|get_all_page_targets()</text>
<text xml:space="preserve" text-anchor="middle" x="166" y="-25.7" font-family="Times,serif" font-size="14.00">get_or_create_cdp_session()}</text>
</g>
<!-- BrowserSession&#45;&gt;SessionManager -->
<g id="edge8" class="edge">
<title>BrowserSession&#45;&gt;SessionManager</title>
<path fill="none" stroke="black" d="M68.25,-411.67C68.25,-411.67 68.25,-68.81 68.25,-68.81"/>
<polygon fill="black" stroke="black" points="71.75,-68.81 68.25,-58.81 64.75,-68.81 71.75,-68.81"/>
<text xml:space="preserve" text-anchor="middle" x="369" y="-226.95" font-family="Times,serif" font-size="14.00">orchestrates</text>
</g>
<!-- Watchdogs -->
<g id="node5" class="node">
<title>Watchdogs</title>
<polygon fill="lightblue" stroke="black" points="680.25,-260 431.75,-260 431.75,-210 680.25,-210 680.25,-260"/>
<text xml:space="preserve" text-anchor="middle" x="556" y="-242.7" font-family="Times,serif" font-size="14.00">{Watchdogs|LocalBrowserWatchdog</text>
<text xml:space="preserve" text-anchor="middle" x="556" y="-232.2" font-family="Times,serif" font-size="14.00">DownloadsWatchdog</text>
<text xml:space="preserve" text-anchor="middle" x="556" y="-221.7" font-family="Times,serif" font-size="14.00">SecurityWatchdog</text>
<text xml:space="preserve" text-anchor="middle" x="556" y="-211.2" font-family="Times,serif" font-size="14.00">DOMWatchdog|...}</text>
</g>
<!-- BrowserSession&#45;&gt;Watchdogs -->
<g id="edge9" class="edge">
<title>BrowserSession&#45;&gt;Watchdogs</title>
<path fill="none" stroke="black" d="M514.58,-411.65C514.58,-411.65 514.58,-271.97 514.58,-271.97"/>
<polygon fill="black" stroke="black" points="518.08,-271.97 514.58,-261.97 511.08,-271.97 518.08,-271.97"/>
<text xml:space="preserve" text-anchor="middle" x="445" y="-331.95" font-family="Times,serif" font-size="14.00">attaches</text>
</g>
<!-- CDPClient&#45;&gt;SessionManager -->
<g id="edge10" class="edge">
<title>CDPClient&#45;&gt;SessionManager</title>
<path fill="none" stroke="black" d="M142.08,-216.56C142.08,-216.56 142.08,-68.76 142.08,-68.76"/>
<polygon fill="black" stroke="black" points="145.58,-68.76 142.08,-58.76 138.58,-68.76 145.58,-68.76"/>
<text xml:space="preserve" text-anchor="middle" x="86.25" y="-120.95" font-family="Times,serif" font-size="14.00">sends events to</text>
</g>
<!-- SessionManager&#45;&gt;CDPClient -->
<g id="edge11" class="edge">
<title>SessionManager&#45;&gt;CDPClient</title>
<path fill="none" stroke="black" d="M189.92,-57.44C189.92,-57.44 189.92,-205.24 189.92,-205.24"/>
<polygon fill="black" stroke="black" points="186.42,-205.24 189.92,-215.24 193.42,-205.24 186.42,-205.24"/>
<text xml:space="preserve" text-anchor="middle" x="237.25" y="-120.95" font-family="Times,serif" font-size="14.00">manages targets via</text>
</g>
<!-- Watchdogs&#45;&gt;BrowserSession -->
<g id="edge12" class="edge">
<title>Watchdogs&#45;&gt;BrowserSession</title>
<path fill="none" stroke="black" d="M597.42,-260.49C597.42,-260.49 597.42,-400.25 597.42,-400.25"/>
<polygon fill="black" stroke="black" points="593.92,-400.25 597.42,-410.25 600.92,-400.25 593.92,-400.25"/>
<text xml:space="preserve" text-anchor="middle" x="575.75" y="-331.95" font-family="Times,serif" font-size="14.00">interact with</text>
</g>
</g>
</svg>