<svg width="983pt" height="983pt"
 viewBox="0.00 0.00 983.00 983.00" xmlns="http://www.w3.org/2000/svg" xmlns:xlink="http://www.w3.org/1999/xlink"><style>
  * {
    fill: transparent !important;
    stroke: rgb(255, 255, 255) !important;
    stroke-width: 1 !important;
  }
  polygon:not(.cluster *, .node *, .edge *, text) {
    stroke: transparent !important;
  }
  text {
    font-size: 10px !important;
    font-family: monospace !important;
    fill: rgb(255, 255, 255) !important;
    stroke: transparent !important;
    transform: translateY(-0.5em);
  }
</style>
<g id="graph0" class="graph" transform="scale(1 1) rotate(0) translate(4 978.5)">
<title>G</title>
<polygon fill="white" stroke="none" points="-4,4 -4,-978.5 978.5,-978.5 978.5,4 -4,4"/>
<!-- FileSystem -->
<g id="node1" class="node">
<title>FileSystem</title>
<polygon fill="lightblue" stroke="black" points="106,-844 15,-844 15,-808 106,-808 106,-844"/>
<text xml:space="preserve" text-anchor="middle" x="60.5" y="-817.95" font-family="Times,serif" font-size="14.00">FileSystem</text>
</g>
<!-- BaseFile -->
<g id="node2" class="node">
<title>BaseFile</title>
<polygon fill="lightblue" stroke="black" points="121,-166 0,-166 0,-130 121,-130 121,-166"/>
<text xml:space="preserve" text-anchor="middle" x="60.5" y="-139.95" font-family="Times,serif" font-size="14.00">BaseFile (ABC)</text>
</g>
<!-- FileSystem&#45;&gt;BaseFile -->
<g id="edge1" class="edge">
<title>FileSystem&#45;&gt;BaseFile</title>
<path fill="none" stroke="black" d="M60.5,-807.61C60.5,-716.29 60.5,-292 60.5,-177.52"/>
<polygon fill="black" stroke="black" points="64,-177.79 60.5,-167.79 57,-177.79 64,-177.79"/>
<text xml:space="preserve" text-anchor="middle" x="86.75" y="-478.95" font-family="Times,serif" font-size="14.00">manages</text>
</g>
<!-- |&#45;&#45; SpecializedFiles [label=&quot;inherits&quot;];
 &#160;&#160;&#160;BaseFile &#45; -->
<g id="node3" class="node">
<title>|&#45;&#45; SpecializedFiles [label=&quot;inherits&quot;];
 &#160;&#160;&#160;BaseFile &#45;</title>
<polygon fill="lightblue" stroke="black" points="440.5,-844 124.5,-844 124.5,-808 440.5,-808 440.5,-844"/>
<text xml:space="preserve" text-anchor="middle" x="282.5" y="-823.2" font-family="Times,serif" font-size="14.00">|&#45;&#45; SpecializedFiles [label=&quot;inherits&quot;];</text>
<text xml:space="preserve" text-anchor="middle" x="282.5" y="-812.7" font-family="Times,serif" font-size="14.00"> &#160;&#160;&#160;BaseFile &#45;</text>
</g>
<!-- DiskStorage -->
<g id="node4" class="node">
<title>DiskStorage</title>
<polygon fill="lightblue" stroke="black" points="580,-844 459,-844 459,-808 580,-808 580,-844"/>
<text xml:space="preserve" text-anchor="middle" x="519.5" y="-817.95" font-family="Times,serif" font-size="14.00">persists async</text>
</g>
<!-- SpecializedFiles -->
<g id="node5" class="node">
<title>SpecializedFiles</title>
<polygon fill="lightblue" stroke="black" points="974.5,-844 598.5,-844 598.5,-808 974.5,-808 974.5,-844"/>
<text xml:space="preserve" text-anchor="middle" x="786.5" y="-823.2" font-family="Times,serif" font-size="14.00">Specialized Files</text>
<text xml:space="preserve" text-anchor="middle" x="786.5" y="-812.7" font-family="Times,serif" font-size="14.00">(e.g., PdfFile, DocxFile, MarkdownFile, TxtFile)</text>
</g>
</g>
</svg>