<svg width="944pt" height="944pt"
 viewBox="0.00 0.00 944.00 944.00" xmlns="http://www.w3.org/2000/svg" xmlns:xlink="http://www.w3.org/1999/xlink"><style>
  * {
    fill: transparent !important;
    stroke: rgb(255, 255, 255) !important;
    stroke-width: 1 !important;
  }
  polygon:not(.cluster *, .node *, .edge *, text) {
    stroke: transparent !important;
  }
  text {
    font-size: 10px !important;
    font-family: monospace !important;
    fill: rgb(255, 255, 255) !important;
    stroke: transparent !important;
    transform: translateY(-0.5em);
  }
</style>
<g id="graph0" class="graph" transform="scale(1 1) rotate(0) translate(4 939.5)">
<title>G</title>
<polygon fill="white" stroke="none" points="-4,4 -4,-939.5 939.5,-939.5 939.5,4 -4,4"/>
<!-- AgentHistory -->
<g id="node1" class="node">
<title>AgentHistory</title>
<polygon fill="lightblue" stroke="black" points="173.5,-894 0,-894 0,-858 173.5,-858 173.5,-894"/>
<text xml:space="preserve" text-anchor="middle" x="86.75" y="-867.95" font-family="Times,serif" font-size="14.00">Agent History (items)</text>
</g>
<!-- MessageManager -->
<g id="node2" class="node">
<title>MessageManager</title>
<polygon fill="lightblue" stroke="black" points="500.25,-622 379.25,-622 379.25,-586 500.25,-586 500.25,-622"/>
<text xml:space="preserve" text-anchor="middle" x="439.75" y="-595.95" font-family="Times,serif" font-size="14.00">MessageManager</text>
</g>
<!-- AgentHistory&#45;&gt;MessageManager -->
<g id="edge1" class="edge">
<title>AgentHistory&#45;&gt;MessageManager</title>
<path fill="none" stroke="black" d="M109.37,-857.7C170.39,-811.03 338.48,-682.46 408.5,-628.9"/>
<polygon fill="black" stroke="black" points="410.3,-631.93 416.12,-623.08 406.05,-626.37 410.3,-631.93"/>
<text xml:space="preserve" text-anchor="middle" x="289.5" y="-731.95" font-family="Times,serif" font-size="14.00">updates</text>
</g>
<!-- MessageManager&#45;&gt;MessageManager -->
<g id="edge5" class="edge">
<title>MessageManager&#45;&gt;MessageManager</title>
<path fill="none" stroke="black" stroke-dasharray="5,2" d="M461.45,-622.3C487.57,-636.13 518.25,-630.03 518.25,-604 518.25,-581.43 495.18,-573.84 472.02,-581.24"/>
<polygon fill="black" stroke="black" points="470.7,-578 462.84,-585.11 473.42,-584.45 470.7,-578"/>
<text xml:space="preserve" text-anchor="middle" x="578.25" y="-595.95" font-family="Times,serif" font-size="14.00">compacts/filters</text>
</g>
<!-- PromptBuilders -->
<g id="node6" class="node">
<title>PromptBuilders</title>
<polygon fill="lightblue" stroke="black" points="571.5,-350 308,-350 308,-314 571.5,-314 571.5,-350"/>
<text xml:space="preserve" text-anchor="middle" x="439.75" y="-323.95" font-family="Times,serif" font-size="14.00">SystemPrompt / AgentMessagePrompt</text>
</g>
<!-- MessageManager&#45;&gt;PromptBuilders -->
<g id="edge6" class="edge">
<title>MessageManager&#45;&gt;PromptBuilders</title>
<path fill="none" stroke="black" d="M439.75,-585.7C439.75,-540.27 439.75,-417.22 439.75,-361.32"/>
<polygon fill="black" stroke="black" points="443.25,-361.67 439.75,-351.67 436.25,-361.67 443.25,-361.67"/>
<text xml:space="preserve" text-anchor="middle" x="511" y="-459.95" font-family="Times,serif" font-size="14.00">builds message from</text>
</g>
<!-- BrowserState -->
<g id="node3" class="node">
<title>BrowserState</title>
<polygon fill="lightblue" stroke="black" points="477.75,-894 191.75,-894 191.75,-858 477.75,-858 477.75,-894"/>
<text xml:space="preserve" text-anchor="middle" x="334.75" y="-867.95" font-family="Times,serif" font-size="14.00">Browser State (summary, screenshots)</text>
</g>
<!-- BrowserState&#45;&gt;MessageManager -->
<g id="edge2" class="edge">
<title>BrowserState&#45;&gt;MessageManager</title>
<path fill="none" stroke="black" d="M341.48,-857.7C359.22,-812.08 407.4,-688.19 429.01,-632.62"/>
<polygon fill="black" stroke="black" points="432.17,-634.16 432.53,-623.57 425.64,-631.62 432.17,-634.16"/>
<text xml:space="preserve" text-anchor="middle" x="439.75" y="-731.95" font-family="Times,serif" font-size="14.00">prepares state</text>
</g>
<!-- FileSystem -->
<g id="node4" class="node">
<title>FileSystem</title>
<polygon fill="lightblue" stroke="black" points="594,-894 495.5,-894 495.5,-858 594,-858 594,-894"/>
<text xml:space="preserve" text-anchor="middle" x="544.75" y="-867.95" font-family="Times,serif" font-size="14.00">File System</text>
</g>
<!-- FileSystem&#45;&gt;MessageManager -->
<g id="edge3" class="edge">
<title>FileSystem&#45;&gt;MessageManager</title>
<path fill="none" stroke="black" d="M539.11,-857.58C530.37,-830.92 512.8,-778.48 495.75,-734.75 481.87,-699.15 464.15,-658.84 452.4,-632.73"/>
<polygon fill="black" stroke="black" points="455.69,-631.51 448.38,-623.84 449.31,-634.4 455.69,-631.51"/>
<text xml:space="preserve" text-anchor="middle" x="513.63" y="-731.95" font-family="Times,serif" font-size="14.00">uses</text>
</g>
<!-- OtherInputs -->
<g id="node5" class="node">
<title>OtherInputs</title>
<polygon fill="lightblue" stroke="black" points="935.5,-894 612,-894 612,-858 935.5,-858 935.5,-894"/>
<text xml:space="preserve" text-anchor="middle" x="773.75" y="-867.95" font-family="Times,serif" font-size="14.00">Other Inputs (task, sensitive data, etc.)</text>
</g>
<!-- OtherInputs&#45;&gt;MessageManager -->
<g id="edge4" class="edge">
<title>OtherInputs&#45;&gt;MessageManager</title>
<path fill="none" stroke="black" d="M752.35,-857.7C694.73,-811.12 536.22,-682.98 469.72,-629.23"/>
<polygon fill="black" stroke="black" points="472.13,-626.67 462.15,-623.11 467.73,-632.12 472.13,-626.67"/>
<text xml:space="preserve" text-anchor="middle" x="644.25" y="-731.95" font-family="Times,serif" font-size="14.00">configures</text>
</g>
<!-- LLM -->
<g id="node7" class="node">
<title>LLM</title>
<polygon fill="lightblue" stroke="black" points="466.75,-77 412.75,-77 412.75,-41 466.75,-41 466.75,-77"/>
<text xml:space="preserve" text-anchor="middle" x="439.75" y="-50.95" font-family="Times,serif" font-size="14.00">LLM</text>
</g>
<!-- PromptBuilders&#45;&gt;LLM -->
<g id="edge7" class="edge">
<title>PromptBuilders&#45;&gt;LLM</title>
<path fill="none" stroke="black" d="M439.75,-313.64C439.75,-268.03 439.75,-144.53 439.75,-88.43"/>
<polygon fill="black" stroke="black" points="443.25,-88.73 439.75,-78.73 436.25,-88.73 443.25,-88.73"/>
<text xml:space="preserve" text-anchor="middle" x="503.5" y="-187.95" font-family="Times,serif" font-size="14.00">sends messages to</text>
</g>
</g>
</svg>