<svg width="380pt" height="380pt"
 viewBox="0.00 0.00 380.00 380.00" xmlns="http://www.w3.org/2000/svg" xmlns:xlink="http://www.w3.org/1999/xlink"><style>
  * {
    fill: transparent !important;
    stroke: rgb(255, 255, 255) !important;
    stroke-width: 1 !important;
  }
  polygon:not(.cluster *, .node *, .edge *, text) {
    stroke: transparent !important;
  }
  text {
    font-size: 10px !important;
    font-family: monospace !important;
    fill: rgb(255, 255, 255) !important;
    stroke: transparent !important;
    transform: translateY(-0.5em);
  }
</style>
<g id="graph0" class="graph" transform="scale(1 1) rotate(0) translate(4 375.75)">
<title>G</title>
<polygon fill="white" stroke="none" points="-4,4 -4,-375.75 375.75,-375.75 375.75,4 -4,4"/>
<!-- User Interfaces -->
<g id="node1" class="node">
<title>User Interfaces</title>
<polygon fill="lightblue" stroke="black" points="211.5,-366 15.5,-366 15.5,-330 211.5,-330 211.5,-366"/>
<text xml:space="preserve" text-anchor="middle" x="113.5" y="-345.2" font-family="Times,serif" font-size="14.00">User Interfaces</text>
<text xml:space="preserve" text-anchor="middle" x="113.5" y="-334.7" font-family="Times,serif" font-size="14.00">(CLI, Gradio, Streamlit)</text>
</g>
<!-- Agent -->
<g id="node2" class="node">
<title>Agent</title>
<polygon fill="lightblue" stroke="black" points="215.25,-150 11.75,-150 11.75,-114 215.25,-114 215.25,-150"/>
<text xml:space="preserve" text-anchor="middle" x="113.5" y="-123.95" font-family="Times,serif" font-size="14.00">Agent (browser_use.Agent)</text>
</g>
<!-- User Interfaces&#45;&gt;Agent -->
<g id="edge1" class="edge">
<title>User Interfaces&#45;&gt;Agent</title>
<path fill="none" stroke="black" d="M111.85,-329.63C110.25,-311.7 107.91,-282.93 107,-258 105.8,-224.97 108.32,-187.06 110.56,-161.73"/>
<polygon fill="black" stroke="black" points="114.04,-162.17 111.48,-151.89 107.07,-161.52 114.04,-162.17"/>
<text xml:space="preserve" text-anchor="middle" x="155.75" y="-231.95" font-family="Times,serif" font-size="14.00">Provides Task</text>
</g>
<!-- LLM Selection -->
<g id="node3" class="node">
<title>LLM Selection</title>
<polygon fill="lightblue" stroke="black" points="371.75,-258 213.25,-258 213.25,-222 371.75,-222 371.75,-258"/>
<text xml:space="preserve" text-anchor="middle" x="292.5" y="-237.2" font-family="Times,serif" font-size="14.00">LLM Selection</text>
<text xml:space="preserve" text-anchor="middle" x="292.5" y="-226.7" font-family="Times,serif" font-size="14.00">(OpenAI, Anthropic)</text>
</g>
<!-- User Interfaces&#45;&gt;LLM Selection -->
<g id="edge2" class="edge">
<title>User Interfaces&#45;&gt;LLM Selection</title>
<path fill="none" stroke="black" d="M142.66,-329.73C172.73,-311.92 219.83,-284.04 253.18,-264.28"/>
<polygon fill="black" stroke="black" points="254.93,-267.31 261.75,-259.21 251.37,-261.29 254.93,-267.31"/>
<text xml:space="preserve" text-anchor="middle" x="245.87" y="-285.95" font-family="Times,serif" font-size="14.00">Configures</text>
</g>
<!-- BrowserSession -->
<g id="node4" class="node">
<title>BrowserSession</title>
<polygon fill="lightblue" stroke="black" points="121,-42 0,-42 0,-6 121,-6 121,-42"/>
<text xml:space="preserve" text-anchor="middle" x="60.5" y="-15.95" font-family="Times,serif" font-size="14.00">BrowserSession</text>
</g>
<!-- Agent&#45;&gt;BrowserSession -->
<g id="edge4" class="edge">
<title>Agent&#45;&gt;BrowserSession</title>
<path fill="none" stroke="black" d="M104.98,-113.97C96.69,-97.38 83.94,-71.88 74.22,-52.43"/>
<polygon fill="black" stroke="black" points="77.45,-51.07 69.85,-43.69 71.19,-54.2 77.45,-51.07"/>
<text xml:space="preserve" text-anchor="middle" x="103.59" y="-69.95" font-family="Times,serif" font-size="14.00">Uses</text>
</g>
<!-- Tools -->
<g id="node5" class="node">
<title>Tools</title>
<polygon fill="lightblue" stroke="black" points="193.5,-42 139.5,-42 139.5,-6 193.5,-6 193.5,-42"/>
<text xml:space="preserve" text-anchor="middle" x="166.5" y="-15.95" font-family="Times,serif" font-size="14.00">Tools</text>
</g>
<!-- Agent&#45;&gt;Tools -->
<g id="edge5" class="edge">
<title>Agent&#45;&gt;Tools</title>
<path fill="none" stroke="black" d="M122.02,-113.97C130.31,-97.38 143.06,-71.88 152.78,-52.43"/>
<polygon fill="black" stroke="black" points="155.81,-54.2 157.15,-43.69 149.55,-51.07 155.81,-54.2"/>
<text xml:space="preserve" text-anchor="middle" x="156.59" y="-69.95" font-family="Times,serif" font-size="14.00">Uses</text>
</g>
<!-- LLM Selection&#45;&gt;Agent -->
<g id="edge3" class="edge">
<title>LLM Selection&#45;&gt;Agent</title>
<path fill="none" stroke="black" d="M263.34,-221.73C233.27,-203.92 186.17,-176.04 152.82,-156.28"/>
<polygon fill="black" stroke="black" points="154.63,-153.29 144.25,-151.21 151.07,-159.31 154.63,-153.29"/>
<text xml:space="preserve" text-anchor="middle" x="253.37" y="-177.95" font-family="Times,serif" font-size="14.00">Provides LLM</text>
</g>
</g>
</svg>