<svg width="551pt" height="551pt"
 viewBox="0.00 0.00 551.00 551.00" xmlns="http://www.w3.org/2000/svg" xmlns:xlink="http://www.w3.org/1999/xlink"><style>
  * {
    fill: transparent !important;
    stroke: rgb(255, 255, 255) !important;
    stroke-width: 1 !important;
  }
  polygon:not(.cluster *, .node *, .edge *, text) {
    stroke: transparent !important;
  }
  text {
    font-size: 10px !important;
    font-family: monospace !important;
    fill: rgb(255, 255, 255) !important;
    stroke: transparent !important;
    transform: translateY(-0.5em);
  }
</style>
<g id="graph0" class="graph" transform="scale(1 1) rotate(0) translate(4 547)">
<title>G</title>
<polygon fill="white" stroke="none" points="-4,4 -4,-547 547,-547 547,4 -4,4"/>
<!-- Agent -->
<g id="node1" class="node">
<title>Agent</title>
<polygon fill="lightblue" stroke="black" points="382.75,-527 306.75,-527 306.75,-491 382.75,-491 382.75,-527"/>
<text xml:space="preserve" text-anchor="middle" x="344.75" y="-500.95" font-family="Times,serif" font-size="14.00">AI Agent</text>
</g>
<!-- Tools -->
<g id="node2" class="node">
<title>Tools</title>
<polygon fill="lightblue" stroke="black" points="305.25,-369 184.25,-369 184.25,-333 305.25,-333 305.25,-369"/>
<text xml:space="preserve" text-anchor="middle" x="244.75" y="-342.95" font-family="Times,serif" font-size="14.00">Tools Registry</text>
</g>
<!-- Agent&#45;&gt;Tools -->
<g id="edge1" class="edge">
<title>Agent&#45;&gt;Tools</title>
<path fill="none" stroke="black" d="M333.67,-490.71C316.32,-463.65 282.63,-411.09 262.06,-379.01"/>
<polygon fill="black" stroke="black" points="265.04,-377.17 256.7,-370.64 259.15,-380.95 265.04,-377.17"/>
<text xml:space="preserve" text-anchor="middle" x="350.25" y="-421.95" font-family="Times,serif" font-size="14.00">Invokes action</text>
</g>
<!-- GetRecentEmailsParams -->
<g id="node3" class="node">
<title>GetRecentEmailsParams</title>
<polygon fill="lightblue" stroke="black" points="173.5,-210 0,-210 0,-174 173.5,-174 173.5,-210"/>
<text xml:space="preserve" text-anchor="middle" x="86.75" y="-183.95" font-family="Times,serif" font-size="14.00">GetRecentEmailsParams</text>
</g>
<!-- Tools&#45;&gt;GetRecentEmailsParams -->
<g id="edge2" class="edge">
<title>Tools&#45;&gt;GetRecentEmailsParams</title>
<path fill="none" stroke="black" d="M194.88,-332.6C167.29,-320.66 134.42,-302.22 113.25,-276.25 100.56,-260.68 93.91,-238.94 90.44,-221.58"/>
<polygon fill="black" stroke="black" points="93.92,-221.14 88.77,-211.88 87.02,-222.33 93.92,-221.14"/>
<text xml:space="preserve" text-anchor="middle" x="177" y="-262.95" font-family="Times,serif" font-size="14.00">Passes parameters</text>
</g>
<!-- GmailService -->
<g id="node4" class="node">
<title>GmailService</title>
<polygon fill="lightblue" stroke="black" points="297.75,-210 191.75,-210 191.75,-174 297.75,-174 297.75,-210"/>
<text xml:space="preserve" text-anchor="middle" x="244.75" y="-183.95" font-family="Times,serif" font-size="14.00">GmailService</text>
</g>
<!-- Tools&#45;&gt;GmailService -->
<g id="edge3" class="edge">
<title>Tools&#45;&gt;GmailService</title>
<path fill="none" stroke="black" d="M244.75,-332.6C244.75,-305.84 244.75,-254.29 244.75,-221.87"/>
<polygon fill="black" stroke="black" points="248.25,-221.99 244.75,-211.99 241.25,-221.99 248.25,-221.99"/>
<text xml:space="preserve" text-anchor="middle" x="259.75" y="-262.95" font-family="Times,serif" font-size="14.00">Uses</text>
</g>
<!-- GmailAPI -->
<g id="node5" class="node">
<title>GmailAPI</title>
<polygon fill="lightblue" stroke="black" points="191.5,-52 108,-52 108,-16 191.5,-16 191.5,-52"/>
<text xml:space="preserve" text-anchor="middle" x="149.75" y="-25.95" font-family="Times,serif" font-size="14.00">Gmail API</text>
</g>
<!-- GmailService&#45;&gt;GmailAPI -->
<g id="edge4" class="edge">
<title>GmailService&#45;&gt;GmailAPI</title>
<path fill="none" stroke="black" d="M191.35,-176.09C124.15,-157.07 16.76,-125.74 11.25,-118.25 -15.72,-81.59 47.11,-57.96 96.76,-45.57"/>
<polygon fill="black" stroke="black" points="97.36,-49.02 106.28,-43.3 95.74,-42.22 97.36,-49.02"/>
<text xml:space="preserve" text-anchor="middle" x="97.5" y="-104.95" font-family="Times,serif" font-size="14.00">Authenticates &amp; Fetches</text>
</g>
<!-- ActionResult -->
<g id="node6" class="node">
<title>ActionResult</title>
<polygon fill="lightblue" stroke="black" points="543,-52 294.5,-52 294.5,-16 543,-16 543,-52"/>
<text xml:space="preserve" text-anchor="middle" x="418.75" y="-25.95" font-family="Times,serif" font-size="14.00">ActionResult (Formatted Emails)</text>
</g>
<!-- GmailService&#45;&gt;ActionResult -->
<g id="edge6" class="edge">
<title>GmailService&#45;&gt;ActionResult</title>
<path fill="none" stroke="black" d="M269.09,-173.69C288.54,-159.5 316.19,-138.52 338.75,-118.25 359.07,-100 380.42,-77.59 395.95,-60.62"/>
<polygon fill="black" stroke="black" points="398.36,-63.18 402.49,-53.42 393.17,-58.47 398.36,-63.18"/>
<text xml:space="preserve" text-anchor="middle" x="400.46" y="-104.95" font-family="Times,serif" font-size="14.00">Formats output</text>
</g>
<!-- GmailAPI&#45;&gt;GmailService -->
<g id="edge5" class="edge">
<title>GmailAPI&#45;&gt;GmailService</title>
<path fill="none" stroke="black" d="M160.33,-52.37C176.83,-79.47 208.85,-132.05 228.36,-164.09"/>
<polygon fill="black" stroke="black" points="225.24,-165.7 233.43,-172.42 231.22,-162.06 225.24,-165.7"/>
<text xml:space="preserve" text-anchor="middle" x="267.6" y="-104.95" font-family="Times,serif" font-size="14.00">Returns raw emails</text>
</g>
<!-- ActionResult&#45;&gt;Agent -->
<g id="edge7" class="edge">
<title>ActionResult&#45;&gt;Agent</title>
<path fill="none" stroke="black" d="M430.84,-52.27C439.97,-66.44 451.76,-87.41 456.75,-107.75 457.86,-112.28 457.11,-113.6 456.75,-118.25 445.6,-260.44 466.35,-305.67 406.75,-435.25 398.62,-452.94 384.92,-469.69 372.46,-482.65"/>
<polygon fill="black" stroke="black" points="370.19,-479.97 365.6,-489.52 375.14,-484.92 370.19,-479.97"/>
<text xml:space="preserve" text-anchor="middle" x="480.91" y="-262.95" font-family="Times,serif" font-size="14.00">Receives</text>
</g>
</g>
</svg>