<svg width="611pt" height="540pt"
 viewBox="0.00 0.00 611.00 540.00" xmlns="http://www.w3.org/2000/svg" xmlns:xlink="http://www.w3.org/1999/xlink"><style>
  * {
    fill: transparent !important;
    stroke: rgb(255, 255, 255) !important;
    stroke-width: 1 !important;
  }
  polygon:not(.cluster *, .node *, .edge *, text) {
    stroke: transparent !important;
  }
  text {
    font-size: 10px !important;
    font-family: monospace !important;
    fill: rgb(255, 255, 255) !important;
    stroke: transparent !important;
    transform: translateY(-0.5em);
  }
</style>
<g id="graph0" class="graph" transform="scale(1 1) rotate(0) translate(4 536)">
<title>G</title>
<polygon fill="white" stroke="none" points="-4,4 -4,-536 606.87,-536 606.87,4 -4,4"/>
<g id="clust1" class="cluster">
<title>cluster_data</title>
<polygon fill="none" stroke="black" points="11.79,-8 11.79,-161 456.84,-161 456.84,-8 11.79,-8"/>
<text xml:space="preserve" text-anchor="middle" x="234.32" y="-143.7" font-family="Times,serif" font-size="14.00">Data &amp; Events</text>
</g>
<g id="clust2" class="cluster">
<title>cluster_local</title>
<polygon fill="none" stroke="black" points="184.21,-371 184.21,-524 520.21,-524 520.21,-371 184.21,-371"/>
<text xml:space="preserve" text-anchor="middle" x="352.21" y="-506.7" font-family="Times,serif" font-size="14.00">Local Environment</text>
</g>
<g id="clust3" class="cluster">
<title>cluster_remote</title>
<polygon fill="none" stroke="black" points="57.47,-189.5 57.47,-342.5 369.89,-342.5 369.89,-189.5 57.47,-189.5"/>
<text xml:space="preserve" text-anchor="middle" x="213.68" y="-325.2" font-family="Times,serif" font-size="14.00">Remote Sandbox</text>
</g>
<!-- Python Function -->
<g id="node1" class="node">
<title>Python Function</title>
<polygon fill="lightblue" stroke="black" points="446.62,-498 258.12,-498 258.12,-462 446.62,-462 446.62,-498"/>
<text xml:space="preserve" text-anchor="middle" x="352.37" y="-477.2" font-family="Times,serif" font-size="14.00">Python Function</text>
<text xml:space="preserve" text-anchor="middle" x="352.37" y="-466.7" font-family="Times,serif" font-size="14.00">(Decorated by @sandbox)</text>
</g>
<!-- Sandbox Decorator -->
<g id="node2" class="node">
<title>Sandbox Decorator</title>
<polygon fill="lightblue" stroke="black" points="457.87,-415 246.87,-415 246.87,-379 457.87,-379 457.87,-415"/>
<text xml:space="preserve" text-anchor="middle" x="352.37" y="-394.2" font-family="Times,serif" font-size="14.00">@sandbox Decorator</text>
<text xml:space="preserve" text-anchor="middle" x="352.37" y="-383.7" font-family="Times,serif" font-size="14.00">(Serialization, Code Gen.)</text>
</g>
<!-- Python Function&#45;&gt;Sandbox Decorator -->
<g id="edge1" class="edge">
<title>Python Function&#45;&gt;Sandbox Decorator</title>
<path fill="none" stroke="black" d="M352.37,-461.82C352.37,-451.69 352.37,-438.6 352.37,-426.92"/>
<polygon fill="black" stroke="black" points="355.87,-426.95 352.37,-416.95 348.87,-426.95 355.87,-426.95"/>
<text xml:space="preserve" text-anchor="middle" x="371.12" y="-429.95" font-family="Times,serif" font-size="14.00">Wraps</text>
</g>
<!-- Remote Execution Service -->
<g id="node3" class="node">
<title>Remote Execution Service</title>
<polygon fill="lightblue" stroke="black" points="311.37,-316 115.37,-316 115.37,-280 311.37,-280 311.37,-316"/>
<text xml:space="preserve" text-anchor="middle" x="213.37" y="-295.2" font-family="Times,serif" font-size="14.00">Remote Execution Service</text>
<text xml:space="preserve" text-anchor="middle" x="213.37" y="-284.7" font-family="Times,serif" font-size="14.00">(HTTP/SSE Server)</text>
</g>
<!-- Sandbox Decorator&#45;&gt;Remote Execution Service -->
<g id="edge2" class="edge">
<title>Sandbox Decorator&#45;&gt;Remote Execution Service</title>
<path fill="none" stroke="black" d="M289.86,-378.59C278.94,-373.97 268.12,-368.25 258.87,-361.25 246.44,-351.85 235.91,-338.13 228.12,-325.96"/>
<polygon fill="black" stroke="black" points="231.19,-324.27 223.02,-317.52 225.2,-327.89 231.19,-324.27"/>
<text xml:space="preserve" text-anchor="middle" x="330.12" y="-347.95" font-family="Times,serif" font-size="14.00">Sends Code &amp; Params</text>
</g>
<!-- Sandbox Runtime -->
<g id="node4" class="node">
<title>Sandbox Runtime</title>
<polygon fill="lightblue" stroke="black" points="240.62,-234 112.12,-234 112.12,-198 240.62,-198 240.62,-234"/>
<text xml:space="preserve" text-anchor="middle" x="176.37" y="-213.2" font-family="Times,serif" font-size="14.00">Sandbox Runtime</text>
<text xml:space="preserve" text-anchor="middle" x="176.37" y="-202.7" font-family="Times,serif" font-size="14.00">(Executes Code)</text>
</g>
<!-- Remote Execution Service&#45;&gt;Sandbox Runtime -->
<g id="edge3" class="edge">
<title>Remote Execution Service&#45;&gt;Sandbox Runtime</title>
<path fill="none" stroke="black" d="M205.34,-279.64C200.59,-269.37 194.46,-256.12 189.07,-244.46"/>
<polygon fill="black" stroke="black" points="192.39,-243.31 185.02,-235.7 186.04,-246.24 192.39,-243.31"/>
<text xml:space="preserve" text-anchor="middle" x="260.83" y="-248.95" font-family="Times,serif" font-size="14.00">Manages Execution</text>
</g>
<!-- SSE Events -->
<g id="node5" class="node">
<title>SSE Events</title>
<polygon fill="lightblue" stroke="black" points="311.87,-135 100.87,-135 100.87,-99 311.87,-99 311.87,-135"/>
<text xml:space="preserve" text-anchor="middle" x="206.37" y="-114.2" font-family="Times,serif" font-size="14.00">SSE Events</text>
<text xml:space="preserve" text-anchor="middle" x="206.37" y="-103.7" font-family="Times,serif" font-size="14.00">(Log, Result, Error, etc.)</text>
</g>
<!-- Sandbox Runtime&#45;&gt;SSE Events -->
<g id="edge4" class="edge">
<title>Sandbox Runtime&#45;&gt;SSE Events</title>
<path fill="none" stroke="black" d="M181.73,-197.66C186.17,-183.31 192.56,-162.66 197.72,-145.98"/>
<polygon fill="black" stroke="black" points="200.99,-147.23 200.6,-136.64 194.31,-145.16 200.99,-147.23"/>
<text xml:space="preserve" text-anchor="middle" x="242.97" y="-165.95" font-family="Times,serif" font-size="14.00">Streams Output</text>
</g>
<!-- Type&#45;Safe Models -->
<g id="node6" class="node">
<title>Type&#45;Safe Models</title>
<polygon fill="lightblue" stroke="black" points="377.37,-52 91.37,-52 91.37,-16 377.37,-16 377.37,-52"/>
<text xml:space="preserve" text-anchor="middle" x="234.37" y="-31.2" font-family="Times,serif" font-size="14.00">Type&#45;Safe Models</text>
<text xml:space="preserve" text-anchor="middle" x="234.37" y="-20.7" font-family="Times,serif" font-size="14.00">(e.g., SSEEvent, BrowserCreatedData)</text>
</g>
<!-- SSE Events&#45;&gt;Type&#45;Safe Models -->
<g id="edge5" class="edge">
<title>SSE Events&#45;&gt;Type&#45;Safe Models</title>
<path fill="none" stroke="black" d="M212.31,-98.82C215.88,-88.48 220.52,-75.05 224.63,-63.18"/>
<polygon fill="black" stroke="black" points="227.89,-64.46 227.85,-53.86 221.27,-62.17 227.89,-64.46"/>
<text xml:space="preserve" text-anchor="middle" x="263.29" y="-66.95" font-family="Times,serif" font-size="14.00">Parsed into</text>
</g>
<!-- Type&#45;Safe Models&#45;&gt;Sandbox Decorator -->
<g id="edge6" class="edge">
<title>Type&#45;Safe Models&#45;&gt;Sandbox Decorator</title>
<path fill="none" stroke="black" d="M360.08,-52.38C390.96,-64.12 415.37,-83.64 415.37,-116 415.37,-299 415.37,-299 415.37,-299 415.37,-327.36 417.09,-337.65 401.37,-361.25 398.93,-364.91 395.97,-368.3 392.73,-371.42"/>
<polygon fill="black" stroke="black" points="390.76,-368.5 385.36,-377.62 395.27,-373.85 390.76,-368.5"/>
<text xml:space="preserve" text-anchor="middle" x="509.12" y="-207.95" font-family="Times,serif" font-size="14.00">Reconstructs Return Value</text>
</g>
</g>
</svg>