<svg width="478pt" height="478pt"
 viewBox="0.00 0.00 478.00 478.00" xmlns="http://www.w3.org/2000/svg" xmlns:xlink="http://www.w3.org/1999/xlink"><style>
  * {
    fill: transparent !important;
    stroke: rgb(255, 255, 255) !important;
    stroke-width: 1 !important;
  }
  polygon:not(.cluster *, .node *, .edge *, text) {
    stroke: transparent !important;
  }
  text {
    font-size: 10px !important;
    font-family: monospace !important;
    fill: rgb(255, 255, 255) !important;
    stroke: transparent !important;
    transform: translateY(-0.5em);
  }
</style>
<g id="graph0" class="graph" transform="scale(1 1) rotate(0) translate(4 474)">
<title>G</title>
<polygon fill="white" stroke="none" points="-4,4 -4,-474 474,-474 474,4 -4,4"/>
<!-- Messages -->
<g id="node1" class="node">
<title>Messages</title>
<polygon fill="lightblue" stroke="black" points="188.5,-321 0,-321 0,-285 188.5,-285 188.5,-321"/>
<text xml:space="preserve" text-anchor="middle" x="94.25" y="-294.95" font-family="Times,serif" font-size="14.00">Messages (Standardized)</text>
</g>
<!-- BaseChatModel -->
<g id="node2" class="node">
<title>BaseChatModel</title>
<polygon fill="lightblue" stroke="black" points="260.25,-185 64.25,-185 64.25,-149 260.25,-149 260.25,-185"/>
<text xml:space="preserve" text-anchor="middle" x="162.25" y="-158.95" font-family="Times,serif" font-size="14.00">BaseChatModel (Protocol)</text>
</g>
<!-- Messages&#45;&gt;BaseChatModel -->
<g id="edge1" class="edge">
<title>Messages&#45;&gt;BaseChatModel</title>
<path fill="none" stroke="black" d="M103,-284.76C114.48,-262.14 134.74,-222.2 148.34,-195.42"/>
<polygon fill="black" stroke="black" points="151.44,-197.03 152.85,-186.53 145.2,-193.86 151.44,-197.03"/>
<text xml:space="preserve" text-anchor="middle" x="186.54" y="-226.95" font-family="Times,serif" font-size="14.00">Uses in ainvoke</text>
</g>
<!-- ChatInvokeCompletion -->
<g id="node5" class="node">
<title>ChatInvokeCompletion</title>
<polygon fill="lightblue" stroke="black" points="249,-48 75.5,-48 75.5,-12 249,-12 249,-48"/>
<text xml:space="preserve" text-anchor="middle" x="162.25" y="-27.2" font-family="Times,serif" font-size="14.00">ChatInvokeCompletion</text>
<text xml:space="preserve" text-anchor="middle" x="162.25" y="-16.7" font-family="Times,serif" font-size="14.00">(Standardized Output)</text>
</g>
<!-- BaseChatModel&#45;&gt;ChatInvokeCompletion -->
<g id="edge3" class="edge">
<title>BaseChatModel&#45;&gt;ChatInvokeCompletion</title>
<path fill="none" stroke="black" d="M162.25,-148.63C162.25,-126.15 162.25,-86.68 162.25,-59.71"/>
<polygon fill="black" stroke="black" points="165.75,-59.82 162.25,-49.82 158.75,-59.82 165.75,-59.82"/>
<text xml:space="preserve" text-anchor="middle" x="188.5" y="-89.95" font-family="Times,serif" font-size="14.00">Returns</text>
</g>
<!-- SchemaOptimizer -->
<g id="node3" class="node">
<title>SchemaOptimizer</title>
<polygon fill="lightblue" stroke="black" points="458.75,-458 217.75,-458 217.75,-422 458.75,-422 458.75,-458"/>
<text xml:space="preserve" text-anchor="middle" x="338.25" y="-431.95" font-family="Times,serif" font-size="14.00">SchemaOptimizer (Standardized)</text>
</g>
<!-- LLMProviders -->
<g id="node4" class="node">
<title>LLMProviders</title>
<polygon fill="lightblue" stroke="black" points="470,-321 206.5,-321 206.5,-285 470,-285 470,-321"/>
<text xml:space="preserve" text-anchor="middle" x="338.25" y="-300.2" font-family="Times,serif" font-size="14.00">LLM Providers</text>
<text xml:space="preserve" text-anchor="middle" x="338.25" y="-289.7" font-family="Times,serif" font-size="14.00">(OpenAI, Anthropic, Google, etc.)</text>
</g>
<!-- SchemaOptimizer&#45;&gt;LLMProviders -->
<g id="edge2" class="edge">
<title>SchemaOptimizer&#45;&gt;LLMProviders</title>
<path fill="none" stroke="black" d="M338.25,-421.63C338.25,-399.15 338.25,-359.68 338.25,-332.71"/>
<polygon fill="black" stroke="black" points="341.75,-332.82 338.25,-322.82 334.75,-332.82 341.75,-332.82"/>
<text xml:space="preserve" text-anchor="middle" x="402" y="-363.95" font-family="Times,serif" font-size="14.00">Used by providers</text>
</g>
<!-- LLMProviders&#45;&gt;BaseChatModel -->
<g id="edge4" class="edge">
<title>LLMProviders&#45;&gt;BaseChatModel</title>
<path fill="none" stroke="black" d="M316.76,-284.51C298.45,-269.71 271.34,-248.05 247.25,-229.75 230.53,-217.05 211.66,-203.29 195.96,-191.98"/>
<polygon fill="black" stroke="black" points="198.03,-189.16 187.86,-186.18 193.95,-194.85 198.03,-189.16"/>
<text xml:space="preserve" text-anchor="middle" x="297.29" y="-226.95" font-family="Times,serif" font-size="14.00">Implements</text>
</g>
</g>
</svg>