<svg width="949pt" height="949pt"
 viewBox="0.00 0.00 949.00 949.00" xmlns="http://www.w3.org/2000/svg" xmlns:xlink="http://www.w3.org/1999/xlink"><style>
  * {
    fill: transparent !important;
    stroke: rgb(255, 255, 255) !important;
    stroke-width: 1 !important;
  }
  polygon:not(.cluster *, .node *, .edge *, text) {
    stroke: transparent !important;
  }
  text {
    font-size: 10px !important;
    font-family: monospace !important;
    fill: rgb(255, 255, 255) !important;
    stroke: transparent !important;
    transform: translateY(-0.5em);
  }
</style>
<g id="graph0" class="graph" transform="scale(1 1) rotate(0) translate(4 944.5)">
<title>G</title>
<polygon fill="white" stroke="none" points="-4,4 -4,-944.5 944.5,-944.5 944.5,4 -4,4"/>
<!-- BaseFile -->
<g id="node1" class="node">
<title>BaseFile</title>
<polygon fill="lightblue" stroke="black" points="121,-488 0,-488 0,-452 121,-452 121,-488"/>
<text xml:space="preserve" text-anchor="middle" x="60.5" y="-461.95" font-family="Times,serif" font-size="14.00">{BaseFile|...}</text>
</g>
<!-- SpecializedFiles -->
<g id="node2" class="node">
<title>SpecializedFiles</title>
<polygon fill="lightblue" stroke="black" points="613,-488 192,-488 192,-452 613,-452 613,-488"/>
<text xml:space="preserve" text-anchor="middle" x="402.5" y="-461.95" font-family="Times,serif" font-size="14.00">{&lt;pdf&gt;PdfFile|&lt;docx&gt;DocxFile|TxtFile|MarkdownFile|...}</text>
</g>
<!-- BaseFile&#45;&gt;SpecializedFiles -->
<g id="edge1" class="edge">
<title>BaseFile&#45;&gt;SpecializedFiles</title>
<path fill="none" stroke="black" d="M121.25,-470C138.74,-470 158.91,-470 180.26,-470"/>
<polygon fill="black" stroke="black" points="180,-473.5 190,-470 180,-466.5 180,-473.5"/>
<text xml:space="preserve" text-anchor="middle" x="156.5" y="-470.2" font-family="Times,serif" font-size="14.00">extends</text>
</g>
<!-- ExternalLibraries -->
<g id="node3" class="node">
<title>ExternalLibraries</title>
<polygon fill="lightblue" stroke="black" points="700.25,-128 466.75,-128 466.75,-78 700.25,-78 700.25,-128"/>
<text xml:space="preserve" text-anchor="middle" x="583.5" y="-110.7" font-family="Times,serif" font-size="14.00">{External Libraries|reportlab</text>
<text xml:space="preserve" text-anchor="middle" x="583.5" y="-100.2" font-family="Times,serif" font-size="14.00">docx</text>
<text xml:space="preserve" text-anchor="middle" x="583.5" y="-89.7" font-family="Times,serif" font-size="14.00">pypdf</text>
<text xml:space="preserve" text-anchor="middle" x="583.5" y="-79.2" font-family="Times,serif" font-size="14.00">anyio}</text>
</g>
<!-- SpecializedFiles&#45;&gt;ExternalLibraries -->
<g id="edge2" class="edge">
<title>SpecializedFiles&#45;&gt;ExternalLibraries</title>
<path fill="none" stroke="black" d="M398.66,-451.73C392.38,-419.65 382.61,-349.23 404,-295.75 431.35,-227.37 495.64,-168.95 539.37,-135.14"/>
<polygon fill="black" stroke="black" points="541.32,-138.05 547.16,-129.22 537.08,-132.48 541.32,-138.05"/>
<text xml:space="preserve" text-anchor="middle" x="482.75" y="-292.95" font-family="Times,serif" font-size="14.00">uses for sync_to_disk</text>
</g>
<!-- SpecializedFiles&#45;&gt;ExternalLibraries -->
<g id="edge3" class="edge">
<title>SpecializedFiles&#45;&gt;ExternalLibraries</title>
<path fill="none" stroke="black" d="M427.89,-451.71C464.5,-425.19 531.06,-370.73 561.5,-306.25 586.94,-252.35 588.4,-181.64 586.44,-139.69"/>
<polygon fill="black" stroke="black" points="589.95,-139.7 585.88,-129.92 582.96,-140.1 589.95,-139.7"/>
<text xml:space="preserve" text-anchor="middle" x="644.62" y="-292.95" font-family="Times,serif" font-size="14.00">uses for sync_to_disk</text>
</g>
<!-- FileSystem -->
<g id="node4" class="node">
<title>FileSystem</title>
<polygon fill="lightblue" stroke="black" points="456.5,-863 260.5,-863 260.5,-813 456.5,-813 456.5,-863"/>
<text xml:space="preserve" text-anchor="middle" x="358.5" y="-845.7" font-family="Times,serif" font-size="14.00">{FileSystem| _file_types</text>
<text xml:space="preserve" text-anchor="middle" x="358.5" y="-835.2" font-family="Times,serif" font-size="14.00"> read_file_structured</text>
<text xml:space="preserve" text-anchor="middle" x="358.5" y="-824.7" font-family="Times,serif" font-size="14.00"> write_file</text>
<text xml:space="preserve" text-anchor="middle" x="358.5" y="-814.2" font-family="Times,serif" font-size="14.00"> ...}</text>
</g>
<!-- FileSystem&#45;&gt;SpecializedFiles -->
<g id="edge4" class="edge">
<title>FileSystem&#45;&gt;SpecializedFiles</title>
<path fill="none" stroke="black" d="M361.42,-812.7C369.24,-747.64 390.64,-569.66 399.04,-499.75"/>
<polygon fill="black" stroke="black" points="402.51,-500.22 400.23,-489.87 395.56,-499.38 402.51,-500.22"/>
<text xml:space="preserve" text-anchor="middle" x="408.07" y="-631.95" font-family="Times,serif" font-size="14.00">manages</text>
</g>
<!-- ContentProcessing -->
<g id="node5" class="node">
<title>ContentProcessing</title>
<polygon fill="lightblue" stroke="black" points="940.5,-856 624.5,-856 624.5,-820 940.5,-820 940.5,-856"/>
<text xml:space="preserve" text-anchor="middle" x="782.5" y="-829.95" font-family="Times,serif" font-size="14.00">{Content Processing|IDF Algorithm (PDF)}</text>
</g>
<!-- FileSystem&#45;&gt;ContentProcessing -->
<g id="edge5" class="edge">
<title>FileSystem&#45;&gt;ContentProcessing</title>
<path fill="none" stroke="black" d="M456.84,-838C503.2,-838 559.86,-838 612.85,-838"/>
<polygon fill="black" stroke="black" points="612.58,-841.5 622.58,-838 612.58,-834.5 612.58,-841.5"/>
<text xml:space="preserve" text-anchor="middle" x="540.5" y="-838.2" font-family="Times,serif" font-size="14.00">uses for PDF reading</text>
</g>
<!-- ContentProcessing&#45;&gt;ExternalLibraries -->
<g id="edge6" class="edge">
<title>ContentProcessing&#45;&gt;ExternalLibraries</title>
<path fill="none" stroke="black" d="M784,-819.85C789.34,-751.09 803.34,-489.72 727.5,-295.75 702.8,-232.57 651.21,-172.14 616.96,-136.55"/>
<polygon fill="black" stroke="black" points="619.63,-134.27 610.14,-129.56 614.62,-139.16 619.63,-134.27"/>
<text xml:space="preserve" text-anchor="middle" x="808.78" y="-461.95" font-family="Times,serif" font-size="14.00">relies on</text>
</g>
</g>
</svg>