<svg width="587pt" height="499pt"
 viewBox="0.00 0.00 587.00 499.00" xmlns="http://www.w3.org/2000/svg" xmlns:xlink="http://www.w3.org/1999/xlink"><style>
  * {
    fill: transparent !important;
    stroke: rgb(255, 255, 255) !important;
    stroke-width: 1 !important;
  }
  polygon:not(.cluster *, .node *, .edge *, text) {
    stroke: transparent !important;
  }
  text {
    font-size: 10px !important;
    font-family: monospace !important;
    fill: rgb(255, 255, 255) !important;
    stroke: transparent !important;
    transform: translateY(-0.5em);
  }
</style>
<g id="graph0" class="graph" transform="scale(1 1) rotate(0) translate(4 494.75)">
<title>G</title>
<polygon fill="white" stroke="none" points="-4,4 -4,-494.75 583.44,-494.75 583.44,4 -4,4"/>
<!-- External MCP Server -->
<g id="node1" class="node">
<title>External MCP Server</title>
<polygon fill="lightblue" stroke="black" points="199.75,-478 18.75,-478 18.75,-442 199.75,-442 199.75,-478"/>
<text xml:space="preserve" text-anchor="middle" x="109.25" y="-457.2" font-family="Times,serif" font-size="14.00">External MCP Server</text>
<text xml:space="preserve" text-anchor="middle" x="109.25" y="-446.7" font-family="Times,serif" font-size="14.00">(e.g., Playwright MCP)</text>
</g>
<!-- browser&#45;use (Client Role) -->
<g id="node2" class="node">
<title>browser&#45;use (Client Role)</title>
<polygon fill="lightblue" stroke="black" points="218.5,-337.75 0,-337.75 0,-298.25 218.5,-298.25 218.5,-337.75"/>
<text xml:space="preserve" text-anchor="middle" x="109.25" y="-320.45" font-family="Times,serif" font-size="14.00">browser&#45;use</text>
<text xml:space="preserve" text-anchor="middle" x="109.25" y="-309.95" font-family="Times,serif" font-size="14.00">(Client Role)</text>
<text xml:space="preserve" text-anchor="middle" x="109.25" y="-299.45" font-family="Times,serif" font-size="14.00">(MCPClient, MCPToolWrapper)</text>
</g>
<!-- External MCP Server&#45;&gt;browser&#45;use (Client Role) -->
<g id="edge1" class="edge">
<title>External MCP Server&#45;&gt;browser&#45;use (Client Role)</title>
<path fill="none" stroke="black" d="M109.25,-441.55C109.25,-418.46 109.25,-377.4 109.25,-349.21"/>
<polygon fill="black" stroke="black" points="112.75,-349.53 109.25,-339.53 105.75,-349.53 112.75,-349.53"/>
<text xml:space="preserve" text-anchor="middle" x="161.75" y="-382.95" font-family="Times,serif" font-size="14.00">Provides Tools</text>
</g>
<!-- browser&#45;use Internal Tools -->
<g id="node3" class="node">
<title>browser&#45;use Internal Tools</title>
<polygon fill="lightblue" stroke="black" points="207.25,-191 11.25,-191 11.25,-155 207.25,-155 207.25,-191"/>
<text xml:space="preserve" text-anchor="middle" x="109.25" y="-170.2" font-family="Times,serif" font-size="14.00">browser&#45;use</text>
<text xml:space="preserve" text-anchor="middle" x="109.25" y="-159.7" font-family="Times,serif" font-size="14.00">(Action Registry, Tools)</text>
</g>
<!-- browser&#45;use (Client Role)&#45;&gt;browser&#45;use Internal Tools -->
<g id="edge2" class="edge">
<title>browser&#45;use (Client Role)&#45;&gt;browser&#45;use Internal Tools</title>
<path fill="none" stroke="black" d="M109.25,-298.01C109.25,-273.55 109.25,-230.8 109.25,-202.45"/>
<polygon fill="black" stroke="black" points="112.75,-202.79 109.25,-192.79 105.75,-202.79 112.75,-202.79"/>
<text xml:space="preserve" text-anchor="middle" x="206.75" y="-236.95" font-family="Times,serif" font-size="14.00">Registers Tools as Actions</text>
</g>
<!-- Browser Automation Capabilities -->
<g id="node6" class="node">
<title>Browser Automation Capabilities</title>
<polygon fill="lightblue" stroke="black" points="280.5,-48 32,-48 32,-12 280.5,-12 280.5,-48"/>
<text xml:space="preserve" text-anchor="middle" x="156.25" y="-27.2" font-family="Times,serif" font-size="14.00">Browser Automation Capabilities</text>
<text xml:space="preserve" text-anchor="middle" x="156.25" y="-16.7" font-family="Times,serif" font-size="14.00">(Agent, BrowserSession)</text>
</g>
<!-- browser&#45;use Internal Tools&#45;&gt;Browser Automation Capabilities -->
<g id="edge6" class="edge">
<title>browser&#45;use Internal Tools&#45;&gt;Browser Automation Capabilities</title>
<path fill="none" stroke="black" d="M106.55,-154.63C104.74,-138.65 103.73,-114.49 110.25,-94.75 114.8,-80.98 123.49,-67.66 132.11,-56.79"/>
<polygon fill="black" stroke="black" points="134.53,-59.35 138.27,-49.43 129.17,-54.85 134.53,-59.35"/>
<text xml:space="preserve" text-anchor="middle" x="140.25" y="-91.95" font-family="Times,serif" font-size="14.00">Utilizes</text>
</g>
<!-- browser&#45;use (Server Role) -->
<g id="node4" class="node">
<title>browser&#45;use (Server Role)</title>
<polygon fill="lightblue" stroke="black" points="440.75,-192.75 289.75,-192.75 289.75,-153.25 440.75,-153.25 440.75,-192.75"/>
<text xml:space="preserve" text-anchor="middle" x="365.25" y="-175.45" font-family="Times,serif" font-size="14.00">browser&#45;use</text>
<text xml:space="preserve" text-anchor="middle" x="365.25" y="-164.95" font-family="Times,serif" font-size="14.00">(Server Role)</text>
<text xml:space="preserve" text-anchor="middle" x="365.25" y="-154.45" font-family="Times,serif" font-size="14.00">(BrowserUseServer)</text>
</g>
<!-- External MCP Client -->
<g id="node5" class="node">
<title>External MCP Client</title>
<polygon fill="lightblue" stroke="black" points="490.75,-48 309.75,-48 309.75,-12 490.75,-12 490.75,-48"/>
<text xml:space="preserve" text-anchor="middle" x="400.25" y="-27.2" font-family="Times,serif" font-size="14.00">External MCP Client</text>
<text xml:space="preserve" text-anchor="middle" x="400.25" y="-16.7" font-family="Times,serif" font-size="14.00">(e.g., Claude Desktop)</text>
</g>
<!-- browser&#45;use (Server Role)&#45;&gt;External MCP Client -->
<g id="edge3" class="edge">
<title>browser&#45;use (Server Role)&#45;&gt;External MCP Client</title>
<path fill="none" stroke="black" d="M363.02,-152.94C361.75,-137.1 361.28,-114.11 366.25,-94.75 369.51,-82.04 375.78,-69.08 382.06,-58.19"/>
<polygon fill="black" stroke="black" points="384.99,-60.12 387.2,-49.75 379.01,-56.48 384.99,-60.12"/>
<text xml:space="preserve" text-anchor="middle" x="418.75" y="-91.95" font-family="Times,serif" font-size="14.00">Provides Tools</text>
</g>
<!-- browser&#45;use (Server Role)&#45;&gt;Browser Automation Capabilities -->
<g id="edge5" class="edge">
<title>browser&#45;use (Server Role)&#45;&gt;Browser Automation Capabilities</title>
<path fill="none" stroke="black" d="M300.32,-152.84C270.82,-142.03 236.68,-126.38 210.25,-105.25 194.11,-92.35 180.47,-73.48 170.94,-57.99"/>
<polygon fill="black" stroke="black" points="174.15,-56.54 166.05,-49.7 168.12,-60.09 174.15,-56.54"/>
<text xml:space="preserve" text-anchor="middle" x="285.25" y="-91.95" font-family="Times,serif" font-size="14.00">Exposes Capabilities</text>
</g>
<!-- External MCP Client&#45;&gt;browser&#45;use (Server Role) -->
<g id="edge4" class="edge">
<title>External MCP Client&#45;&gt;browser&#45;use (Server Role)</title>
<path fill="none" stroke="black" d="M436.26,-48.29C459.65,-62.08 483.66,-82.77 471.25,-105.25 461.27,-123.32 444.12,-137.17 426.49,-147.44"/>
<polygon fill="black" stroke="black" points="425.12,-144.2 418.01,-152.06 428.47,-150.35 425.12,-144.2"/>
<text xml:space="preserve" text-anchor="middle" x="526.94" y="-91.95" font-family="Times,serif" font-size="14.00">Consumes Tools</text>
</g>
</g>
</svg>