<svg width="454pt" height="374pt"
 viewBox="0.00 0.00 454.00 374.00" xmlns="http://www.w3.org/2000/svg" xmlns:xlink="http://www.w3.org/1999/xlink"><style>
  * {
    fill: transparent !important;
    stroke: rgb(255, 255, 255) !important;
    stroke-width: 1 !important;
  }
  polygon:not(.cluster *, .node *, .edge *, text) {
    stroke: transparent !important;
  }
  text {
    font-size: 10px !important;
    font-family: monospace !important;
    fill: rgb(255, 255, 255) !important;
    stroke: transparent !important;
    transform: translateY(-0.5em);
  }
</style>
<g id="graph0" class="graph" transform="scale(1 1) rotate(0) translate(4 370)">
<title>G</title>
<polygon fill="white" stroke="none" points="-4,4 -4,-370 449.82,-370 449.82,4 -4,4"/>
<!-- BrowserSession -->
<g id="node1" class="node">
<title>BrowserSession</title>
<polygon fill="lightblue" stroke="black" points="159.65,-284 38.65,-284 38.65,-248 159.65,-248 159.65,-284"/>
<text xml:space="preserve" text-anchor="middle" x="99.15" y="-263.2" font-family="Times,serif" font-size="14.00">BrowserSession</text>
<text xml:space="preserve" text-anchor="middle" x="99.15" y="-252.7" font-family="Times,serif" font-size="14.00">(Browser)</text>
</g>
<!-- Page -->
<g id="node2" class="node">
<title>Page</title>
<polygon fill="lightblue" stroke="black" points="194.15,-201 140.15,-201 140.15,-165 194.15,-165 194.15,-201"/>
<text xml:space="preserve" text-anchor="middle" x="167.15" y="-174.95" font-family="Times,serif" font-size="14.00">Page</text>
</g>
<!-- BrowserSession&#45;&gt;Page -->
<g id="edge1" class="edge">
<title>BrowserSession&#45;&gt;Page</title>
<path fill="none" stroke="black" d="M110.64,-247.83C116.84,-238.9 124.82,-227.97 132.65,-218.75 135.34,-215.58 138.26,-212.36 141.23,-209.22"/>
<polygon fill="black" stroke="black" points="143.53,-211.87 148,-202.26 138.51,-206.99 143.53,-211.87"/>
<text xml:space="preserve" text-anchor="middle" x="158.9" y="-215.95" font-family="Times,serif" font-size="14.00">Manages</text>
</g>
<!-- Element -->
<g id="node3" class="node">
<title>Element</title>
<polygon fill="lightblue" stroke="black" points="401.4,-119 332.9,-119 332.9,-83 401.4,-83 401.4,-119"/>
<text xml:space="preserve" text-anchor="middle" x="367.15" y="-92.95" font-family="Times,serif" font-size="14.00">Element</text>
</g>
<!-- Page&#45;&gt;Element -->
<g id="edge2" class="edge">
<title>Page&#45;&gt;Element</title>
<path fill="none" stroke="black" d="M194.64,-181.46C228.54,-179.64 286.89,-172.69 329.15,-147.25 337.19,-142.41 344.33,-135.26 350.19,-128.07"/>
<polygon fill="black" stroke="black" points="352.81,-130.41 355.99,-120.31 347.2,-126.22 352.81,-130.41"/>
<text xml:space="preserve" text-anchor="middle" x="390.49" y="-133.95" font-family="Times,serif" font-size="14.00">Finds/Creates</text>
</g>
<!-- Mouse -->
<g id="node4" class="node">
<title>Mouse</title>
<polygon fill="lightblue" stroke="black" points="167.15,-119 113.15,-119 113.15,-83 167.15,-83 167.15,-119"/>
<text xml:space="preserve" text-anchor="middle" x="140.15" y="-92.95" font-family="Times,serif" font-size="14.00">Mouse</text>
</g>
<!-- Page&#45;&gt;Mouse -->
<g id="edge3" class="edge">
<title>Page&#45;&gt;Mouse</title>
<path fill="none" stroke="black" d="M152.45,-164.62C148.78,-159.35 145.28,-153.34 143.15,-147.25 141.31,-141.95 140.26,-136.1 139.7,-130.41"/>
<polygon fill="black" stroke="black" points="143.21,-130.52 139.23,-120.7 136.22,-130.86 143.21,-130.52"/>
<text xml:space="preserve" text-anchor="middle" x="158.15" y="-133.95" font-family="Times,serif" font-size="14.00">Uses</text>
</g>
<!-- CDP -->
<g id="node5" class="node">
<title>CDP</title>
<polygon fill="lightblue" stroke="black" points="204.4,-36 75.9,-36 75.9,0 204.4,0 204.4,-36"/>
<text xml:space="preserve" text-anchor="middle" x="140.15" y="-15.2" font-family="Times,serif" font-size="14.00">Chrome DevTools</text>
<text xml:space="preserve" text-anchor="middle" x="140.15" y="-4.7" font-family="Times,serif" font-size="14.00">Protocol (CDP)</text>
</g>
<!-- Page&#45;&gt;CDP -->
<g id="edge4" class="edge">
<title>Page&#45;&gt;CDP</title>
<path fill="none" stroke="black" d="M139.89,-180.28C102.54,-176.29 36.67,-163.03 6.65,-119 -16.55,-84.96 27.26,-57.87 70.78,-40.52"/>
<polygon fill="black" stroke="black" points="71.99,-43.8 80.08,-36.97 69.49,-37.26 71.99,-43.8"/>
<text xml:space="preserve" text-anchor="middle" x="55.4" y="-92.95" font-family="Times,serif" font-size="14.00">Interacts via</text>
</g>
<!-- LLM -->
<g id="node6" class="node">
<title>LLM</title>
<polygon fill="lightblue" stroke="black" points="310.65,-119 189.65,-119 189.65,-83 310.65,-83 310.65,-119"/>
<text xml:space="preserve" text-anchor="middle" x="250.15" y="-98.2" font-family="Times,serif" font-size="14.00">Large Language</text>
<text xml:space="preserve" text-anchor="middle" x="250.15" y="-87.7" font-family="Times,serif" font-size="14.00">Model (LLM)</text>
</g>
<!-- Page&#45;&gt;LLM -->
<g id="edge7" class="edge">
<title>Page&#45;&gt;LLM</title>
<path fill="none" stroke="black" d="M178.51,-164.69C184.76,-155.81 193,-145.14 201.65,-136.75 205.45,-133.07 209.66,-129.47 213.97,-126.07"/>
<polygon fill="black" stroke="black" points="215.74,-129.12 221.64,-120.32 211.54,-123.52 215.74,-129.12"/>
<text xml:space="preserve" text-anchor="middle" x="265.4" y="-133.95" font-family="Times,serif" font-size="14.00">Uses for AI tasks</text>
</g>
<!-- Element&#45;&gt;CDP -->
<g id="edge5" class="edge">
<title>Element&#45;&gt;CDP</title>
<path fill="none" stroke="black" d="M332.49,-86.9C307.45,-77.5 272.79,-64.63 242.15,-53.75 229.48,-49.25 215.89,-44.54 202.88,-40.08"/>
<polygon fill="black" stroke="black" points="204.16,-36.82 193.57,-36.91 201.9,-43.45 204.16,-36.82"/>
<text xml:space="preserve" text-anchor="middle" x="318.38" y="-50.95" font-family="Times,serif" font-size="14.00">Interacts via</text>
</g>
<!-- Mouse&#45;&gt;CDP -->
<g id="edge6" class="edge">
<title>Mouse&#45;&gt;CDP</title>
<path fill="none" stroke="black" d="M140.15,-82.82C140.15,-72.69 140.15,-59.6 140.15,-47.92"/>
<polygon fill="black" stroke="black" points="143.65,-47.95 140.15,-37.95 136.65,-47.95 143.65,-47.95"/>
<text xml:space="preserve" text-anchor="middle" x="188.9" y="-50.95" font-family="Times,serif" font-size="14.00">Interacts via</text>
</g>
<!-- Playground Examples -->
<g id="node7" class="node">
<title>Playground Examples</title>
<polygon fill="lightblue" stroke="black" points="252.4,-366 93.9,-366 93.9,-330 252.4,-330 252.4,-366"/>
<text xml:space="preserve" text-anchor="middle" x="173.15" y="-339.95" font-family="Times,serif" font-size="14.00">Playground Examples</text>
</g>
<!-- Playground Examples&#45;&gt;BrowserSession -->
<g id="edge8" class="edge">
<title>Playground Examples&#45;&gt;BrowserSession</title>
<path fill="none" stroke="black" d="M157.1,-329.64C147.11,-318.84 134.08,-304.76 122.91,-292.69"/>
<polygon fill="black" stroke="black" points="125.57,-290.4 116.21,-285.44 120.43,-295.15 125.57,-290.4"/>
<text xml:space="preserve" text-anchor="middle" x="155.58" y="-298.95" font-family="Times,serif" font-size="14.00">Uses</text>
</g>
<!-- Playground Examples&#45;&gt;Page -->
<g id="edge9" class="edge">
<title>Playground Examples&#45;&gt;Page</title>
<path fill="none" stroke="black" d="M178.33,-329.73C184.99,-304.85 194.63,-257.64 185.15,-218.75 184.59,-216.43 183.84,-214.09 182.96,-211.78"/>
<polygon fill="black" stroke="black" points="186.19,-210.41 178.85,-202.77 179.82,-213.32 186.19,-210.41"/>
<text xml:space="preserve" text-anchor="middle" x="204.11" y="-257.95" font-family="Times,serif" font-size="14.00">Uses</text>
</g>
<!-- Playground Examples&#45;&gt;Element -->
<g id="edge10" class="edge">
<title>Playground Examples&#45;&gt;Element</title>
<path fill="none" stroke="black" d="M217.66,-329.53C281.3,-301.82 395.84,-241.1 443.15,-147.25 451.86,-129.97 433.58,-118.74 412.77,-111.78"/>
<polygon fill="black" stroke="black" points="413.81,-108.44 403.23,-108.96 411.83,-115.16 413.81,-108.44"/>
<text xml:space="preserve" text-anchor="middle" x="404.27" y="-215.95" font-family="Times,serif" font-size="14.00">Uses</text>
</g>
<!-- Playground Examples&#45;&gt;Mouse -->
<g id="edge11" class="edge">
<title>Playground Examples&#45;&gt;Mouse</title>
<path fill="none" stroke="black" d="M93.41,-330.35C68.57,-321.01 43.86,-306.49 29.15,-284 -7.16,-228.48 61.8,-161.48 106.41,-126.3"/>
<polygon fill="black" stroke="black" points="108.53,-129.08 114.32,-120.21 104.26,-123.54 108.53,-129.08"/>
<text xml:space="preserve" text-anchor="middle" x="40.77" y="-215.95" font-family="Times,serif" font-size="14.00">Uses</text>
</g>
</g>
</svg>