<svg width="438pt" height="434pt"
 viewBox="0.00 0.00 438.00 434.00" xmlns="http://www.w3.org/2000/svg" xmlns:xlink="http://www.w3.org/1999/xlink"><style>
  * {
    fill: transparent !important;
    stroke: rgb(255, 255, 255) !important;
    stroke-width: 1 !important;
  }
  polygon:not(.cluster *, .node *, .edge *, text) {
    stroke: transparent !important;
  }
  text {
    font-size: 10px !important;
    font-family: monospace !important;
    fill: rgb(255, 255, 255) !important;
    stroke: transparent !important;
    transform: translateY(-0.5em);
  }
</style>
<g id="graph0" class="graph" transform="scale(1 1) rotate(0) translate(4 429.75)">
<title>G</title>
<polygon fill="white" stroke="none" points="-4,4 -4,-429.75 433.51,-429.75 433.51,4 -4,4"/>
<!-- CLI_Client -->
<g id="node1" class="node">
<title>CLI_Client</title>
<polygon fill="lightblue" stroke="black" points="202,-422 111,-422 111,-386 202,-386 202,-422"/>
<text xml:space="preserve" text-anchor="middle" x="156.5" y="-401.2" font-family="Times,serif" font-size="14.00">CLI Client</text>
<text xml:space="preserve" text-anchor="middle" x="156.5" y="-390.7" font-family="Times,serif" font-size="14.00">(main.py)</text>
</g>
<!-- IPC_Protocol -->
<g id="node2" class="node">
<title>IPC_Protocol</title>
<polygon fill="lightblue" stroke="black" points="213.25,-324 99.75,-324 99.75,-288 213.25,-288 213.25,-324"/>
<text xml:space="preserve" text-anchor="middle" x="156.5" y="-303.2" font-family="Times,serif" font-size="14.00">IPC Protocol</text>
<text xml:space="preserve" text-anchor="middle" x="156.5" y="-292.7" font-family="Times,serif" font-size="14.00">(protocol.py)</text>
</g>
<!-- CLI_Client&#45;&gt;IPC_Protocol -->
<g id="edge1" class="edge">
<title>CLI_Client&#45;&gt;IPC_Protocol</title>
<path fill="none" stroke="black" d="M156.5,-385.84C156.5,-371.86 156.5,-351.84 156.5,-335.47"/>
<polygon fill="black" stroke="black" points="160,-335.85 156.5,-325.85 153,-335.85 160,-335.85"/>
<text xml:space="preserve" text-anchor="middle" x="209" y="-346.95" font-family="Times,serif" font-size="14.00">Sends/Receives</text>
</g>
<!-- Session_Server -->
<g id="node3" class="node">
<title>Session_Server</title>
<polygon fill="lightblue" stroke="black" points="217,-237 96,-237 96,-201 217,-201 217,-237"/>
<text xml:space="preserve" text-anchor="middle" x="156.5" y="-216.2" font-family="Times,serif" font-size="14.00">Session Server</text>
<text xml:space="preserve" text-anchor="middle" x="156.5" y="-205.7" font-family="Times,serif" font-size="14.00">(server.py)</text>
</g>
<!-- IPC_Protocol&#45;&gt;Session_Server -->
<g id="edge2" class="edge">
<title>IPC_Protocol&#45;&gt;Session_Server</title>
<path fill="none" stroke="black" d="M156.5,-287.8C156.5,-276.58 156.5,-261.67 156.5,-248.69"/>
<polygon fill="black" stroke="black" points="160,-248.98 156.5,-238.98 153,-248.98 160,-248.98"/>
</g>
<!-- Session_Management -->
<g id="node4" class="node">
<title>Session_Management</title>
<polygon fill="lightblue" stroke="black" points="151,-138 0,-138 0,-102 151,-102 151,-138"/>
<text xml:space="preserve" text-anchor="middle" x="75.5" y="-117.2" font-family="Times,serif" font-size="14.00">Session Management</text>
<text xml:space="preserve" text-anchor="middle" x="75.5" y="-106.7" font-family="Times,serif" font-size="14.00">(sessions.py)</text>
</g>
<!-- Session_Server&#45;&gt;Session_Management -->
<g id="edge3" class="edge">
<title>Session_Server&#45;&gt;Session_Management</title>
<path fill="none" stroke="black" d="M142.02,-200.66C129.46,-185.62 111.12,-163.66 96.88,-146.6"/>
<polygon fill="black" stroke="black" points="99.92,-144.79 90.83,-139.35 94.55,-149.27 99.92,-144.79"/>
<text xml:space="preserve" text-anchor="middle" x="144.68" y="-160.95" font-family="Times,serif" font-size="14.00">Manages</text>
</g>
<!-- Command_Handlers -->
<g id="node6" class="node">
<title>Command_Handlers</title>
<polygon fill="lightblue" stroke="black" points="305.5,-138 169.5,-138 169.5,-102 305.5,-102 305.5,-138"/>
<text xml:space="preserve" text-anchor="middle" x="237.5" y="-117.2" font-family="Times,serif" font-size="14.00">Command Handlers</text>
<text xml:space="preserve" text-anchor="middle" x="237.5" y="-106.7" font-family="Times,serif" font-size="14.00">(commands/*.py)</text>
</g>
<!-- Session_Server&#45;&gt;Command_Handlers -->
<g id="edge5" class="edge">
<title>Session_Server&#45;&gt;Command_Handlers</title>
<path fill="none" stroke="black" d="M170.98,-200.66C183.54,-185.62 201.88,-163.66 216.12,-146.6"/>
<polygon fill="black" stroke="black" points="218.45,-149.27 222.17,-139.35 213.08,-144.79 218.45,-149.27"/>
<text xml:space="preserve" text-anchor="middle" x="233.18" y="-160.95" font-family="Times,serif" font-size="14.00">Delegates</text>
</g>
<!-- Browser_Sessions -->
<g id="node5" class="node">
<title>Browser_Sessions</title>
<polygon fill="lightblue" stroke="black" points="211.5,-39 15.5,-39 15.5,-3 211.5,-3 211.5,-39"/>
<text xml:space="preserve" text-anchor="middle" x="113.5" y="-12.95" font-family="Times,serif" font-size="14.00">BrowserSession Instances</text>
</g>
<!-- Session_Management&#45;&gt;Browser_Sessions -->
<g id="edge4" class="edge">
<title>Session_Management&#45;&gt;Browser_Sessions</title>
<path fill="none" stroke="black" d="M72.95,-101.66C72.06,-90.97 72.2,-77.17 76.5,-65.75 78.88,-59.43 82.6,-53.38 86.79,-47.91"/>
<polygon fill="black" stroke="black" points="89.32,-50.34 93.13,-40.45 83.98,-45.8 89.32,-50.34"/>
<text xml:space="preserve" text-anchor="middle" x="136.5" y="-62.95" font-family="Times,serif" font-size="14.00">Creates/Controls</text>
</g>
<!-- Command_Handlers&#45;&gt;Browser_Sessions -->
<g id="edge6" class="edge">
<title>Command_Handlers&#45;&gt;Browser_Sessions</title>
<path fill="none" stroke="black" d="M226.92,-101.61C219.45,-90.36 208.64,-75.97 196.5,-65.75 187.06,-57.8 175.93,-50.72 164.94,-44.69"/>
<polygon fill="black" stroke="black" points="166.77,-41.7 156.28,-40.16 163.52,-47.9 166.77,-41.7"/>
<text xml:space="preserve" text-anchor="middle" x="259.55" y="-62.95" font-family="Times,serif" font-size="14.00">Interacts with</text>
</g>
<!-- Python_Interpreter -->
<g id="node7" class="node">
<title>Python_Interpreter</title>
<polygon fill="lightblue" stroke="black" points="425.75,-39 267.25,-39 267.25,-3 425.75,-3 425.75,-39"/>
<text xml:space="preserve" text-anchor="middle" x="346.5" y="-18.2" font-family="Times,serif" font-size="14.00">Python Interpreter</text>
<text xml:space="preserve" text-anchor="middle" x="346.5" y="-7.7" font-family="Times,serif" font-size="14.00">(python_session.py)</text>
</g>
<!-- Command_Handlers&#45;&gt;Python_Interpreter -->
<g id="edge7" class="edge">
<title>Command_Handlers&#45;&gt;Python_Interpreter</title>
<path fill="none" stroke="black" d="M288.14,-101.72C301.28,-95.34 314.52,-86.97 324.5,-76.25 331.29,-68.95 336.11,-59.28 339.47,-50.13"/>
<polygon fill="black" stroke="black" points="342.72,-51.44 342.42,-40.85 336.05,-49.32 342.72,-51.44"/>
<text xml:space="preserve" text-anchor="middle" x="380.76" y="-62.95" font-family="Times,serif" font-size="14.00">Executes code</text>
</g>
</g>
</svg>