<svg width="1062pt" height="1062pt"
 viewBox="0.00 0.00 1062.00 1062.00" xmlns="http://www.w3.org/2000/svg" xmlns:xlink="http://www.w3.org/1999/xlink"><style>
  * {
    fill: transparent !important;
    stroke: rgb(255, 255, 255) !important;
    stroke-width: 1 !important;
  }
  polygon:not(.cluster *, .node *, .edge *, text) {
    stroke: transparent !important;
  }
  text {
    font-size: 10px !important;
    font-family: monospace !important;
    fill: rgb(255, 255, 255) !important;
    stroke: transparent !important;
    transform: translateY(-0.5em);
  }
</style>
<g id="graph0" class="graph" transform="scale(1 1) rotate(0) translate(4 1057.5)">
<title>G</title>
<polygon fill="white" stroke="none" points="-4,4 -4,-1057.5 1057.5,-1057.5 1057.5,4 -4,4"/>
<!-- Agent -->
<g id="node1" class="node">
<title>Agent</title>
<polygon fill="lightblue" stroke="black" stroke-width="1.5" points="747.5,-1005 581.5,-1005 581.5,-969 747.5,-969 747.5,-1005"/>
<text xml:space="preserve" text-anchor="middle" x="664.5" y="-978.95" font-family="Times,serif" font-size="14.00">Agent (Orchestrator)</text>
</g>
<!-- ContextPreparation -->
<g id="node2" class="node">
<title>ContextPreparation</title>
<polygon fill="lightblue" stroke="black" stroke-width="1.5" points="241,-698 0,-698 0,-662 241,-662 241,-698"/>
<text xml:space="preserve" text-anchor="middle" x="120.5" y="-677.2" font-family="Times,serif" font-size="14.00">Context Preparation</text>
<text xml:space="preserve" text-anchor="middle" x="120.5" y="-666.7" font-family="Times,serif" font-size="14.00">(Browser State, Skills, Files)</text>
</g>
<!-- Agent&#45;&gt;ContextPreparation -->
<g id="edge1" class="edge">
<title>Agent&#45;&gt;ContextPreparation</title>
<path fill="none" stroke="#666666" d="M632.9,-968.28C539.74,-916.05 266.19,-762.68 161.71,-704.1"/>
<polygon fill="#666666" stroke="#666666" points="163.6,-701.15 153.17,-699.32 160.18,-707.26 163.6,-701.15"/>
<text xml:space="preserve" text-anchor="middle" x="445" y="-824.95" font-family="Times,serif" font-size="14.00">initiates step</text>
</g>
<!-- LLMInteraction -->
<g id="node4" class="node">
<title>LLMInteraction</title>
<polygon fill="lightblue" stroke="black" stroke-width="1.5" points="586.75,-391 428.25,-391 428.25,-355 586.75,-355 586.75,-391"/>
<text xml:space="preserve" text-anchor="middle" x="507.5" y="-370.2" font-family="Times,serif" font-size="14.00">LLM Interaction</text>
<text xml:space="preserve" text-anchor="middle" x="507.5" y="-359.7" font-family="Times,serif" font-size="14.00">(Action Generation)</text>
</g>
<!-- Agent&#45;&gt;LLMInteraction -->
<g id="edge7" class="edge">
<title>Agent&#45;&gt;LLMInteraction</title>
<path fill="none" stroke="#666666" d="M665.41,-968.25C667.99,-904.74 671.14,-683.93 601.5,-521.75 581.99,-476.32 549.34,-428.99 528.11,-400.5"/>
<polygon fill="#666666" stroke="#666666" points="531.12,-398.67 522.3,-392.8 525.53,-402.89 531.12,-398.67"/>
<text xml:space="preserve" text-anchor="middle" x="694.09" y="-671.95" font-family="Times,serif" font-size="14.00">fallback LLM</text>
</g>
<!-- MessageManager -->
<g id="node3" class="node">
<title>MessageManager</title>
<polygon fill="lightblue" stroke="black" stroke-width="1.5" points="628,-698 387,-698 387,-662 628,-662 628,-698"/>
<text xml:space="preserve" text-anchor="middle" x="507.5" y="-677.2" font-family="Times,serif" font-size="14.00">MessageManager</text>
<text xml:space="preserve" text-anchor="middle" x="507.5" y="-666.7" font-family="Times,serif" font-size="14.00">(Prompt Construction, History)</text>
</g>
<!-- ContextPreparation&#45;&gt;MessageManager -->
<g id="edge2" class="edge">
<title>ContextPreparation&#45;&gt;MessageManager</title>
<path fill="none" stroke="#666666" d="M241.62,-680C283.96,-680 331.69,-680 374.91,-680"/>
<polygon fill="#666666" stroke="#666666" points="374.87,-683.5 384.87,-680 374.87,-676.5 374.87,-683.5"/>
<text xml:space="preserve" text-anchor="middle" x="314" y="-680.2" font-family="Times,serif" font-size="14.00">prepares messages</text>
</g>
<!-- MessageManager&#45;&gt;LLMInteraction -->
<g id="edge3" class="edge">
<title>MessageManager&#45;&gt;LLMInteraction</title>
<path fill="none" stroke="#666666" d="M507.5,-661.28C507.5,-610.63 507.5,-464.84 507.5,-402.65"/>
<polygon fill="#666666" stroke="#666666" points="511,-402.9 507.5,-392.9 504,-402.9 511,-402.9"/>
<text xml:space="preserve" text-anchor="middle" x="552.5" y="-518.95" font-family="Times,serif" font-size="14.00">sends prompt</text>
</g>
<!-- LLMInteraction&#45;&gt;LLMInteraction -->
<g id="edge8" class="edge">
<title>LLMInteraction&#45;&gt;LLMInteraction</title>
<path fill="none" stroke="#666666" d="M530.45,-391.57C563.58,-409.67 604.75,-403.48 604.75,-373 604.75,-345.62 571.52,-337.84 540.74,-349.66"/>
<polygon fill="#666666" stroke="#666666" points="539.43,-346.41 531.82,-353.79 542.37,-352.77 539.43,-346.41"/>
<text xml:space="preserve" text-anchor="middle" x="623.5" y="-364.95" font-family="Times,serif" font-size="14.00">retry</text>
</g>
<!-- ActionExecution -->
<g id="node5" class="node">
<title>ActionExecution</title>
<polygon fill="lightblue" stroke="black" stroke-width="1.5" points="953.5,-391 787.5,-391 787.5,-355 953.5,-355 953.5,-391"/>
<text xml:space="preserve" text-anchor="middle" x="870.5" y="-370.2" font-family="Times,serif" font-size="14.00">Action Execution</text>
<text xml:space="preserve" text-anchor="middle" x="870.5" y="-359.7" font-family="Times,serif" font-size="14.00">(Browser, Tools, FS)</text>
</g>
<!-- LLMInteraction&#45;&gt;ActionExecution -->
<g id="edge4" class="edge">
<title>LLMInteraction&#45;&gt;ActionExecution</title>
<path fill="none" stroke="#666666" d="M587.16,-373C642.63,-373 716.86,-373 775.43,-373"/>
<polygon fill="#666666" stroke="#666666" points="775.41,-376.5 785.41,-373 775.41,-369.5 775.41,-376.5"/>
<text xml:space="preserve" text-anchor="middle" x="687.12" y="-373.2" font-family="Times,serif" font-size="14.00">generates actions</text>
</g>
<!-- PostProcessing -->
<g id="node6" class="node">
<title>PostProcessing</title>
<polygon fill="lightblue" stroke="black" stroke-width="1.5" points="1053.5,-85 797.5,-85 797.5,-49 1053.5,-49 1053.5,-85"/>
<text xml:space="preserve" text-anchor="middle" x="925.5" y="-64.2" font-family="Times,serif" font-size="14.00">Post&#45;Processing</text>
<text xml:space="preserve" text-anchor="middle" x="925.5" y="-53.7" font-family="Times,serif" font-size="14.00">(History, Logging, State Update)</text>
</g>
<!-- ActionExecution&#45;&gt;PostProcessing -->
<g id="edge5" class="edge">
<title>ActionExecution&#45;&gt;PostProcessing</title>
<path fill="none" stroke="#666666" d="M866.09,-354.32C859.47,-324.98 848.82,-264.52 859.5,-214.75 868.95,-170.72 892.67,-123.95 908.94,-95.35"/>
<polygon fill="#666666" stroke="#666666" points="911.8,-97.39 913.8,-86.99 905.75,-93.88 911.8,-97.39"/>
<text xml:space="preserve" text-anchor="middle" x="919.5" y="-211.95" font-family="Times,serif" font-size="14.00">produces results</text>
</g>
<!-- PostProcessing&#45;&gt;Agent -->
<g id="edge6" class="edge">
<title>PostProcessing&#45;&gt;Agent</title>
<path fill="none" stroke="#666666" d="M934.26,-85.5C947.2,-112.46 970.83,-166.11 979.5,-214.75 993.3,-292.23 984.5,-315.44 962.5,-391 894.38,-625.03 736.14,-877.43 682.59,-958.98"/>
<polygon fill="#666666" stroke="#666666" points="679.73,-956.95 677.14,-967.23 685.57,-960.81 679.73,-956.95"/>
<text xml:space="preserve" text-anchor="middle" x="964.94" y="-518.95" font-family="Times,serif" font-size="14.00">updates state</text>
</g>
</g>
</svg>