<svg width="563pt" height="562pt"
 viewBox="0.00 0.00 563.00 562.00" xmlns="http://www.w3.org/2000/svg" xmlns:xlink="http://www.w3.org/1999/xlink"><style>
  * {
    fill: transparent !important;
    stroke: rgb(255, 255, 255) !important;
    stroke-width: 1 !important;
  }
  polygon:not(.cluster *, .node *, .edge *, text) {
    stroke: transparent !important;
  }
  text {
    font-size: 10px !important;
    font-family: monospace !important;
    fill: rgb(255, 255, 255) !important;
    stroke: transparent !important;
    transform: translateY(-0.5em);
  }
</style>
<g id="graph0" class="graph" transform="scale(1 1) rotate(0) translate(4 558)">
<title>G</title>
<polygon fill="white" stroke="none" points="-4,4 -4,-558 559.15,-558 559.15,4 -4,4"/>
<!-- BrowserProfile -->
<g id="node1" class="node">
<title>BrowserProfile</title>
<polygon fill="lightblue" stroke="black" points="323.25,-537 194.75,-537 194.75,-501 323.25,-501 323.25,-537"/>
<text xml:space="preserve" text-anchor="middle" x="259" y="-516.2" font-family="Times,serif" font-size="14.00">BrowserProfile</text>
<text xml:space="preserve" text-anchor="middle" x="259" y="-505.7" font-family="Times,serif" font-size="14.00">(Configuration)</text>
</g>
<!-- BrowserSession -->
<g id="node2" class="node">
<title>BrowserSession</title>
<polygon fill="lightblue" stroke="black" points="338.25,-376 179.75,-376 179.75,-340 338.25,-340 338.25,-376"/>
<text xml:space="preserve" text-anchor="middle" x="259" y="-355.2" font-family="Times,serif" font-size="14.00">BrowserSession</text>
<text xml:space="preserve" text-anchor="middle" x="259" y="-344.7" font-family="Times,serif" font-size="14.00">(Core Orchestrator)</text>
</g>
<!-- BrowserProfile&#45;&gt;BrowserSession -->
<g id="edge1" class="edge">
<title>BrowserProfile&#45;&gt;BrowserSession</title>
<path fill="none" stroke="black" d="M259,-500.68C259,-473.44 259,-420.31 259,-387.41"/>
<polygon fill="black" stroke="black" points="262.5,-387.81 259,-377.81 255.5,-387.81 262.5,-387.81"/>
<text xml:space="preserve" text-anchor="middle" x="296.5" y="-429.95" font-family="Times,serif" font-size="14.00">configures</text>
</g>
<!-- ActorComponents -->
<g id="node3" class="node">
<title>ActorComponents</title>
<polygon fill="lightblue" stroke="black" points="166,-214 0,-214 0,-178 166,-178 166,-214"/>
<text xml:space="preserve" text-anchor="middle" x="83" y="-193.2" font-family="Times,serif" font-size="14.00">Page, Element, Mouse</text>
<text xml:space="preserve" text-anchor="middle" x="83" y="-182.7" font-family="Times,serif" font-size="14.00">(Actor API)</text>
</g>
<!-- BrowserSession&#45;&gt;ActorComponents -->
<g id="edge2" class="edge">
<title>BrowserSession&#45;&gt;ActorComponents</title>
<path fill="none" stroke="black" d="M239.83,-339.57C208.49,-311.08 146.17,-254.43 110.25,-221.77"/>
<polygon fill="black" stroke="black" points="113.02,-219.56 103.27,-215.42 108.31,-224.74 113.02,-219.56"/>
<text xml:space="preserve" text-anchor="middle" x="206.28" y="-268.95" font-family="Times,serif" font-size="14.00">controls</text>
</g>
<!-- SessionManager -->
<g id="node4" class="node">
<title>SessionManager</title>
<polygon fill="lightblue" stroke="black" points="335.5,-214 184.5,-214 184.5,-178 335.5,-178 335.5,-214"/>
<text xml:space="preserve" text-anchor="middle" x="260" y="-193.2" font-family="Times,serif" font-size="14.00">SessionManager</text>
<text xml:space="preserve" text-anchor="middle" x="260" y="-182.7" font-family="Times,serif" font-size="14.00">(CDP Session Pool)</text>
</g>
<!-- BrowserSession&#45;&gt;SessionManager -->
<g id="edge3" class="edge">
<title>BrowserSession&#45;&gt;SessionManager</title>
<path fill="none" stroke="black" d="M254.45,-339.75C250.45,-322.57 245.54,-295.41 247.5,-271.75 248.77,-256.44 251.48,-239.54 254.06,-225.69"/>
<polygon fill="black" stroke="black" points="257.49,-226.39 255.96,-215.9 250.62,-225.05 257.49,-226.39"/>
<text xml:space="preserve" text-anchor="middle" x="273.75" y="-268.95" font-family="Times,serif" font-size="14.00">manages</text>
</g>
<!-- Events -->
<g id="node6" class="node">
<title>Events</title>
<polygon fill="lightblue" stroke="black" points="538.25,-214 379.75,-214 379.75,-178 538.25,-178 538.25,-214"/>
<text xml:space="preserve" text-anchor="middle" x="459" y="-193.2" font-family="Times,serif" font-size="14.00">Events</text>
<text xml:space="preserve" text-anchor="middle" x="459" y="-182.7" font-family="Times,serif" font-size="14.00">(Communication Bus)</text>
</g>
<!-- BrowserSession&#45;&gt;Events -->
<g id="edge6" class="edge">
<title>BrowserSession&#45;&gt;Events</title>
<path fill="none" stroke="black" d="M268.97,-339.59C280.26,-321.03 300.08,-291.64 323,-271.75 347.79,-250.24 379.79,-232.27 406.52,-219.35"/>
<polygon fill="black" stroke="black" points="407.93,-222.55 415.48,-215.12 404.95,-216.22 407.93,-222.55"/>
<text xml:space="preserve" text-anchor="middle" x="390.5" y="-268.95" font-family="Times,serif" font-size="14.00">dispatches/listens</text>
</g>
<!-- CDP -->
<g id="node5" class="node">
<title>CDP</title>
<polygon fill="lightblue" stroke="black" points="291.5,-53 50.5,-53 50.5,-17 291.5,-17 291.5,-53"/>
<text xml:space="preserve" text-anchor="middle" x="171" y="-32.2" font-family="Times,serif" font-size="14.00">CDP (Chrome DevTools Protocol)</text>
<text xml:space="preserve" text-anchor="middle" x="171" y="-21.7" font-family="Times,serif" font-size="14.00">(Underlying Protocol)</text>
</g>
<!-- ActorComponents&#45;&gt;CDP -->
<g id="edge5" class="edge">
<title>ActorComponents&#45;&gt;CDP</title>
<path fill="none" stroke="black" d="M91.53,-177.74C100.09,-160.59 113.8,-133.63 126.5,-110.75 135.41,-94.71 145.88,-77.05 154.43,-62.93"/>
<polygon fill="black" stroke="black" points="157.27,-65 159.48,-54.64 151.29,-61.36 157.27,-65"/>
<text xml:space="preserve" text-anchor="middle" x="175.25" y="-107.95" font-family="Times,serif" font-size="14.00">interacts via</text>
</g>
<!-- SessionManager&#45;&gt;CDP -->
<g id="edge4" class="edge">
<title>SessionManager&#45;&gt;CDP</title>
<path fill="none" stroke="black" d="M253.85,-177.71C247.39,-160.32 236.43,-132.96 224,-110.75 214.59,-93.94 202.23,-76.32 191.81,-62.4"/>
<polygon fill="black" stroke="black" points="194.73,-60.46 185.89,-54.62 189.16,-64.7 194.73,-60.46"/>
<text xml:space="preserve" text-anchor="middle" x="288.69" y="-107.95" font-family="Times,serif" font-size="14.00">communicates via</text>
</g>
<!-- Watchdogs -->
<g id="node7" class="node">
<title>Watchdogs</title>
<polygon fill="lightblue" stroke="black" points="554,-537 358,-537 358,-501 554,-501 554,-537"/>
<text xml:space="preserve" text-anchor="middle" x="456" y="-516.2" font-family="Times,serif" font-size="14.00">Watchdogs</text>
<text xml:space="preserve" text-anchor="middle" x="456" y="-505.7" font-family="Times,serif" font-size="14.00">(e.g., Crash, Downloads)</text>
</g>
<!-- Watchdogs&#45;&gt;BrowserSession -->
<g id="edge8" class="edge">
<title>Watchdogs&#45;&gt;BrowserSession</title>
<path fill="none" stroke="black" d="M434.54,-500.68C399.39,-472.31 329.42,-415.84 289.25,-383.41"/>
<polygon fill="black" stroke="black" points="291.59,-380.8 281.61,-377.25 287.19,-386.25 291.59,-380.8"/>
<text xml:space="preserve" text-anchor="middle" x="387.5" y="-429.95" font-family="Times,serif" font-size="14.00">monitors</text>
</g>
<!-- Watchdogs&#45;&gt;Events -->
<g id="edge7" class="edge">
<title>Watchdogs&#45;&gt;Events</title>
<path fill="none" stroke="black" d="M456.16,-500.74C456.65,-448.38 458.12,-290.93 458.73,-225.74"/>
<polygon fill="black" stroke="black" points="462.23,-225.89 458.82,-215.86 455.23,-225.82 462.23,-225.89"/>
<text xml:space="preserve" text-anchor="middle" x="506.4" y="-349.95" font-family="Times,serif" font-size="14.00">listens/emits</text>
</g>
</g>
</svg>