<svg width="332pt" height="332pt"
 viewBox="0.00 0.00 332.00 332.00" xmlns="http://www.w3.org/2000/svg" xmlns:xlink="http://www.w3.org/1999/xlink"><style>
  * {
    fill: transparent !important;
    stroke: rgb(255, 255, 255) !important;
    stroke-width: 1 !important;
  }
  polygon:not(.cluster *, .node *, .edge *, text) {
    stroke: transparent !important;
  }
  text {
    font-size: 10px !important;
    font-family: monospace !important;
    fill: rgb(255, 255, 255) !important;
    stroke: transparent !important;
    transform: translateY(-0.5em);
  }
</style>
<g id="graph0" class="graph" transform="scale(1 1) rotate(0) translate(4 328)">
<title>G</title>
<polygon fill="white" stroke="none" points="-4,4 -4,-328 328,-328 328,4 -4,4"/>
<!-- CLI_Invocation -->
<g id="node1" class="node">
<title>CLI_Invocation</title>
<polygon fill="lightblue" stroke="black" points="232.99,-324 89.49,-324 89.49,-288 232.99,-288 232.99,-324"/>
<text xml:space="preserve" text-anchor="middle" x="161.24" y="-303.2" font-family="Times,serif" font-size="14.00">CLI Invocation</text>
<text xml:space="preserve" text-anchor="middle" x="161.24" y="-292.7" font-family="Times,serif" font-size="14.00">(browser&#45;use run)</text>
</g>
<!-- API_Key_Validation -->
<g id="node2" class="node">
<title>API_Key_Validation</title>
<polygon fill="lightblue" stroke="black" points="236.74,-252 85.74,-252 85.74,-216 236.74,-216 236.74,-252"/>
<text xml:space="preserve" text-anchor="middle" x="161.24" y="-225.95" font-family="Times,serif" font-size="14.00">API Key Validation</text>
</g>
<!-- CLI_Invocation&#45;&gt;API_Key_Validation -->
<g id="edge1" class="edge">
<title>CLI_Invocation&#45;&gt;API_Key_Validation</title>
<path fill="none" stroke="black" d="M161.24,-287.7C161.24,-280.41 161.24,-271.73 161.24,-263.54"/>
<polygon fill="black" stroke="black" points="164.74,-263.62 161.24,-253.62 157.74,-263.62 164.74,-263.62"/>
</g>
<!-- LLM_Selection -->
<g id="node3" class="node">
<title>LLM_Selection</title>
<polygon fill="lightblue" stroke="black" points="217.99,-180 104.49,-180 104.49,-144 217.99,-144 217.99,-180"/>
<text xml:space="preserve" text-anchor="middle" x="161.24" y="-153.95" font-family="Times,serif" font-size="14.00">LLM Selection</text>
</g>
<!-- API_Key_Validation&#45;&gt;LLM_Selection -->
<g id="edge2" class="edge">
<title>API_Key_Validation&#45;&gt;LLM_Selection</title>
<path fill="none" stroke="black" d="M161.24,-215.7C161.24,-208.41 161.24,-199.73 161.24,-191.54"/>
<polygon fill="black" stroke="black" points="164.74,-191.62 161.24,-181.62 157.74,-191.62 164.74,-191.62"/>
</g>
<!-- Agent_Execution -->
<g id="node4" class="node">
<title>Agent_Execution</title>
<polygon fill="lightblue" stroke="black" points="225.49,-108 96.99,-108 96.99,-72 225.49,-72 225.49,-108"/>
<text xml:space="preserve" text-anchor="middle" x="161.24" y="-81.95" font-family="Times,serif" font-size="14.00">Agent Execution</text>
</g>
<!-- LLM_Selection&#45;&gt;Agent_Execution -->
<g id="edge3" class="edge">
<title>LLM_Selection&#45;&gt;Agent_Execution</title>
<path fill="none" stroke="black" d="M161.24,-143.7C161.24,-136.41 161.24,-127.73 161.24,-119.54"/>
<polygon fill="black" stroke="black" points="164.74,-119.62 161.24,-109.62 157.74,-119.62 164.74,-119.62"/>
</g>
<!-- Browser_Session -->
<g id="node5" class="node">
<title>Browser_Session</title>
<polygon fill="lightblue" stroke="black" points="139.49,-36 10.99,-36 10.99,0 139.49,0 139.49,-36"/>
<text xml:space="preserve" text-anchor="middle" x="75.24" y="-9.95" font-family="Times,serif" font-size="14.00">Browser Session</text>
</g>
<!-- Agent_Execution&#45;&gt;Browser_Session -->
<g id="edge4" class="edge">
<title>Agent_Execution&#45;&gt;Browser_Session</title>
<path fill="none" stroke="black" d="M139.98,-71.7C129.54,-63.2 116.78,-52.81 105.35,-43.51"/>
<polygon fill="black" stroke="black" points="107.69,-40.9 97.72,-37.3 103.27,-46.33 107.69,-40.9"/>
</g>
<!-- Result_Handling -->
<g id="node6" class="node">
<title>Result_Handling</title>
<polygon fill="lightblue" stroke="black" points="312.49,-36 183.99,-36 183.99,0 312.49,0 312.49,-36"/>
<text xml:space="preserve" text-anchor="middle" x="248.24" y="-9.95" font-family="Times,serif" font-size="14.00">Result Handling</text>
</g>
<!-- Agent_Execution&#45;&gt;Result_Handling -->
<g id="edge5" class="edge">
<title>Agent_Execution&#45;&gt;Result_Handling</title>
<path fill="none" stroke="black" d="M182.74,-71.7C193.3,-63.2 206.21,-52.81 217.77,-43.51"/>
<polygon fill="black" stroke="black" points="219.9,-46.29 225.5,-37.3 215.51,-40.84 219.9,-46.29"/>
</g>
</g>
</svg>